<svg xmlns="http://www.w3.org/2000/svg" xmlns:v="https://svgstorm.com"
viewBox = "0 0 1563 1563"
width="1563"
height="1563">
<g fill="None" fill-opacity="0.0" stroke="#000000" stroke-opacity="0.00" stroke-width="0.3"><path d="
M 0.00 1563.00 
L 1563.00 1563.00
L 1563.00 0.00
L 0.00 0.00
L 0.00 1563.00
M 796.00 384.00 
C 797.16 384.72 798.05 385.26 799.00 386.00
C 800.81 387.41 803.00 388.88 804.00 391.00
C 802.17 390.73 799.70 389.98 799.00 388.00
C 798.02 387.47 795.89 386.40 795.00 386.00
C 763.74 372.06 729.30 383.45 713.23 415.23 C 697.16 447.01 729.30 477.54 733.00 509.00 C 736.70 540.46 708.58 573.97 676.98 575.98 C 645.38 577.98 609.90 588.10 598.23 621.23 C 586.56 654.36 588.49 688.42 576.00 721.00
C 578.54 692.81 578.30 656.04 582.98 627.98 C 587.65 599.91 603.29 580.32 628.23 568.23 C 653.17 556.14 685.77 564.78 704.92 539.92 C 724.07 515.06 707.22 486.60 696.03 461.97 C 684.83 437.35 696.27 405.47 717.25 388.25 C 738.23 371.02 773.42 366.21 796.00 384.00
M 653.00 387.00 
C 606.26 411.95 567.75 438.77 534.25 483.25 C 500.75 527.73 481.15 588.52 481.00 646.00 C 480.85 703.48 500.14 763.97 533.30 808.70 C 566.46 853.43 605.98 881.53 655.00 903.00
C 685.41 853.52 676.25 787.22 659.00 735.00
C 653.00 751.40 638.83 767.37 622.00 773.00
C 642.02 753.25 654.09 726.66 648.00 698.00
C 651.06 697.25 654.07 696.26 657.00 695.00
C 680.40 760.32 701.60 840.83 665.00 906.00
C 731.03 930.65 810.02 924.53 873.00 896.00
C 844.53 831.58 862.80 757.92 886.00 695.00
C 902.98 694.88 893.01 710.81 894.00 721.00 C 894.99 731.19 899.62 741.60 904.92 750.08 C 910.23 758.55 916.54 764.80 922.00 773.00
C 903.85 768.92 892.97 750.87 885.00 737.00
C 871.70 785.48 862.63 841.51 882.00 890.00
C 896.68 883.08 911.11 874.39 924.08 864.08 C 937.05 853.77 948.27 843.69 959.75 830.75 C 971.23 817.82 983.50 805.97 985.00 787.00 C 986.50 768.02 988.89 741.20 988.00 721.00 C 987.11 700.80 985.01 677.73 981.02 658.98 C 977.04 640.22 972.48 622.21 965.68 605.32 C 958.87 588.43 951.51 574.48 942.23 559.77 C 932.95 545.06 923.86 532.84 912.70 520.30 C 901.53 507.77 889.52 497.56 878.00 486.00
C 875.08 483.45 869.95 482.83 870.00 478.00
C 872.32 480.62 876.17 481.15 878.00 484.00
C 898.80 497.98 915.73 513.29 932.25 532.75 C 948.77 552.21 961.28 571.66 972.77 596.23 C 984.26 620.80 990.68 648.38 995.98 677.02 C 1001.28 705.66 998.49 744.73 997.00 774.00
C 996.93 775.45 997.90 776.25 998.00 777.00
C 1014.23 739.86 1027.58 706.22 1029.99 664.99 C 1032.40 623.76 1024.06 575.01 1009.08 538.92 C 994.09 502.84 976.83 477.26 953.00 448.00
C 1051.93 531.72 1064.38 683.52 1002.25 792.25 C 940.12 900.97 807.09 955.96 687.78 926.22 C 568.47 896.48 479.85 795.70 469.07 672.93 C 458.29 550.16 534.08 420.75 653.00 385.00
C 654.66 384.62 656.16 383.82 658.00 384.00
C 657.15 385.92 654.95 386.78 653.00 387.00
M 1004.00 421.00 
C 1015.89 421.90 1017.63 442.45 1015.02 451.02 C 1012.42 459.60 1007.71 475.84 995.00 475.00 C 982.28 474.15 981.94 453.93 983.98 444.98 C 986.01 436.02 992.07 420.09 1004.00 421.00
M 841.00 437.00 
C 854.76 438.97 861.72 449.41 863.00 464.00 C 864.28 478.59 842.31 476.90 834.25 465.75 C 826.18 454.61 820.69 434.10 841.00 437.00
M 904.00 437.00 
C 913.92 440.01 915.05 456.81 915.00 465.00 C 914.95 473.19 908.46 489.72 897.92 486.07 C 887.38 482.41 886.18 468.11 886.00 459.00 C 885.82 449.89 891.77 433.29 904.00 437.00
M 1054.00 479.00 
C 1066.75 482.16 1061.77 500.85 1053.75 507.75 C 1045.74 514.65 1036.33 524.87 1023.78 521.22 C 1011.23 517.58 1015.51 500.62 1023.25 493.25 C 1030.99 485.88 1041.90 476.00 1054.00 479.00
M 956.00 481.00 
C 961.21 483.13 959.00 495.98 958.07 500.07 C 957.14 504.17 953.00 511.82 948.77 513.77 C 944.54 515.71 935.38 522.86 930.00 519.00 C 924.62 515.14 926.08 508.83 927.93 499.93 C 929.77 491.02 945.73 476.80 956.00 481.00
M 865.00 490.00 
C 882.68 493.17 875.76 509.74 865.26 514.26 C 854.75 518.77 832.04 519.11 831.36 505.31 C 830.67 491.50 856.16 488.42 865.00 490.00
M 985.00 521.00 
C 995.71 522.96 993.06 543.14 987.68 549.68 C 982.30 556.22 974.19 567.21 963.93 564.07 C 953.66 560.94 956.21 544.38 961.31 537.31 C 966.40 530.23 974.71 519.12 985.00 521.00
M 894.00 524.00 
C 904.36 525.68 912.69 536.26 903.90 544.90 C 895.11 553.54 885.00 552.87 873.98 553.02 C 862.95 553.18 854.29 540.58 862.92 532.92 C 871.55 525.26 882.56 522.14 894.00 524.00
M 1079.00 540.00 
C 1092.07 542.71 1086.60 561.62 1079.25 568.25 C 1071.89 574.88 1061.73 585.74 1049.33 582.67 C 1036.93 579.60 1040.21 561.64 1048.25 554.25 C 1056.29 546.86 1066.79 537.47 1079.00 540.00
M 918.00 561.00 
C 925.96 561.84 942.16 568.78 935.69 578.70 C 929.23 588.61 918.97 590.70 909.00 591.00 C 899.03 591.30 884.49 584.21 890.75 574.75 C 897.02 565.30 906.71 559.81 918.00 561.00
M 254.00 995.00 
C 243.33 990.17 231.94 985.90 220.00 988.00 C 208.05 990.10 200.80 998.96 200.00 1011.00 C 199.20 1023.04 207.32 1031.80 217.70 1036.31 C 228.07 1040.81 237.05 1044.61 246.70 1050.30 C 256.34 1056.00 262.08 1066.19 262.93 1077.07 C 263.77 1087.96 258.37 1099.62 249.75 1106.75 C 241.14 1113.88 227.11 1117.51 216.00 1116.00 C 204.89 1114.49 188.30 1113.54 187.00 1101.00
C 196.20 1108.24 207.46 1111.55 219.00 1112.00 C 230.54 1112.45 242.01 1108.02 247.77 1097.77 C 253.53 1087.52 250.86 1073.94 242.75 1066.25 C 234.64 1058.56 224.46 1055.40 214.77 1051.23 C 205.08 1047.06 195.03 1042.55 190.70 1032.31 C 186.36 1022.06 186.53 1006.43 193.77 997.77 C 201.01 989.12 211.36 983.72 222.07 983.07 C 232.78 982.43 250.40 984.80 254.00 995.00
M 826.00 995.00 
C 815.33 990.17 803.94 985.90 792.00 988.00 C 780.05 990.10 772.80 998.96 772.00 1011.00 C 771.20 1023.04 779.32 1031.80 789.70 1036.31 C 800.07 1040.81 809.05 1044.61 818.70 1050.30 C 828.34 1056.00 834.08 1066.19 834.93 1077.07 C 835.77 1087.96 830.37 1099.62 821.75 1106.75 C 813.14 1113.89 799.11 1117.51 788.00 1116.00 C 776.89 1114.49 760.30 1113.54 759.00 1101.00
C 768.20 1108.24 779.47 1111.55 791.00 1112.00 C 802.53 1112.45 814.01 1108.02 819.77 1097.77 C 825.53 1087.52 822.86 1073.94 814.75 1066.25 C 806.64 1058.56 796.46 1055.40 786.77 1051.23 C 777.08 1047.06 767.03 1042.55 762.70 1032.31 C 758.36 1022.06 758.53 1006.42 765.77 997.77 C 773.01 989.12 783.36 983.71 794.07 983.07 C 804.78 982.43 822.40 984.80 826.00 995.00
M 448.00 984.00 
C 464.83 1018.92 484.46 1052.90 501.00 1088.00
C 521.28 1054.60 537.81 1018.33 557.00 984.00
C 564.24 1025.44 566.98 1068.90 573.00 1111.00
C 560.48 1114.60 556.05 1108.29 556.00 1098.00 C 555.96 1087.70 553.59 1079.73 553.00 1070.00 C 552.41 1060.27 550.39 1051.83 549.67 1042.33 C 548.95 1032.83 547.35 1024.28 546.00 1015.00
C 539.34 1024.56 534.82 1035.83 529.08 1046.08 C 523.33 1056.32 518.32 1067.24 512.25 1077.25 C 506.17 1087.26 502.85 1101.58 494.00 1108.00
C 479.58 1076.51 461.47 1046.47 447.00 1015.00
C 444.80 1022.50 444.55 1030.97 443.02 1039.02 C 441.50 1047.08 441.55 1057.01 440.00 1065.00 C 438.45 1072.99 438.08 1081.64 436.22 1089.22 C 434.36 1096.80 437.54 1110.36 429.00 1111.00
C 430.79 1100.48 432.26 1090.38 433.78 1079.78 C 435.30 1069.18 436.00 1057.44 437.99 1046.99 C 439.98 1036.55 440.02 1025.33 442.00 1015.00 C 443.98 1004.67 443.65 992.10 448.00 984.00
M 645.00 984.00 
C 662.26 1026.57 681.37 1068.54 699.00 1111.00
C 687.91 1113.79 679.92 1109.54 677.69 1099.31 C 675.47 1089.07 669.86 1085.92 667.23 1075.77 C 664.60 1065.62 659.94 1058.70 648.00 1061.00 C 636.06 1063.30 625.79 1059.27 614.00 1061.00
C 610.46 1069.53 606.89 1079.21 602.23 1087.23 C 597.57 1095.25 597.05 1109.80 587.00 1111.00
C 595.29 1089.53 605.13 1067.87 614.92 1046.92 C 624.72 1025.98 632.35 1002.23 645.00 984.00
M 358.00 985.00 
C 396.38 988.72 418.35 1023.43 413.02 1061.02 C 407.70 1098.62 372.26 1120.20 334.00 1115.00 C 295.74 1109.80 272.59 1077.18 278.00 1038.00 C 283.41 998.82 320.37 981.36 358.00 985.00
M 1372.00 1048.00 
C 1372.19 1050.21 1372.20 1052.79 1372.00 1055.00
C 1368.61 1091.98 1340.58 1114.78 1304.00 1115.00 C 1267.42 1115.22 1236.00 1092.41 1236.00 1054.00
C 1235.76 1051.49 1235.76 1048.44 1236.00 1046.00
C 1236.00 1023.20 1246.55 1002.06 1268.08 992.08 C 1289.60 982.09 1318.57 982.27 1340.22 992.78 C 1361.88 1003.28 1370.09 1025.52 1372.00 1048.00
M 901.00 1110.00 
C 899.43 1112.24 889.79 1111.25 887.00 1111.00
C 882.46 1106.64 887.39 1094.64 886.00 1088.00 C 884.61 1081.36 886.63 1071.41 886.00 1064.00 C 885.37 1056.59 886.29 1047.78 886.00 1040.00 C 885.71 1032.22 886.15 1024.00 886.00 1016.00 C 885.85 1008.00 886.11 999.08 886.00 991.00
C 873.33 991.00 860.67 991.00 848.00 991.00
C 848.28 989.72 847.24 987.50 849.00 987.00
C 854.32 983.63 864.44 988.46 871.00 987.00 C 877.56 985.54 886.94 987.71 894.00 987.00 C 901.06 986.29 908.69 987.35 916.00 987.00 C 923.31 986.65 931.60 987.27 939.00 987.00
C 938.64 994.23 928.09 990.20 922.00 991.00 C 915.91 991.80 907.32 990.40 901.00 991.00
C 901.00 1030.67 901.00 1070.33 901.00 1110.00
M 1004.00 1115.00 
C 1001.45 1115.17 998.78 1114.17 997.00 1114.00
C 972.78 1113.52 954.10 1098.11 954.02 1071.98 C 953.95 1045.84 954.03 1013.68 954.00 987.00
C 959.00 987.00 964.00 987.00 969.00 987.00
C 971.78 1017.71 963.65 1061.18 972.78 1089.22 C 981.90 1117.26 1030.00 1116.26 1039.92 1088.92 C 1049.85 1061.59 1042.92 1017.49 1045.00 987.00
C 1052.49 989.79 1048.32 1003.26 1049.00 1012.00 C 1049.68 1020.74 1048.84 1033.04 1049.00 1042.00 C 1049.16 1050.96 1049.29 1062.41 1049.00 1071.00 C 1048.71 1079.59 1045.94 1087.16 1042.23 1094.23 C 1038.52 1101.30 1034.45 1104.65 1027.77 1108.77 C 1021.09 1112.89 1011.68 1113.68 1004.00 1115.00
M 1067.00 1111.00 
C 1067.00 1069.67 1067.00 1028.34 1067.00 987.00
C 1097.27 989.47 1145.94 978.03 1167.25 1003.75 C 1188.55 1029.47 1187.33 1066.67 1165.75 1091.75 C 1144.18 1116.83 1098.06 1110.69 1067.00 1111.00
M 1215.00 1111.00 
C 1211.87 1113.19 1204.52 1109.36 1201.00 1111.00
C 1201.00 1069.67 1201.00 1028.34 1201.00 987.00
C 1205.67 987.00 1210.33 987.00 1215.00 987.00
C 1219.09 989.86 1214.86 1001.64 1216.00 1007.00 C 1217.14 1012.36 1215.57 1021.85 1216.00 1028.00 C 1216.43 1034.15 1216.00 1042.64 1216.00 1049.00 C 1216.00 1055.36 1216.43 1063.84 1216.00 1070.00 C 1215.57 1076.16 1217.14 1085.61 1216.00 1091.00 C 1214.86 1096.39 1219.07 1108.15 1215.00 1111.00
M 315.00 1186.00 
C 310.30 1182.04 301.31 1175.98 294.77 1180.77 C 288.24 1185.56 287.38 1195.17 294.25 1200.75 C 301.12 1206.33 310.94 1197.23 316.00 1195.00
C 310.90 1211.40 286.79 1208.22 286.01 1190.99 C 285.22 1173.76 311.37 1168.52 315.00 1186.00
M 367.00 1175.00 
C 385.64 1178.86 378.60 1211.12 359.33 1205.67 C 340.06 1200.22 347.28 1170.92 367.00 1175.00
M 427.00 1193.00 
C 432.29 1187.74 433.90 1176.71 442.00 1176.00
C 442.00 1185.66 442.00 1195.34 442.00 1205.00
C 433.07 1204.44 441.23 1189.31 437.00 1184.00
C 433.90 1186.77 431.87 1197.02 426.97 1196.97 C 422.08 1196.92 420.11 1186.78 417.00 1184.00
C 414.71 1190.09 416.63 1198.16 416.00 1205.00
C 409.53 1205.63 412.46 1197.89 412.00 1193.00 C 411.54 1188.11 412.34 1181.08 412.00 1176.00
C 420.40 1176.45 421.25 1188.36 427.00 1193.00
M 501.00 1205.00 
C 496.48 1206.35 496.18 1200.96 495.00 1198.00
C 491.11 1198.82 484.87 1196.77 481.33 1198.33 C 477.79 1199.89 480.01 1207.22 474.00 1205.00
C 476.84 1196.73 479.83 1194.00 481.98 1184.98 C 484.12 1175.95 490.94 1174.49 492.92 1184.08 C 494.91 1193.67 499.24 1195.92 501.00 1205.00
M 541.00 1205.00 
C 538.38 1203.73 540.26 1196.24 540.00 1193.00 C 539.74 1189.76 539.68 1182.55 540.00 1179.00
C 537.00 1179.00 534.00 1179.00 531.00 1179.00
C 531.11 1178.00 530.53 1176.27 532.00 1176.00
C 537.50 1172.83 548.04 1178.38 554.00 1176.00
C 554.66 1181.30 547.15 1178.14 544.00 1179.00
C 544.00 1187.67 544.00 1196.33 544.00 1205.00
C 543.00 1205.00 542.00 1205.00 541.00 1205.00
M 607.00 1205.00 
C 604.89 1203.97 605.84 1197.66 606.00 1195.00 C 606.16 1192.34 605.10 1185.74 606.00 1183.00
C 601.99 1183.37 601.05 1192.51 597.70 1194.70 C 594.34 1196.89 592.49 1205.76 587.00 1205.00
C 587.00 1195.33 587.00 1185.67 587.00 1176.00
C 593.58 1178.93 588.30 1192.03 590.00 1199.00
C 597.30 1192.31 600.26 1178.54 610.00 1176.00
C 610.00 1185.66 610.00 1195.34 610.00 1205.00
C 609.00 1205.00 608.00 1205.00 607.00 1205.00
M 648.00 1176.00 
C 644.95 1186.46 652.02 1195.11 663.00 1192.00
C 663.00 1186.67 663.00 1181.33 663.00 1176.00
C 668.40 1176.52 665.40 1184.37 666.00 1189.00 C 666.60 1193.63 665.55 1200.19 666.00 1205.00
C 660.70 1205.67 663.86 1198.15 663.00 1195.00
C 657.78 1195.27 649.35 1195.97 646.70 1191.30 C 644.06 1186.62 642.98 1177.38 648.00 1176.00
M 721.00 1189.00 
C 722.29 1186.19 718.83 1177.54 722.00 1176.00
C 722.81 1175.61 724.15 1176.31 725.00 1176.00
C 725.00 1185.66 725.00 1195.34 725.00 1205.00
C 724.00 1205.00 723.00 1205.00 722.00 1205.00
C 718.87 1203.48 722.28 1194.74 721.00 1192.00
C 717.65 1189.65 709.77 1193.76 706.00 1192.00
C 706.00 1196.33 706.00 1200.67 706.00 1205.00
C 699.53 1205.63 702.46 1197.89 702.00 1193.00 C 701.54 1188.11 702.34 1181.09 702.00 1176.00
C 709.11 1174.85 704.85 1184.82 706.00 1189.00
C 711.00 1189.00 716.00 1189.00 721.00 1189.00
M 765.00 1176.00 
C 765.66 1183.16 763.67 1191.66 766.00 1198.00
C 771.58 1190.71 775.16 1179.26 784.00 1176.00
C 784.00 1185.66 784.00 1195.34 784.00 1205.00
C 776.80 1202.55 783.99 1188.67 780.00 1183.00
C 773.64 1190.00 770.39 1202.73 761.00 1205.00
C 761.49 1200.12 760.35 1193.74 761.00 1189.00 C 761.65 1184.26 758.20 1175.30 765.00 1176.00
M 879.00 1205.00 
C 876.38 1203.73 878.26 1196.24 878.00 1193.00 C 877.74 1189.76 877.68 1182.55 878.00 1179.00
C 873.74 1179.00 867.02 1180.31 863.00 1179.00
C 859.98 1186.44 865.27 1197.25 863.00 1205.00
C 856.53 1205.63 859.46 1197.89 859.00 1193.00 C 858.54 1188.11 859.34 1181.08 859.00 1176.00
C 866.67 1176.00 874.33 1176.00 882.00 1176.00
C 882.00 1185.66 882.00 1195.34 882.00 1205.00
C 881.00 1205.00 880.00 1205.00 879.00 1205.00
M 921.00 1195.00 
C 921.00 1198.33 921.00 1201.67 921.00 1205.00
C 915.60 1204.48 918.60 1196.63 918.00 1192.00 C 917.40 1187.37 918.45 1180.81 918.00 1176.00
C 926.18 1175.48 937.50 1174.40 938.33 1184.67 C 939.16 1194.95 929.38 1195.99 921.00 1195.00
M 995.00 1205.00 
C 990.48 1206.35 990.17 1200.96 989.00 1198.00
C 985.11 1198.82 978.87 1196.77 975.33 1198.33 C 971.79 1199.89 974.01 1207.22 968.00 1205.00
C 970.84 1196.74 973.83 1194.00 975.98 1184.98 C 978.12 1175.95 984.94 1174.48 986.92 1184.08 C 988.91 1193.67 993.24 1195.92 995.00 1205.00
M 1031.00 1176.00 
C 1031.00 1180.33 1031.00 1184.67 1031.00 1189.00
C 1042.75 1192.19 1041.16 1177.13 1049.00 1176.00
C 1046.84 1180.59 1046.45 1186.91 1042.00 1190.00
C 1044.34 1195.20 1048.08 1199.74 1050.00 1205.00
C 1040.76 1205.19 1042.91 1187.40 1031.00 1192.00
C 1031.00 1196.33 1031.00 1200.67 1031.00 1205.00
C 1026.09 1204.60 1027.83 1195.39 1028.00 1191.00 C 1028.17 1186.61 1025.74 1176.48 1031.00 1176.00
M 1104.00 1176.00 
C 1104.67 1181.30 1097.15 1178.14 1094.00 1179.00
C 1094.00 1187.67 1094.00 1196.33 1094.00 1205.00
C 1087.71 1205.99 1090.42 1198.38 1090.00 1194.00 C 1089.58 1189.62 1090.31 1183.53 1090.00 1179.00
C 1086.67 1179.00 1083.33 1179.00 1080.00 1179.00
C 1083.25 1172.39 1096.71 1177.72 1104.00 1176.00
M 1140.00 1176.00 
C 1140.66 1183.17 1138.67 1191.66 1141.00 1198.00
C 1147.33 1191.01 1150.49 1178.17 1160.00 1176.00
C 1160.00 1185.66 1160.00 1195.34 1160.00 1205.00
C 1150.99 1204.16 1159.29 1188.61 1155.00 1183.00
C 1148.93 1190.15 1145.62 1202.90 1136.00 1205.00
C 1136.49 1200.11 1135.35 1193.74 1136.00 1189.00 C 1136.65 1184.26 1133.20 1175.30 1140.00 1176.00
M 1199.00 1176.00 
C 1199.00 1180.33 1199.00 1184.67 1199.00 1189.00
C 1210.67 1192.37 1209.81 1177.43 1217.00 1176.00
C 1215.18 1180.71 1214.62 1186.98 1210.00 1190.00
C 1212.50 1195.11 1216.30 1199.61 1218.00 1205.00
C 1209.09 1204.91 1210.82 1187.46 1199.00 1192.00
C 1199.00 1196.33 1199.00 1200.67 1199.00 1205.00
C 1194.09 1204.60 1195.83 1195.39 1196.00 1191.00 C 1196.17 1186.61 1193.74 1176.48 1199.00 1176.00
M 1272.00 1205.00 
C 1269.89 1203.97 1270.84 1197.66 1271.00 1195.00 C 1271.16 1192.34 1270.10 1185.74 1271.00 1183.00
C 1266.99 1183.37 1266.05 1192.51 1262.70 1194.70 C 1259.34 1196.89 1257.49 1205.76 1252.00 1205.00
C 1252.00 1195.33 1252.00 1185.67 1252.00 1176.00
C 1258.58 1178.93 1253.31 1192.03 1255.00 1199.00
C 1262.30 1192.31 1265.26 1178.53 1275.00 1176.00
C 1275.00 1185.66 1275.00 1195.34 1275.00 1205.00
C 1274.00 1205.00 1273.00 1205.00 1272.00 1205.00 Z"/>
</g>
<g fill="None" fill-opacity="0.0" stroke="#2B4B36" stroke-opacity="0.92" stroke-width="0.3"><path d="
M 795.00 386.00 
C 795.41 385.83 795.74 384.12 796.00 384.00
C 773.42 366.21 738.23 371.02 717.25 388.25 C 696.27 405.47 684.83 437.35 696.03 461.97 C 707.22 486.60 724.07 515.06 704.92 539.92 C 685.77 564.78 653.17 556.14 628.23 568.23 C 603.29 580.32 587.65 599.91 582.98 627.98 C 578.30 656.04 578.54 692.81 576.00 721.00
C 588.49 688.42 586.56 654.36 598.23 621.23 C 609.90 588.10 645.38 577.98 676.98 575.98 C 708.58 573.97 736.70 540.46 733.00 509.00 C 729.30 477.54 697.16 447.01 713.23 415.23 C 729.30 383.45 763.74 372.06 795.00 386.00 Z"/>
</g>
<g fill="None" fill-opacity="0.0" stroke="#213727" stroke-opacity="0.25" stroke-width="0.3"><path d="
M 653.00 385.00 
C 652.76 385.20 653.23 386.66 653.00 387.00
C 654.95 386.78 657.15 385.92 658.00 384.00
C 656.16 383.82 654.66 384.62 653.00 385.00 Z"/>
</g>
<g fill="None" fill-opacity="0.0" stroke="#26402E" stroke-opacity="0.59" stroke-width="0.3"><path d="
M 795.00 386.00 
C 795.89 386.40 798.02 387.47 799.00 388.00
C 798.85 387.55 799.14 386.46 799.00 386.00
C 798.05 385.26 797.16 384.72 796.00 384.00
C 795.74 384.12 795.41 385.83 795.00 386.00 Z"/>
</g>
<g fill="None" fill-opacity="0.0" stroke="#2B4A35" stroke-opacity="0.89" stroke-width="0.3"><path d="
M 998.00 777.00 
C 997.47 778.21 998.34 780.86 996.00 781.00
C 995.14 779.70 996.08 769.73 997.00 774.00
C 998.49 744.73 1001.28 705.66 995.98 677.02 C 990.68 648.38 984.26 620.80 972.77 596.23 C 961.28 571.66 948.77 552.21 932.25 532.75 C 915.73 513.29 898.80 497.98 878.00 484.00
C 877.96 483.88 877.60 485.19 878.00 486.00
C 889.52 497.56 901.53 507.77 912.70 520.30 C 923.86 532.84 932.95 545.06 942.23 559.77 C 951.51 574.48 958.87 588.43 965.68 605.32 C 972.48 622.21 977.04 640.22 981.02 658.98 C 985.01 677.73 987.11 700.80 988.00 721.00 C 988.89 741.20 986.50 768.02 985.00 787.00 C 983.50 805.97 971.23 817.82 959.75 830.75 C 948.27 843.69 937.05 853.77 924.08 864.08 C 911.11 874.39 896.68 883.08 882.00 890.00
C 862.63 841.51 871.70 785.48 885.00 737.00
C 892.97 750.87 903.85 768.92 922.00 773.00
C 916.54 764.80 910.23 758.55 904.92 750.08 C 899.62 741.60 894.99 731.19 894.00 721.00 C 893.01 710.81 902.98 694.88 886.00 695.00
C 862.80 757.92 844.53 831.58 873.00 896.00
C 810.02 924.53 731.03 930.65 665.00 906.00
C 701.60 840.83 680.40 760.32 657.00 695.00
C 654.07 696.26 651.06 697.25 648.00 698.00
C 654.09 726.66 642.02 753.25 622.00 773.00
C 638.83 767.37 653.00 751.40 659.00 735.00
C 676.25 787.22 685.41 853.52 655.00 903.00
C 605.98 881.53 566.46 853.43 533.30 808.70 C 500.14 763.97 480.85 703.48 481.00 646.00 C 481.15 588.52 500.75 527.73 534.25 483.25 C 567.75 438.77 606.26 411.95 653.00 387.00
C 653.23 386.66 652.76 385.20 653.00 385.00
C 534.08 420.75 458.29 550.16 469.07 672.93 C 479.85 795.70 568.47 896.48 687.78 926.22 C 807.09 955.96 940.12 900.97 1002.25 792.25 C 1064.38 683.52 1051.93 531.72 953.00 448.00
C 976.83 477.26 994.09 502.84 1009.08 538.92 C 1024.06 575.01 1032.40 623.76 1029.99 664.99 C 1027.58 706.22 1014.23 739.86 998.00 777.00 Z"/>
</g>
<g fill="None" fill-opacity="0.0" stroke="#21392A" stroke-opacity="0.36" stroke-width="0.3"><path d="
M 799.00 388.00 
C 799.70 389.98 802.17 390.73 804.00 391.00
C 803.00 388.88 800.81 387.41 799.00 386.00
C 799.14 386.46 798.85 387.55 799.00 388.00 Z"/>
</g>
<g fill="None" fill-opacity="0.0" stroke="#2C4C36" stroke-opacity="0.94" stroke-width="0.3"><path d="
M 1004.00 421.00 
C 992.07 420.09 986.01 436.02 983.98 444.98 C 981.94 453.93 982.28 474.15 995.00 475.00 C 1007.71 475.84 1012.42 459.60 1015.02 451.02 C 1017.63 442.45 1015.89 421.90 1004.00 421.00 Z"/>
</g>
<g fill="None" fill-opacity="0.0" stroke="#2B4B36" stroke-opacity="0.93" stroke-width="0.3"><path d="
M 841.00 437.00 
C 820.69 434.10 826.18 454.61 834.25 465.75 C 842.31 476.90 864.28 478.59 863.00 464.00 C 861.72 449.41 854.76 438.97 841.00 437.00 Z"/>
</g>
<g fill="None" fill-opacity="0.0" stroke="#2C4C36" stroke-opacity="0.94" stroke-width="0.3"><path d="
M 904.00 437.00 
C 891.77 433.29 885.82 449.89 886.00 459.00 C 886.18 468.11 887.38 482.41 897.92 486.07 C 908.46 489.72 914.95 473.19 915.00 465.00 C 915.05 456.81 913.92 440.01 904.00 437.00 Z"/>
</g>
<g fill="None" fill-opacity="0.0" stroke="#233E2C" stroke-opacity="0.44" stroke-width="0.3"><path d="
M 878.00 486.00 
C 877.60 485.19 877.96 483.88 878.00 484.00
C 876.17 481.15 872.32 480.62 870.00 478.00
C 869.95 482.83 875.08 483.45 878.00 486.00 Z"/>
</g>
<g fill="None" fill-opacity="0.0" stroke="#2B4C36" stroke-opacity="0.94" stroke-width="0.3"><path d="
M 1054.00 479.00 
C 1041.90 476.00 1030.99 485.88 1023.25 493.25 C 1015.51 500.62 1011.23 517.58 1023.78 521.22 C 1036.33 524.87 1045.74 514.65 1053.75 507.75 C 1061.77 500.85 1066.75 482.16 1054.00 479.00 Z"/>
</g>
<g fill="None" fill-opacity="0.0" stroke="#2B4C36" stroke-opacity="0.93" stroke-width="0.3"><path d="
M 956.00 481.00 
C 945.73 476.80 929.77 491.02 927.93 499.93 C 926.08 508.83 924.62 515.14 930.00 519.00 C 935.38 522.86 944.54 515.71 948.77 513.77 C 953.00 511.82 957.14 504.17 958.07 500.07 C 959.00 495.98 961.21 483.13 956.00 481.00 Z"/>
</g>
<g fill="None" fill-opacity="0.0" stroke="#2B4B36" stroke-opacity="0.93" stroke-width="0.3"><path d="
M 865.00 490.00 
C 856.16 488.42 830.67 491.50 831.36 505.31 C 832.04 519.11 854.75 518.77 865.26 514.26 C 875.76 509.74 882.68 493.17 865.00 490.00 Z"/>
</g>
<g fill="None" fill-opacity="0.0" stroke="#2B4C36" stroke-opacity="0.94" stroke-width="0.3"><path d="
M 985.00 521.00 
C 974.71 519.12 966.40 530.23 961.31 537.31 C 956.21 544.38 953.66 560.94 963.93 564.07 C 974.19 567.21 982.30 556.22 987.68 549.68 C 993.06 543.14 995.71 522.96 985.00 521.00 Z"/>
</g>
<g fill="None" fill-opacity="0.0" stroke="#2C4C36" stroke-opacity="0.93" stroke-width="0.3"><path d="
M 894.00 524.00 
C 882.56 522.14 871.55 525.26 862.92 532.92 C 854.29 540.58 862.95 553.18 873.98 553.02 C 885.00 552.87 895.11 553.54 903.90 544.90 C 912.69 536.26 904.36 525.68 894.00 524.00 Z"/>
</g>
<g fill="None" fill-opacity="0.0" stroke="#2B4C36" stroke-opacity="0.94" stroke-width="0.3"><path d="
M 1079.00 540.00 
C 1066.79 537.47 1056.29 546.86 1048.25 554.25 C 1040.21 561.64 1036.93 579.60 1049.33 582.67 C 1061.73 585.74 1071.89 574.88 1079.25 568.25 C 1086.60 561.62 1092.07 542.71 1079.00 540.00 Z"/>
</g>
<g fill="None" fill-opacity="0.0" stroke="#2B4C36" stroke-opacity="0.94" stroke-width="0.3"><path d="
M 918.00 561.00 
C 906.71 559.81 897.02 565.30 890.75 574.75 C 884.49 584.21 899.03 591.30 909.00 591.00 C 918.97 590.70 929.23 588.61 935.69 578.70 C 942.16 568.78 925.96 561.84 918.00 561.00 Z"/>
</g>
<g fill="None" fill-opacity="0.0" stroke="#274330" stroke-opacity="0.65" stroke-width="0.3"><path d="
M 998.00 777.00 
C 997.90 776.25 996.93 775.45 997.00 774.00
C 996.08 769.73 995.14 779.70 996.00 781.00
C 998.34 780.86 997.47 778.21 998.00 777.00 Z"/>
</g>
<g fill="None" fill-opacity="0.0" stroke="#C18B21" stroke-opacity="0.90" stroke-width="0.3"><path d="
M 254.00 995.00 
C 250.40 984.80 232.78 982.43 222.07 983.07 C 211.36 983.72 201.01 989.12 193.77 997.77 C 186.53 1006.43 186.36 1022.06 190.70 1032.31 C 195.03 1042.55 205.08 1047.06 214.77 1051.23 C 224.46 1055.40 234.64 1058.56 242.75 1066.25 C 250.86 1073.94 253.53 1087.52 247.77 1097.77 C 242.01 1108.02 230.54 1112.45 219.00 1112.00 C 207.46 1111.55 196.20 1108.24 187.00 1101.00
C 188.30 1113.54 204.89 1114.49 216.00 1116.00 C 227.11 1117.51 241.14 1113.88 249.75 1106.75 C 258.37 1099.62 263.77 1087.96 262.93 1077.07 C 262.08 1066.19 256.34 1056.00 246.70 1050.30 C 237.05 1044.61 228.07 1040.81 217.70 1036.31 C 207.32 1031.80 199.20 1023.04 200.00 1011.00 C 200.80 998.96 208.05 990.10 220.00 988.00 C 231.94 985.90 243.33 990.17 254.00 995.00 Z"/>
</g>
<g fill="None" fill-opacity="0.0" stroke="#C18B21" stroke-opacity="0.90" stroke-width="0.3"><path d="
M 826.00 995.00 
C 822.40 984.80 804.78 982.43 794.07 983.07 C 783.36 983.71 773.01 989.12 765.77 997.77 C 758.53 1006.42 758.36 1022.06 762.70 1032.31 C 767.03 1042.55 777.08 1047.06 786.77 1051.23 C 796.46 1055.40 806.64 1058.56 814.75 1066.25 C 822.86 1073.94 825.53 1087.52 819.77 1097.77 C 814.01 1108.02 802.53 1112.45 791.00 1112.00 C 779.47 1111.55 768.20 1108.24 759.00 1101.00
C 760.30 1113.54 776.89 1114.49 788.00 1116.00 C 799.11 1117.51 813.14 1113.89 821.75 1106.75 C 830.37 1099.62 835.77 1087.96 834.93 1077.07 C 834.08 1066.19 828.34 1056.00 818.70 1050.30 C 809.05 1044.61 800.07 1040.81 789.70 1036.31 C 779.32 1031.80 771.20 1023.04 772.00 1011.00 C 772.80 998.96 780.05 990.10 792.00 988.00 C 803.94 985.90 815.33 990.17 826.00 995.00 Z"/>
</g>
<g fill="None" fill-opacity="0.0" stroke="#C28A22" stroke-opacity="0.90" stroke-width="0.3"><path d="
M 448.00 984.00 
C 443.65 992.10 443.98 1004.67 442.00 1015.00 C 440.02 1025.33 439.98 1036.55 437.99 1046.99 C 436.00 1057.44 435.30 1069.18 433.78 1079.78 C 432.26 1090.38 430.79 1100.48 429.00 1111.00
C 437.54 1110.36 434.36 1096.80 436.22 1089.22 C 438.08 1081.64 438.45 1072.99 440.00 1065.00 C 441.55 1057.01 441.50 1047.08 443.02 1039.02 C 444.55 1030.97 444.80 1022.50 447.00 1015.00
C 461.47 1046.47 479.58 1076.51 494.00 1108.00
C 502.85 1101.58 506.17 1087.26 512.25 1077.25 C 518.32 1067.24 523.33 1056.32 529.08 1046.08 C 534.82 1035.83 539.34 1024.56 546.00 1015.00
C 547.35 1024.28 548.95 1032.83 549.67 1042.33 C 550.39 1051.83 552.41 1060.27 553.00 1070.00 C 553.59 1079.73 555.96 1087.70 556.00 1098.00 C 556.05 1108.29 560.48 1114.60 573.00 1111.00
C 566.98 1068.90 564.24 1025.44 557.00 984.00
C 537.81 1018.33 521.28 1054.60 501.00 1088.00
C 484.46 1052.90 464.83 1018.92 448.00 984.00 Z"/>
</g>
<g fill="None" fill-opacity="0.0" stroke="#C18B23" stroke-opacity="0.89" stroke-width="0.3"><path d="
M 645.00 984.00 
C 632.35 1002.23 624.72 1025.98 614.92 1046.92 C 605.13 1067.87 595.29 1089.53 587.00 1111.00
C 597.05 1109.80 597.57 1095.25 602.23 1087.23 C 606.89 1079.21 610.46 1069.53 614.00 1061.00
C 625.79 1059.27 636.06 1063.30 648.00 1061.00 C 659.94 1058.70 664.60 1065.62 667.23 1075.77 C 669.86 1085.92 675.47 1089.07 677.69 1099.31 C 679.92 1109.54 687.91 1113.79 699.00 1111.00
C 681.37 1068.54 662.26 1026.57 645.00 984.00
M 639.00 1008.00 
C 644.42 1024.69 653.14 1040.39 659.00 1057.00
C 644.67 1057.00 630.33 1057.00 616.00 1057.00
C 624.10 1040.91 629.41 1022.96 639.00 1008.00 Z"/>
</g>
<g fill="None" fill-opacity="0.0" stroke="#C18B22" stroke-opacity="0.91" stroke-width="0.3"><path d="
M 358.00 985.00 
C 320.37 981.36 283.41 998.82 278.00 1038.00 C 272.59 1077.18 295.74 1109.80 334.00 1115.00 C 372.26 1120.20 407.70 1098.62 413.02 1061.02 C 418.35 1023.43 396.38 988.72 358.00 985.00
M 355.00 989.00 
C 397.74 995.11 410.31 1053.78 390.08 1088.08 C 369.84 1122.37 307.37 1117.43 296.22 1075.78 C 285.08 1034.12 303.59 981.65 355.00 989.00 Z"/>
</g>
<g fill="None" fill-opacity="0.0" stroke="#C18A21" stroke-opacity="0.91" stroke-width="0.3"><path d="
M 1236.00 1046.00 
C 1236.00 1048.67 1236.00 1051.33 1236.00 1054.00
C 1236.00 1092.41 1267.42 1115.22 1304.00 1115.00 C 1340.58 1114.78 1368.61 1091.98 1372.00 1055.00
C 1372.00 1053.61 1371.99 1049.33 1372.00 1048.00
C 1370.09 1025.52 1361.88 1003.28 1340.22 992.78 C 1318.57 982.27 1289.60 982.09 1268.08 992.08 C 1246.55 1002.06 1236.00 1023.20 1236.00 1046.00
M 1356.00 1048.00 
C 1356.21 1050.19 1356.21 1052.87 1356.00 1055.00
C 1356.00 1086.47 1336.64 1110.60 1304.00 1111.00 C 1271.36 1111.40 1251.00 1086.95 1251.00 1055.00
C 1250.56 1050.50 1250.27 1045.50 1251.00 1041.00
C 1252.66 1010.49 1275.31 987.28 1307.00 989.00 C 1338.69 990.72 1356.00 1018.10 1356.00 1048.00 Z"/>
</g>
<g fill="None" fill-opacity="0.0" stroke="#B3902B" stroke-opacity="0.37" stroke-width="0.3"><path d="
M 887.00 1111.00 
C 886.96 1111.00 887.00 1110.00 887.00 1110.00
C 886.99 1070.00 887.00 1030.00 887.00 990.00
C 874.33 990.00 861.67 990.00 849.00 990.00
C 849.00 989.00 849.00 988.00 849.00 987.00
C 847.24 987.50 848.28 989.72 848.00 991.00
C 860.67 991.00 873.33 991.00 886.00 991.00
C 886.11 999.08 885.85 1008.00 886.00 1016.00 C 886.15 1024.00 885.71 1032.22 886.00 1040.00 C 886.29 1047.78 885.37 1056.59 886.00 1064.00 C 886.63 1071.41 884.61 1081.36 886.00 1088.00 C 887.39 1094.64 882.46 1106.64 887.00 1111.00 Z"/>
</g>
<g fill="None" fill-opacity="0.0" stroke="#C38A1F" stroke-opacity="0.98" stroke-width="0.3"><path d="
M 887.00 1110.00 
C 891.63 1109.58 896.36 1110.32 901.00 1110.00
C 901.00 1070.33 901.00 1030.67 901.00 991.00
C 907.32 990.40 915.91 991.80 922.00 991.00 C 928.09 990.20 938.64 994.23 939.00 987.00
C 931.60 987.27 923.31 986.65 916.00 987.00 C 908.69 987.35 901.06 986.29 894.00 987.00 C 886.94 987.71 877.56 985.54 871.00 987.00 C 864.44 988.46 854.32 983.63 849.00 987.00
C 849.00 988.00 849.00 989.00 849.00 990.00
C 861.67 990.00 874.33 990.00 887.00 990.00
C 887.00 1030.00 886.99 1070.00 887.00 1110.00 Z"/>
</g>
<g fill="None" fill-opacity="0.0" stroke="#C18B20" stroke-opacity="0.92" stroke-width="0.3"><path d="
M 997.00 1114.00 
C 999.17 1114.04 1002.62 1114.99 1004.00 1115.00
C 1011.68 1113.68 1021.09 1112.89 1027.77 1108.77 C 1034.45 1104.65 1038.52 1101.30 1042.23 1094.23 C 1045.94 1087.16 1048.71 1079.59 1049.00 1071.00 C 1049.29 1062.41 1049.16 1050.96 1049.00 1042.00 C 1048.84 1033.04 1049.68 1020.74 1049.00 1012.00 C 1048.32 1003.26 1052.49 989.79 1045.00 987.00
C 1042.92 1017.49 1049.85 1061.59 1039.92 1088.92 C 1030.00 1116.26 981.90 1117.26 972.78 1089.22 C 963.65 1061.18 971.78 1017.71 969.00 987.00
C 964.00 987.00 959.00 987.00 954.00 987.00
C 954.03 1013.68 953.95 1045.84 954.02 1071.98 C 954.10 1098.11 972.78 1113.52 997.00 1114.00 Z"/>
</g>
<g fill="None" fill-opacity="0.0" stroke="#C28A20" stroke-opacity="0.93" stroke-width="0.3"><path d="
M 1067.00 1111.00 
C 1098.06 1110.69 1144.18 1116.83 1165.75 1091.75 C 1187.33 1066.67 1188.55 1029.47 1167.25 1003.75 C 1145.94 978.03 1097.27 989.47 1067.00 987.00
C 1067.00 1028.34 1067.00 1069.67 1067.00 1111.00
M 1082.00 1107.00 
C 1082.00 1068.34 1082.00 1029.66 1082.00 991.00
C 1106.23 990.68 1142.12 987.22 1156.25 1010.75 C 1170.38 1034.29 1169.69 1062.25 1155.70 1085.70 C 1141.70 1109.15 1106.73 1108.34 1082.00 1107.00 Z"/>
</g>
<g fill="None" fill-opacity="0.0" stroke="#C38A1F" stroke-opacity="0.98" stroke-width="0.3"><path d="
M 1215.00 1111.00 
C 1215.00 1069.67 1215.00 1028.34 1215.00 987.00
C 1210.33 987.00 1205.67 987.00 1201.00 987.00
C 1201.00 1028.34 1201.00 1069.67 1201.00 1111.00
C 1204.52 1109.36 1211.87 1113.19 1215.00 1111.00 Z"/>
</g>
<g fill="None" fill-opacity="0.0" stroke="#B29028" stroke-opacity="0.49" stroke-width="0.3"><path d="
M 1215.00 1111.00 
C 1219.07 1108.15 1214.86 1096.39 1216.00 1091.00 C 1217.14 1085.61 1215.57 1076.16 1216.00 1070.00 C 1216.43 1063.84 1216.00 1055.36 1216.00 1049.00 C 1216.00 1042.64 1216.43 1034.15 1216.00 1028.00 C 1215.57 1021.85 1217.14 1012.36 1216.00 1007.00 C 1214.86 1001.64 1219.09 989.86 1215.00 987.00
C 1215.00 1028.34 1215.00 1069.67 1215.00 1111.00 Z"/>
</g>
<g fill="None" fill-opacity="0.0" stroke="#000000" stroke-opacity="0.00" stroke-width="0.3"><path d="
M 355.00 989.00 
C 303.59 981.65 285.08 1034.12 296.22 1075.78 C 307.37 1117.43 369.84 1122.37 390.08 1088.08 C 410.31 1053.78 397.74 995.11 355.00 989.00 Z"/>
</g>
<g fill="None" fill-opacity="0.0" stroke="#000000" stroke-opacity="0.00" stroke-width="0.3"><path d="
M 1251.00 1041.00 
C 1250.75 1045.64 1251.00 1050.36 1251.00 1055.00
C 1251.00 1086.95 1271.36 1111.40 1304.00 1111.00 C 1336.64 1110.60 1356.00 1086.47 1356.00 1055.00
C 1356.00 1052.67 1356.00 1050.33 1356.00 1048.00
C 1356.00 1018.10 1338.69 990.72 1307.00 989.00 C 1275.31 987.28 1252.66 1010.49 1251.00 1041.00 Z"/>
</g>
<g fill="None" fill-opacity="0.0" stroke="#000000" stroke-opacity="0.00" stroke-width="0.3"><path d="
M 1082.00 1107.00 
C 1106.73 1108.34 1141.70 1109.15 1155.70 1085.70 C 1169.69 1062.25 1170.38 1034.29 1156.25 1010.75 C 1142.12 987.22 1106.23 990.68 1082.00 991.00
C 1082.00 1029.66 1082.00 1068.34 1082.00 1107.00 Z"/>
</g>
<g fill="None" fill-opacity="0.0" stroke="#000000" stroke-opacity="0.00" stroke-width="0.3"><path d="
M 639.00 1008.00 
C 629.41 1022.96 624.10 1040.91 616.00 1057.00
C 630.33 1057.00 644.67 1057.00 659.00 1057.00
C 653.14 1040.39 644.42 1024.69 639.00 1008.00 Z"/>
</g>
<g fill="None" fill-opacity="0.0" stroke="#B2912A" stroke-opacity="0.31" stroke-width="0.3"><path d="
M 1251.00 1055.00 
C 1251.00 1050.36 1250.75 1045.64 1251.00 1041.00
C 1250.27 1045.50 1250.56 1050.50 1251.00 1055.00 Z"/>
</g>
<g fill="None" fill-opacity="0.0" stroke="#AB8C28" stroke-opacity="0.10" stroke-width="0.3"><path d="
M 1236.00 1054.00 
C 1236.00 1051.33 1236.00 1048.67 1236.00 1046.00
C 1235.76 1048.44 1235.76 1051.49 1236.00 1054.00 Z"/>
</g>
<g fill="None" fill-opacity="0.0" stroke="#B1912B" stroke-opacity="0.25" stroke-width="0.3"><path d="
M 1356.00 1055.00 
C 1356.21 1052.87 1356.21 1050.19 1356.00 1048.00
C 1356.00 1050.33 1356.00 1052.67 1356.00 1055.00 Z"/>
</g>
<g fill="None" fill-opacity="0.0" stroke="#B1912B" stroke-opacity="0.24" stroke-width="0.3"><path d="
M 1372.00 1055.00 
C 1372.20 1052.79 1372.19 1050.21 1372.00 1048.00
C 1371.99 1049.33 1372.00 1053.61 1372.00 1055.00 Z"/>
</g>
<g fill="None" fill-opacity="0.0" stroke="#BC8C22" stroke-opacity="0.83" stroke-width="0.3"><path d="
M 887.00 1111.00 
C 889.79 1111.25 899.43 1112.24 901.00 1110.00
C 896.36 1110.32 891.63 1109.58 887.00 1110.00
C 887.00 1110.00 886.96 1111.00 887.00 1111.00 Z"/>
</g>
<g fill="None" fill-opacity="0.0" stroke="#B1912B" stroke-opacity="0.23" stroke-width="0.3"><path d="
M 1004.00 1115.00 
C 1002.62 1114.99 999.17 1114.04 997.00 1114.00
C 998.78 1114.17 1001.45 1115.17 1004.00 1115.00 Z"/>
</g>
<g fill="None" fill-opacity="0.0" stroke="#2E4E39" stroke-opacity="0.65" stroke-width="0.3"><path d="
M 315.00 1186.00 
C 311.37 1168.52 285.22 1173.76 286.01 1190.99 C 286.79 1208.22 310.90 1211.40 316.00 1195.00
C 310.94 1197.23 301.12 1206.33 294.25 1200.75 C 287.38 1195.17 288.24 1185.56 294.77 1180.77 C 301.31 1175.98 310.30 1182.04 315.00 1186.00 Z"/>
</g>
<g fill="None" fill-opacity="0.0" stroke="#2E4E38" stroke-opacity="0.69" stroke-width="0.3"><path d="
M 367.00 1175.00 
C 347.28 1170.92 340.06 1200.22 359.33 1205.67 C 378.60 1211.12 385.64 1178.86 367.00 1175.00
M 368.00 1179.00 
C 382.06 1183.27 372.43 1208.75 358.33 1201.67 C 344.23 1194.59 353.06 1174.46 368.00 1179.00 Z"/>
</g>
<g fill="None" fill-opacity="0.0" stroke="#2E4F39" stroke-opacity="0.64" stroke-width="0.3"><path d="
M 427.00 1193.00 
C 421.25 1188.36 420.40 1176.45 412.00 1176.00
C 412.34 1181.08 411.54 1188.11 412.00 1193.00 C 412.46 1197.89 409.53 1205.63 416.00 1205.00
C 416.63 1198.16 414.71 1190.09 417.00 1184.00
C 420.11 1186.78 422.08 1196.92 426.97 1196.97 C 431.87 1197.02 433.90 1186.77 437.00 1184.00
C 441.23 1189.31 433.07 1204.44 442.00 1205.00
C 442.00 1195.34 442.00 1185.66 442.00 1176.00
C 433.90 1176.71 432.29 1187.74 427.00 1193.00 Z"/>
</g>
<g fill="None" fill-opacity="0.0" stroke="#2F4E39" stroke-opacity="0.70" stroke-width="0.3"><path d="
M 501.00 1205.00 
C 499.24 1195.92 494.91 1193.67 492.92 1184.08 C 490.94 1174.49 484.12 1175.95 481.98 1184.98 C 479.83 1194.00 476.84 1196.73 474.00 1205.00
C 480.01 1207.22 477.79 1199.89 481.33 1198.33 C 484.87 1196.77 491.11 1198.82 495.00 1198.00
C 496.18 1200.96 496.48 1206.35 501.00 1205.00
M 488.00 1182.00 
C 489.99 1186.25 491.89 1190.46 493.00 1195.00
C 489.33 1195.00 485.67 1195.00 482.00 1195.00
C 484.57 1190.92 484.97 1185.55 488.00 1182.00 Z"/>
</g>
<g fill="None" fill-opacity="0.0" stroke="#2D4E37" stroke-opacity="0.51" stroke-width="0.3"><path d="
M 540.00 1179.00 
C 540.50 1179.00 541.00 1179.00 541.00 1179.00
C 538.62 1176.53 532.65 1180.15 532.00 1176.00
C 530.53 1176.27 531.11 1178.00 531.00 1179.00
C 534.00 1179.00 537.00 1179.00 540.00 1179.00 Z"/>
</g>
<g fill="None" fill-opacity="0.0" stroke="#2C4E37" stroke-opacity="0.82" stroke-width="0.3"><path d="
M 541.00 1179.00 
C 541.78 1187.60 540.42 1196.38 541.00 1205.00
C 542.00 1205.00 543.00 1205.00 544.00 1205.00
C 544.00 1196.33 544.00 1187.67 544.00 1179.00
C 547.15 1178.14 554.66 1181.30 554.00 1176.00
C 548.04 1178.38 537.50 1172.83 532.00 1176.00
C 532.65 1180.15 538.62 1176.53 541.00 1179.00 Z"/>
</g>
<g fill="None" fill-opacity="0.0" stroke="#2D4E38" stroke-opacity="0.75" stroke-width="0.3"><path d="
M 606.00 1183.00 
C 607.95 1182.82 606.62 1201.22 607.00 1205.00
C 608.00 1205.00 609.00 1205.00 610.00 1205.00
C 610.00 1195.34 610.00 1185.66 610.00 1176.00
C 600.26 1178.54 597.30 1192.31 590.00 1199.00
C 588.30 1192.03 593.58 1178.93 587.00 1176.00
C 587.00 1185.67 587.00 1195.33 587.00 1205.00
C 592.49 1205.76 594.34 1196.89 597.70 1194.70 C 601.05 1192.51 601.99 1183.37 606.00 1183.00 Z"/>
</g>
<g fill="None" fill-opacity="0.0" stroke="#2D4E38" stroke-opacity="0.76" stroke-width="0.3"><path d="
M 648.00 1176.00 
C 642.98 1177.38 644.06 1186.62 646.70 1191.30 C 649.35 1195.97 657.78 1195.27 663.00 1195.00
C 663.86 1198.15 660.70 1205.67 666.00 1205.00
C 665.55 1200.19 666.60 1193.63 666.00 1189.00 C 665.40 1184.37 668.40 1176.52 663.00 1176.00
C 663.00 1181.33 663.00 1186.67 663.00 1192.00
C 652.02 1195.11 644.95 1186.46 648.00 1176.00 Z"/>
</g>
<g fill="None" fill-opacity="0.0" stroke="#2D4D38" stroke-opacity="0.72" stroke-width="0.3"><path d="
M 721.00 1192.00 
C 724.09 1194.16 720.75 1201.77 722.00 1205.00
C 723.00 1205.00 724.00 1205.00 725.00 1205.00
C 725.00 1195.34 725.00 1185.66 725.00 1176.00
C 724.15 1176.31 722.81 1175.61 722.00 1176.00
C 720.75 1179.29 724.11 1186.82 721.00 1189.00
C 716.00 1189.00 711.00 1189.00 706.00 1189.00
C 704.85 1184.82 709.11 1174.85 702.00 1176.00
C 702.34 1181.09 701.54 1188.11 702.00 1193.00 C 702.46 1197.89 699.53 1205.63 706.00 1205.00
C 706.00 1200.67 706.00 1196.33 706.00 1192.00
C 709.77 1193.76 717.65 1189.65 721.00 1192.00 Z"/>
</g>
<g fill="None" fill-opacity="0.0" stroke="#555555" stroke-opacity="0.01" stroke-width="0.3"><path d="
M 721.00 1189.00 
C 724.11 1186.82 720.75 1179.29 722.00 1176.00
C 718.83 1177.54 722.29 1186.19 721.00 1189.00 Z"/>
</g>
<g fill="None" fill-opacity="0.0" stroke="#2E4E39" stroke-opacity="0.69" stroke-width="0.3"><path d="
M 765.00 1176.00 
C 758.20 1175.30 761.65 1184.26 761.00 1189.00 C 760.35 1193.74 761.49 1200.12 761.00 1205.00
C 770.39 1202.73 773.64 1190.00 780.00 1183.00
C 783.99 1188.67 776.80 1202.55 784.00 1205.00
C 784.00 1195.34 784.00 1185.66 784.00 1176.00
C 775.16 1179.26 771.58 1190.71 766.00 1198.00
C 763.67 1191.66 765.66 1183.16 765.00 1176.00 Z"/>
</g>
<g fill="None" fill-opacity="0.0" stroke="#2D4D38" stroke-opacity="0.74" stroke-width="0.3"><path d="
M 863.00 1179.00 
C 863.43 1177.94 876.56 1176.46 879.00 1179.00
C 879.78 1187.60 878.42 1196.38 879.00 1205.00
C 880.00 1205.00 881.00 1205.00 882.00 1205.00
C 882.00 1195.34 882.00 1185.66 882.00 1176.00
C 874.33 1176.00 866.67 1176.00 859.00 1176.00
C 859.34 1181.08 858.54 1188.11 859.00 1193.00 C 859.46 1197.89 856.53 1205.63 863.00 1205.00
C 865.27 1197.25 859.98 1186.44 863.00 1179.00 Z"/>
</g>
<g fill="None" fill-opacity="0.0" stroke="#2D4E38" stroke-opacity="0.75" stroke-width="0.3"><path d="
M 921.00 1195.00 
C 929.38 1195.99 939.16 1194.95 938.33 1184.67 C 937.50 1174.40 926.18 1175.48 918.00 1176.00
C 918.45 1180.81 917.40 1187.37 918.00 1192.00 C 918.60 1196.63 915.60 1204.48 921.00 1205.00
C 921.00 1201.67 921.00 1198.33 921.00 1195.00
M 921.00 1192.00 
C 921.00 1187.67 921.00 1183.33 921.00 1179.00
C 938.32 1173.01 938.34 1197.98 921.00 1192.00 Z"/>
</g>
<g fill="None" fill-opacity="0.0" stroke="#2F4E39" stroke-opacity="0.70" stroke-width="0.3"><path d="
M 995.00 1205.00 
C 993.24 1195.92 988.91 1193.67 986.92 1184.08 C 984.94 1174.48 978.12 1175.95 975.98 1184.98 C 973.83 1194.00 970.84 1196.74 968.00 1205.00
C 974.01 1207.22 971.79 1199.89 975.33 1198.33 C 978.87 1196.77 985.11 1198.82 989.00 1198.00
C 990.17 1200.96 990.48 1206.35 995.00 1205.00
M 987.00 1195.00 
C 983.33 1195.00 979.67 1195.00 976.00 1195.00
C 977.99 1190.75 979.89 1186.54 981.00 1182.00
C 984.68 1185.10 985.41 1190.60 987.00 1195.00 Z"/>
</g>
<g fill="None" fill-opacity="0.0" stroke="#2E4F3A" stroke-opacity="0.72" stroke-width="0.3"><path d="
M 1031.00 1176.00 
C 1025.74 1176.48 1028.17 1186.61 1028.00 1191.00 C 1027.83 1195.39 1026.09 1204.60 1031.00 1205.00
C 1031.00 1200.67 1031.00 1196.33 1031.00 1192.00
C 1042.91 1187.40 1040.76 1205.19 1050.00 1205.00
C 1048.08 1199.74 1044.34 1195.20 1042.00 1190.00
C 1046.45 1186.91 1046.84 1180.59 1049.00 1176.00
C 1041.16 1177.13 1042.75 1192.19 1031.00 1189.00
C 1031.00 1184.67 1031.00 1180.33 1031.00 1176.00 Z"/>
</g>
<g fill="None" fill-opacity="0.0" stroke="#2E4F38" stroke-opacity="0.67" stroke-width="0.3"><path d="
M 1104.00 1176.00 
C 1096.71 1177.72 1083.25 1172.39 1080.00 1179.00
C 1083.33 1179.00 1086.67 1179.00 1090.00 1179.00
C 1090.31 1183.53 1089.58 1189.62 1090.00 1194.00 C 1090.42 1198.38 1087.71 1205.99 1094.00 1205.00
C 1094.00 1196.33 1094.00 1187.67 1094.00 1179.00
C 1097.15 1178.14 1104.67 1181.30 1104.00 1176.00 Z"/>
</g>
<g fill="None" fill-opacity="0.0" stroke="#2D4E38" stroke-opacity="0.63" stroke-width="0.3"><path d="
M 1140.00 1176.00 
C 1133.20 1175.30 1136.65 1184.26 1136.00 1189.00 C 1135.35 1193.74 1136.49 1200.11 1136.00 1205.00
C 1145.62 1202.90 1148.93 1190.15 1155.00 1183.00
C 1159.29 1188.61 1150.99 1204.16 1160.00 1205.00
C 1160.00 1195.34 1160.00 1185.66 1160.00 1176.00
C 1150.49 1178.17 1147.33 1191.01 1141.00 1198.00
C 1138.67 1191.66 1140.66 1183.17 1140.00 1176.00 Z"/>
</g>
<g fill="None" fill-opacity="0.0" stroke="#2D4E39" stroke-opacity="0.73" stroke-width="0.3"><path d="
M 1199.00 1176.00 
C 1193.74 1176.48 1196.17 1186.61 1196.00 1191.00 C 1195.83 1195.39 1194.09 1204.60 1199.00 1205.00
C 1199.00 1200.67 1199.00 1196.33 1199.00 1192.00
C 1210.82 1187.46 1209.09 1204.91 1218.00 1205.00
C 1216.30 1199.61 1212.50 1195.11 1210.00 1190.00
C 1214.62 1186.98 1215.18 1180.71 1217.00 1176.00
C 1209.81 1177.43 1210.67 1192.37 1199.00 1189.00
C 1199.00 1184.67 1199.00 1180.33 1199.00 1176.00 Z"/>
</g>
<g fill="None" fill-opacity="0.0" stroke="#2D4E38" stroke-opacity="0.75" stroke-width="0.3"><path d="
M 1271.00 1183.00 
C 1272.95 1182.82 1271.62 1201.22 1272.00 1205.00
C 1273.00 1205.00 1274.00 1205.00 1275.00 1205.00
C 1275.00 1195.34 1275.00 1185.66 1275.00 1176.00
C 1265.26 1178.53 1262.30 1192.31 1255.00 1199.00
C 1253.31 1192.03 1258.58 1178.93 1252.00 1176.00
C 1252.00 1185.67 1252.00 1195.33 1252.00 1205.00
C 1257.49 1205.76 1259.34 1196.89 1262.70 1194.70 C 1266.05 1192.51 1266.99 1183.37 1271.00 1183.00 Z"/>
</g>
<g fill="None" fill-opacity="0.0" stroke="#2D4E37" stroke-opacity="0.44" stroke-width="0.3"><path d="
M 863.00 1179.00 
C 867.02 1180.31 873.74 1179.00 878.00 1179.00
C 878.50 1179.00 879.00 1179.00 879.00 1179.00
C 876.56 1176.46 863.43 1177.94 863.00 1179.00 Z"/>
</g>
<g fill="None" fill-opacity="0.0" stroke="#000000" stroke-opacity="0.00" stroke-width="0.3"><path d="
M 368.00 1179.00 
C 353.06 1174.46 344.23 1194.59 358.33 1201.67 C 372.43 1208.75 382.06 1183.27 368.00 1179.00 Z"/>
</g>
<g fill="None" fill-opacity="0.0" stroke="#33664C" stroke-opacity="0.04" stroke-width="0.3"><path d="
M 541.00 1205.00 
C 540.42 1196.38 541.78 1187.60 541.00 1179.00
C 541.00 1179.00 540.50 1179.00 540.00 1179.00
C 539.68 1182.55 539.74 1189.76 540.00 1193.00 C 540.26 1196.24 538.38 1203.73 541.00 1205.00 Z"/>
</g>
<g fill="None" fill-opacity="0.0" stroke="#555555" stroke-opacity="0.01" stroke-width="0.3"><path d="
M 879.00 1205.00 
C 878.42 1196.38 879.78 1187.60 879.00 1179.00
C 879.00 1179.00 878.50 1179.00 878.00 1179.00
C 877.68 1182.55 877.74 1189.76 878.00 1193.00 C 878.26 1196.24 876.38 1203.73 879.00 1205.00 Z"/>
</g>
<g fill="None" fill-opacity="0.0" stroke="#000000" stroke-opacity="0.00" stroke-width="0.3"><path d="
M 921.00 1192.00 
C 938.34 1197.98 938.32 1173.01 921.00 1179.00
C 921.00 1183.33 921.00 1187.67 921.00 1192.00 Z"/>
</g>
<g fill="None" fill-opacity="0.0" stroke="#000000" stroke-opacity="0.00" stroke-width="0.3"><path d="
M 488.00 1182.00 
C 484.97 1185.55 484.57 1190.92 482.00 1195.00
C 485.67 1195.00 489.33 1195.00 493.00 1195.00
C 491.89 1190.46 489.99 1186.25 488.00 1182.00 Z"/>
</g>
<g fill="None" fill-opacity="0.0" stroke="#555555" stroke-opacity="0.02" stroke-width="0.3"><path d="
M 606.00 1183.00 
C 605.10 1185.74 606.16 1192.34 606.00 1195.00 C 605.84 1197.66 604.89 1203.97 607.00 1205.00
C 606.62 1201.22 607.95 1182.82 606.00 1183.00 Z"/>
</g>
<g fill="None" fill-opacity="0.0" stroke="#000000" stroke-opacity="0.00" stroke-width="0.3"><path d="
M 987.00 1195.00 
C 985.41 1190.60 984.68 1185.10 981.00 1182.00
C 979.89 1186.54 977.99 1190.75 976.00 1195.00
C 979.67 1195.00 983.33 1195.00 987.00 1195.00 Z"/>
</g>
<g fill="None" fill-opacity="0.0" stroke="#555555" stroke-opacity="0.02" stroke-width="0.3"><path d="
M 1271.00 1183.00 
C 1270.10 1185.74 1271.16 1192.34 1271.00 1195.00 C 1270.84 1197.66 1269.89 1203.97 1272.00 1205.00
C 1271.62 1201.22 1272.95 1182.82 1271.00 1183.00 Z"/>
</g>
<g fill="None" fill-opacity="0.0" stroke="#555555" stroke-opacity="0.01" stroke-width="0.3"><path d="
M 722.00 1205.00 
C 720.75 1201.77 724.09 1194.16 721.00 1192.00
C 722.28 1194.74 718.87 1203.48 722.00 1205.00 Z"/>
</g>
<g fill="#000000" fill-opacity="0.00" stroke="None">
<path d="
M 0.00 1563.00 
L 1563.00 1563.00
L 1563.00 0.00
L 0.00 0.00
L 0.00 1563.00
M 796.00 384.00 
C 797.16 384.72 798.05 385.26 799.00 386.00
C 800.81 387.41 803.00 388.88 804.00 391.00
C 802.17 390.73 799.70 389.98 799.00 388.00
C 798.02 387.47 795.89 386.40 795.00 386.00
C 763.74 372.06 729.30 383.45 713.23 415.23 C 697.16 447.01 729.30 477.54 733.00 509.00 C 736.70 540.46 708.58 573.97 676.98 575.98 C 645.38 577.98 609.90 588.10 598.23 621.23 C 586.56 654.36 588.49 688.42 576.00 721.00
C 578.54 692.81 578.30 656.04 582.98 627.98 C 587.65 599.91 603.29 580.32 628.23 568.23 C 653.17 556.14 685.77 564.78 704.92 539.92 C 724.07 515.06 707.22 486.60 696.03 461.97 C 684.83 437.35 696.27 405.47 717.25 388.25 C 738.23 371.02 773.42 366.21 796.00 384.00
M 653.00 387.00 
C 606.26 411.95 567.75 438.77 534.25 483.25 C 500.75 527.73 481.15 588.52 481.00 646.00 C 480.85 703.48 500.14 763.97 533.30 808.70 C 566.46 853.43 605.98 881.53 655.00 903.00
C 685.41 853.52 676.25 787.22 659.00 735.00
C 653.00 751.40 638.83 767.37 622.00 773.00
C 642.02 753.25 654.09 726.66 648.00 698.00
C 651.06 697.25 654.07 696.26 657.00 695.00
C 680.40 760.32 701.60 840.83 665.00 906.00
C 731.03 930.65 810.02 924.53 873.00 896.00
C 844.53 831.58 862.80 757.92 886.00 695.00
C 902.98 694.88 893.01 710.81 894.00 721.00 C 894.99 731.19 899.62 741.60 904.92 750.08 C 910.23 758.55 916.54 764.80 922.00 773.00
C 903.85 768.92 892.97 750.87 885.00 737.00
C 871.70 785.48 862.63 841.51 882.00 890.00
C 896.68 883.08 911.11 874.39 924.08 864.08 C 937.05 853.77 948.27 843.69 959.75 830.75 C 971.23 817.82 983.50 805.97 985.00 787.00 C 986.50 768.02 988.89 741.20 988.00 721.00 C 987.11 700.80 985.01 677.73 981.02 658.98 C 977.04 640.22 972.48 622.21 965.68 605.32 C 958.87 588.43 951.51 574.48 942.23 559.77 C 932.95 545.06 923.86 532.84 912.70 520.30 C 901.53 507.77 889.52 497.56 878.00 486.00
C 875.08 483.45 869.95 482.83 870.00 478.00
C 872.32 480.62 876.17 481.15 878.00 484.00
C 898.80 497.98 915.73 513.29 932.25 532.75 C 948.77 552.21 961.28 571.66 972.77 596.23 C 984.26 620.80 990.68 648.38 995.98 677.02 C 1001.28 705.66 998.49 744.73 997.00 774.00
C 996.93 775.45 997.90 776.25 998.00 777.00
C 1014.23 739.86 1027.58 706.22 1029.99 664.99 C 1032.40 623.76 1024.06 575.01 1009.08 538.92 C 994.09 502.84 976.83 477.26 953.00 448.00
C 1051.93 531.72 1064.38 683.52 1002.25 792.25 C 940.12 900.97 807.09 955.96 687.78 926.22 C 568.47 896.48 479.85 795.70 469.07 672.93 C 458.29 550.16 534.08 420.75 653.00 385.00
C 654.66 384.62 656.16 383.82 658.00 384.00
C 657.15 385.92 654.95 386.78 653.00 387.00
M 1004.00 421.00 
C 1015.89 421.90 1017.63 442.45 1015.02 451.02 C 1012.42 459.60 1007.71 475.84 995.00 475.00 C 982.28 474.15 981.94 453.93 983.98 444.98 C 986.01 436.02 992.07 420.09 1004.00 421.00
M 841.00 437.00 
C 854.76 438.97 861.72 449.41 863.00 464.00 C 864.28 478.59 842.31 476.90 834.25 465.75 C 826.18 454.61 820.69 434.10 841.00 437.00
M 904.00 437.00 
C 913.92 440.01 915.05 456.81 915.00 465.00 C 914.95 473.19 908.46 489.72 897.92 486.07 C 887.38 482.41 886.18 468.11 886.00 459.00 C 885.82 449.89 891.77 433.29 904.00 437.00
M 1054.00 479.00 
C 1066.75 482.16 1061.77 500.85 1053.75 507.75 C 1045.74 514.65 1036.33 524.87 1023.78 521.22 C 1011.23 517.58 1015.51 500.62 1023.25 493.25 C 1030.99 485.88 1041.90 476.00 1054.00 479.00
M 956.00 481.00 
C 961.21 483.13 959.00 495.98 958.07 500.07 C 957.14 504.17 953.00 511.82 948.77 513.77 C 944.54 515.71 935.38 522.86 930.00 519.00 C 924.62 515.14 926.08 508.83 927.93 499.93 C 929.77 491.02 945.73 476.80 956.00 481.00
M 865.00 490.00 
C 882.68 493.17 875.76 509.74 865.26 514.26 C 854.75 518.77 832.04 519.11 831.36 505.31 C 830.67 491.50 856.16 488.42 865.00 490.00
M 985.00 521.00 
C 995.71 522.96 993.06 543.14 987.68 549.68 C 982.30 556.22 974.19 567.21 963.93 564.07 C 953.66 560.94 956.21 544.38 961.31 537.31 C 966.40 530.23 974.71 519.12 985.00 521.00
M 894.00 524.00 
C 904.36 525.68 912.69 536.26 903.90 544.90 C 895.11 553.54 885.00 552.87 873.98 553.02 C 862.95 553.18 854.29 540.58 862.92 532.92 C 871.55 525.26 882.56 522.14 894.00 524.00
M 1079.00 540.00 
C 1092.07 542.71 1086.60 561.62 1079.25 568.25 C 1071.89 574.88 1061.73 585.74 1049.33 582.67 C 1036.93 579.60 1040.21 561.64 1048.25 554.25 C 1056.29 546.86 1066.79 537.47 1079.00 540.00
M 918.00 561.00 
C 925.96 561.84 942.16 568.78 935.69 578.70 C 929.23 588.61 918.97 590.70 909.00 591.00 C 899.03 591.30 884.49 584.21 890.75 574.75 C 897.02 565.30 906.71 559.81 918.00 561.00
M 254.00 995.00 
C 243.33 990.17 231.94 985.90 220.00 988.00 C 208.05 990.10 200.80 998.96 200.00 1011.00 C 199.20 1023.04 207.32 1031.80 217.70 1036.31 C 228.07 1040.81 237.05 1044.61 246.70 1050.30 C 256.34 1056.00 262.08 1066.19 262.93 1077.07 C 263.77 1087.96 258.37 1099.62 249.75 1106.75 C 241.14 1113.88 227.11 1117.51 216.00 1116.00 C 204.89 1114.49 188.30 1113.54 187.00 1101.00
C 196.20 1108.24 207.46 1111.55 219.00 1112.00 C 230.54 1112.45 242.01 1108.02 247.77 1097.77 C 253.53 1087.52 250.86 1073.94 242.75 1066.25 C 234.64 1058.56 224.46 1055.40 214.77 1051.23 C 205.08 1047.06 195.03 1042.55 190.70 1032.31 C 186.36 1022.06 186.53 1006.43 193.77 997.77 C 201.01 989.12 211.36 983.72 222.07 983.07 C 232.78 982.43 250.40 984.80 254.00 995.00
M 826.00 995.00 
C 815.33 990.17 803.94 985.90 792.00 988.00 C 780.05 990.10 772.80 998.96 772.00 1011.00 C 771.20 1023.04 779.32 1031.80 789.70 1036.31 C 800.07 1040.81 809.05 1044.61 818.70 1050.30 C 828.34 1056.00 834.08 1066.19 834.93 1077.07 C 835.77 1087.96 830.37 1099.62 821.75 1106.75 C 813.14 1113.89 799.11 1117.51 788.00 1116.00 C 776.89 1114.49 760.30 1113.54 759.00 1101.00
C 768.20 1108.24 779.47 1111.55 791.00 1112.00 C 802.53 1112.45 814.01 1108.02 819.77 1097.77 C 825.53 1087.52 822.86 1073.94 814.75 1066.25 C 806.64 1058.56 796.46 1055.40 786.77 1051.23 C 777.08 1047.06 767.03 1042.55 762.70 1032.31 C 758.36 1022.06 758.53 1006.42 765.77 997.77 C 773.01 989.12 783.36 983.71 794.07 983.07 C 804.78 982.43 822.40 984.80 826.00 995.00
M 448.00 984.00 
C 464.83 1018.92 484.46 1052.90 501.00 1088.00
C 521.28 1054.60 537.81 1018.33 557.00 984.00
C 564.24 1025.44 566.98 1068.90 573.00 1111.00
C 560.48 1114.60 556.05 1108.29 556.00 1098.00 C 555.96 1087.70 553.59 1079.73 553.00 1070.00 C 552.41 1060.27 550.39 1051.83 549.67 1042.33 C 548.95 1032.83 547.35 1024.28 546.00 1015.00
C 539.34 1024.56 534.82 1035.83 529.08 1046.08 C 523.33 1056.32 518.32 1067.24 512.25 1077.25 C 506.17 1087.26 502.85 1101.58 494.00 1108.00
C 479.58 1076.51 461.47 1046.47 447.00 1015.00
C 444.80 1022.50 444.55 1030.97 443.02 1039.02 C 441.50 1047.08 441.55 1057.01 440.00 1065.00 C 438.45 1072.99 438.08 1081.64 436.22 1089.22 C 434.36 1096.80 437.54 1110.36 429.00 1111.00
C 430.79 1100.48 432.26 1090.38 433.78 1079.78 C 435.30 1069.18 436.00 1057.44 437.99 1046.99 C 439.98 1036.55 440.02 1025.33 442.00 1015.00 C 443.98 1004.67 443.65 992.10 448.00 984.00
M 645.00 984.00 
C 662.26 1026.57 681.37 1068.54 699.00 1111.00
C 687.91 1113.79 679.92 1109.54 677.69 1099.31 C 675.47 1089.07 669.86 1085.92 667.23 1075.77 C 664.60 1065.62 659.94 1058.70 648.00 1061.00 C 636.06 1063.30 625.79 1059.27 614.00 1061.00
C 610.46 1069.53 606.89 1079.21 602.23 1087.23 C 597.57 1095.25 597.05 1109.80 587.00 1111.00
C 595.29 1089.53 605.13 1067.87 614.92 1046.92 C 624.72 1025.98 632.35 1002.23 645.00 984.00
M 358.00 985.00 
C 396.38 988.72 418.35 1023.43 413.02 1061.02 C 407.70 1098.62 372.26 1120.20 334.00 1115.00 C 295.74 1109.80 272.59 1077.18 278.00 1038.00 C 283.41 998.82 320.37 981.36 358.00 985.00
M 1372.00 1048.00 
C 1372.19 1050.21 1372.20 1052.79 1372.00 1055.00
C 1368.61 1091.98 1340.58 1114.78 1304.00 1115.00 C 1267.42 1115.22 1236.00 1092.41 1236.00 1054.00
C 1235.76 1051.49 1235.76 1048.44 1236.00 1046.00
C 1236.00 1023.20 1246.55 1002.06 1268.08 992.08 C 1289.60 982.09 1318.57 982.27 1340.22 992.78 C 1361.88 1003.28 1370.09 1025.52 1372.00 1048.00
M 901.00 1110.00 
C 899.43 1112.24 889.79 1111.25 887.00 1111.00
C 882.46 1106.64 887.39 1094.64 886.00 1088.00 C 884.61 1081.36 886.63 1071.41 886.00 1064.00 C 885.37 1056.59 886.29 1047.78 886.00 1040.00 C 885.71 1032.22 886.15 1024.00 886.00 1016.00 C 885.85 1008.00 886.11 999.08 886.00 991.00
C 873.33 991.00 860.67 991.00 848.00 991.00
C 848.28 989.72 847.24 987.50 849.00 987.00
C 854.32 983.63 864.44 988.46 871.00 987.00 C 877.56 985.54 886.94 987.71 894.00 987.00 C 901.06 986.29 908.69 987.35 916.00 987.00 C 923.31 986.65 931.60 987.27 939.00 987.00
C 938.64 994.23 928.09 990.20 922.00 991.00 C 915.91 991.80 907.32 990.40 901.00 991.00
C 901.00 1030.67 901.00 1070.33 901.00 1110.00
M 1004.00 1115.00 
C 1001.45 1115.17 998.78 1114.17 997.00 1114.00
C 972.78 1113.52 954.10 1098.11 954.02 1071.98 C 953.95 1045.84 954.03 1013.68 954.00 987.00
C 959.00 987.00 964.00 987.00 969.00 987.00
C 971.78 1017.71 963.65 1061.18 972.78 1089.22 C 981.90 1117.26 1030.00 1116.26 1039.92 1088.92 C 1049.85 1061.59 1042.92 1017.49 1045.00 987.00
C 1052.49 989.79 1048.32 1003.26 1049.00 1012.00 C 1049.68 1020.74 1048.84 1033.04 1049.00 1042.00 C 1049.16 1050.96 1049.29 1062.41 1049.00 1071.00 C 1048.71 1079.59 1045.94 1087.16 1042.23 1094.23 C 1038.52 1101.30 1034.45 1104.65 1027.77 1108.77 C 1021.09 1112.89 1011.68 1113.68 1004.00 1115.00
M 1067.00 1111.00 
C 1067.00 1069.67 1067.00 1028.34 1067.00 987.00
C 1097.27 989.47 1145.94 978.03 1167.25 1003.75 C 1188.55 1029.47 1187.33 1066.67 1165.75 1091.75 C 1144.18 1116.83 1098.06 1110.69 1067.00 1111.00
M 1215.00 1111.00 
C 1211.87 1113.19 1204.52 1109.36 1201.00 1111.00
C 1201.00 1069.67 1201.00 1028.34 1201.00 987.00
C 1205.67 987.00 1210.33 987.00 1215.00 987.00
C 1219.09 989.86 1214.86 1001.64 1216.00 1007.00 C 1217.14 1012.36 1215.57 1021.85 1216.00 1028.00 C 1216.43 1034.15 1216.00 1042.64 1216.00 1049.00 C 1216.00 1055.36 1216.43 1063.84 1216.00 1070.00 C 1215.57 1076.16 1217.14 1085.61 1216.00 1091.00 C 1214.86 1096.39 1219.07 1108.15 1215.00 1111.00
M 315.00 1186.00 
C 310.30 1182.04 301.31 1175.98 294.77 1180.77 C 288.24 1185.56 287.38 1195.17 294.25 1200.75 C 301.12 1206.33 310.94 1197.23 316.00 1195.00
C 310.90 1211.40 286.79 1208.22 286.01 1190.99 C 285.22 1173.76 311.37 1168.52 315.00 1186.00
M 367.00 1175.00 
C 385.64 1178.86 378.60 1211.12 359.33 1205.67 C 340.06 1200.22 347.28 1170.92 367.00 1175.00
M 427.00 1193.00 
C 432.29 1187.74 433.90 1176.71 442.00 1176.00
C 442.00 1185.66 442.00 1195.34 442.00 1205.00
C 433.07 1204.44 441.23 1189.31 437.00 1184.00
C 433.90 1186.77 431.87 1197.02 426.97 1196.97 C 422.08 1196.92 420.11 1186.78 417.00 1184.00
C 414.71 1190.09 416.63 1198.16 416.00 1205.00
C 409.53 1205.63 412.46 1197.89 412.00 1193.00 C 411.54 1188.11 412.34 1181.08 412.00 1176.00
C 420.40 1176.45 421.25 1188.36 427.00 1193.00
M 501.00 1205.00 
C 496.48 1206.35 496.18 1200.96 495.00 1198.00
C 491.11 1198.82 484.87 1196.77 481.33 1198.33 C 477.79 1199.89 480.01 1207.22 474.00 1205.00
C 476.84 1196.73 479.83 1194.00 481.98 1184.98 C 484.12 1175.95 490.94 1174.49 492.92 1184.08 C 494.91 1193.67 499.24 1195.92 501.00 1205.00
M 541.00 1205.00 
C 538.38 1203.73 540.26 1196.24 540.00 1193.00 C 539.74 1189.76 539.68 1182.55 540.00 1179.00
C 537.00 1179.00 534.00 1179.00 531.00 1179.00
C 531.11 1178.00 530.53 1176.27 532.00 1176.00
C 537.50 1172.83 548.04 1178.38 554.00 1176.00
C 554.66 1181.30 547.15 1178.14 544.00 1179.00
C 544.00 1187.67 544.00 1196.33 544.00 1205.00
C 543.00 1205.00 542.00 1205.00 541.00 1205.00
M 607.00 1205.00 
C 604.89 1203.97 605.84 1197.66 606.00 1195.00 C 606.16 1192.34 605.10 1185.74 606.00 1183.00
C 601.99 1183.37 601.05 1192.51 597.70 1194.70 C 594.34 1196.89 592.49 1205.76 587.00 1205.00
C 587.00 1195.33 587.00 1185.67 587.00 1176.00
C 593.58 1178.93 588.30 1192.03 590.00 1199.00
C 597.30 1192.31 600.26 1178.54 610.00 1176.00
C 610.00 1185.66 610.00 1195.34 610.00 1205.00
C 609.00 1205.00 608.00 1205.00 607.00 1205.00
M 648.00 1176.00 
C 644.95 1186.46 652.02 1195.11 663.00 1192.00
C 663.00 1186.67 663.00 1181.33 663.00 1176.00
C 668.40 1176.52 665.40 1184.37 666.00 1189.00 C 666.60 1193.63 665.55 1200.19 666.00 1205.00
C 660.70 1205.67 663.86 1198.15 663.00 1195.00
C 657.78 1195.27 649.35 1195.97 646.70 1191.30 C 644.06 1186.62 642.98 1177.38 648.00 1176.00
M 721.00 1189.00 
C 722.29 1186.19 718.83 1177.54 722.00 1176.00
C 722.81 1175.61 724.15 1176.31 725.00 1176.00
C 725.00 1185.66 725.00 1195.34 725.00 1205.00
C 724.00 1205.00 723.00 1205.00 722.00 1205.00
C 718.87 1203.48 722.28 1194.74 721.00 1192.00
C 717.65 1189.65 709.77 1193.76 706.00 1192.00
C 706.00 1196.33 706.00 1200.67 706.00 1205.00
C 699.53 1205.63 702.46 1197.89 702.00 1193.00 C 701.54 1188.11 702.34 1181.09 702.00 1176.00
C 709.11 1174.85 704.85 1184.82 706.00 1189.00
C 711.00 1189.00 716.00 1189.00 721.00 1189.00
M 765.00 1176.00 
C 765.66 1183.16 763.67 1191.66 766.00 1198.00
C 771.58 1190.71 775.16 1179.26 784.00 1176.00
C 784.00 1185.66 784.00 1195.34 784.00 1205.00
C 776.80 1202.55 783.99 1188.67 780.00 1183.00
C 773.64 1190.00 770.39 1202.73 761.00 1205.00
C 761.49 1200.12 760.35 1193.74 761.00 1189.00 C 761.65 1184.26 758.20 1175.30 765.00 1176.00
M 879.00 1205.00 
C 876.38 1203.73 878.26 1196.24 878.00 1193.00 C 877.74 1189.76 877.68 1182.55 878.00 1179.00
C 873.74 1179.00 867.02 1180.31 863.00 1179.00
C 859.98 1186.44 865.27 1197.25 863.00 1205.00
C 856.53 1205.63 859.46 1197.89 859.00 1193.00 C 858.54 1188.11 859.34 1181.08 859.00 1176.00
C 866.67 1176.00 874.33 1176.00 882.00 1176.00
C 882.00 1185.66 882.00 1195.34 882.00 1205.00
C 881.00 1205.00 880.00 1205.00 879.00 1205.00
M 921.00 1195.00 
C 921.00 1198.33 921.00 1201.67 921.00 1205.00
C 915.60 1204.48 918.60 1196.63 918.00 1192.00 C 917.40 1187.37 918.45 1180.81 918.00 1176.00
C 926.18 1175.48 937.50 1174.40 938.33 1184.67 C 939.16 1194.95 929.38 1195.99 921.00 1195.00
M 995.00 1205.00 
C 990.48 1206.35 990.17 1200.96 989.00 1198.00
C 985.11 1198.82 978.87 1196.77 975.33 1198.33 C 971.79 1199.89 974.01 1207.22 968.00 1205.00
C 970.84 1196.74 973.83 1194.00 975.98 1184.98 C 978.12 1175.95 984.94 1174.48 986.92 1184.08 C 988.91 1193.67 993.24 1195.92 995.00 1205.00
M 1031.00 1176.00 
C 1031.00 1180.33 1031.00 1184.67 1031.00 1189.00
C 1042.75 1192.19 1041.16 1177.13 1049.00 1176.00
C 1046.84 1180.59 1046.45 1186.91 1042.00 1190.00
C 1044.34 1195.20 1048.08 1199.74 1050.00 1205.00
C 1040.76 1205.19 1042.91 1187.40 1031.00 1192.00
C 1031.00 1196.33 1031.00 1200.67 1031.00 1205.00
C 1026.09 1204.60 1027.83 1195.39 1028.00 1191.00 C 1028.17 1186.61 1025.74 1176.48 1031.00 1176.00
M 1104.00 1176.00 
C 1104.67 1181.30 1097.15 1178.14 1094.00 1179.00
C 1094.00 1187.67 1094.00 1196.33 1094.00 1205.00
C 1087.71 1205.99 1090.42 1198.38 1090.00 1194.00 C 1089.58 1189.62 1090.31 1183.53 1090.00 1179.00
C 1086.67 1179.00 1083.33 1179.00 1080.00 1179.00
C 1083.25 1172.39 1096.71 1177.72 1104.00 1176.00
M 1140.00 1176.00 
C 1140.66 1183.17 1138.67 1191.66 1141.00 1198.00
C 1147.33 1191.01 1150.49 1178.17 1160.00 1176.00
C 1160.00 1185.66 1160.00 1195.34 1160.00 1205.00
C 1150.99 1204.16 1159.29 1188.61 1155.00 1183.00
C 1148.93 1190.15 1145.62 1202.90 1136.00 1205.00
C 1136.49 1200.11 1135.35 1193.74 1136.00 1189.00 C 1136.65 1184.26 1133.20 1175.30 1140.00 1176.00
M 1199.00 1176.00 
C 1199.00 1180.33 1199.00 1184.67 1199.00 1189.00
C 1210.67 1192.37 1209.81 1177.43 1217.00 1176.00
C 1215.18 1180.71 1214.62 1186.98 1210.00 1190.00
C 1212.50 1195.11 1216.30 1199.61 1218.00 1205.00
C 1209.09 1204.91 1210.82 1187.46 1199.00 1192.00
C 1199.00 1196.33 1199.00 1200.67 1199.00 1205.00
C 1194.09 1204.60 1195.83 1195.39 1196.00 1191.00 C 1196.17 1186.61 1193.74 1176.48 1199.00 1176.00
M 1272.00 1205.00 
C 1269.89 1203.97 1270.84 1197.66 1271.00 1195.00 C 1271.16 1192.34 1270.10 1185.74 1271.00 1183.00
C 1266.99 1183.37 1266.05 1192.51 1262.70 1194.70 C 1259.34 1196.89 1257.49 1205.76 1252.00 1205.00
C 1252.00 1195.33 1252.00 1185.67 1252.00 1176.00
C 1258.58 1178.93 1253.31 1192.03 1255.00 1199.00
C 1262.30 1192.31 1265.26 1178.53 1275.00 1176.00
C 1275.00 1185.66 1275.00 1195.34 1275.00 1205.00
C 1274.00 1205.00 1273.00 1205.00 1272.00 1205.00 Z"/>
</g>
<g fill="#2B4B36" fill-opacity="0.92" stroke="None">
<path d="
M 795.00 386.00 
C 795.41 385.83 795.74 384.12 796.00 384.00
C 773.42 366.21 738.23 371.02 717.25 388.25 C 696.27 405.47 684.83 437.35 696.03 461.97 C 707.22 486.60 724.07 515.06 704.92 539.92 C 685.77 564.78 653.17 556.14 628.23 568.23 C 603.29 580.32 587.65 599.91 582.98 627.98 C 578.30 656.04 578.54 692.81 576.00 721.00
C 588.49 688.42 586.56 654.36 598.23 621.23 C 609.90 588.10 645.38 577.98 676.98 575.98 C 708.58 573.97 736.70 540.46 733.00 509.00 C 729.30 477.54 697.16 447.01 713.23 415.23 C 729.30 383.45 763.74 372.06 795.00 386.00 Z"/>
</g>
<g fill="#213727" fill-opacity="0.25" stroke="None">
<path d="
M 653.00 385.00 
C 652.76 385.20 653.23 386.66 653.00 387.00
C 654.95 386.78 657.15 385.92 658.00 384.00
C 656.16 383.82 654.66 384.62 653.00 385.00 Z"/>
</g>
<g fill="#26402E" fill-opacity="0.59" stroke="None">
<path d="
M 795.00 386.00 
C 795.89 386.40 798.02 387.47 799.00 388.00
C 798.85 387.55 799.14 386.46 799.00 386.00
C 798.05 385.26 797.16 384.72 796.00 384.00
C 795.74 384.12 795.41 385.83 795.00 386.00 Z"/>
</g>
<g fill="#2B4A35" fill-opacity="0.89" stroke="None">
<path d="
M 998.00 777.00 
C 997.47 778.21 998.34 780.86 996.00 781.00
C 995.14 779.70 996.08 769.73 997.00 774.00
C 998.49 744.73 1001.28 705.66 995.98 677.02 C 990.68 648.38 984.26 620.80 972.77 596.23 C 961.28 571.66 948.77 552.21 932.25 532.75 C 915.73 513.29 898.80 497.98 878.00 484.00
C 877.96 483.88 877.60 485.19 878.00 486.00
C 889.52 497.56 901.53 507.77 912.70 520.30 C 923.86 532.84 932.95 545.06 942.23 559.77 C 951.51 574.48 958.87 588.43 965.68 605.32 C 972.48 622.21 977.04 640.22 981.02 658.98 C 985.01 677.73 987.11 700.80 988.00 721.00 C 988.89 741.20 986.50 768.02 985.00 787.00 C 983.50 805.97 971.23 817.82 959.75 830.75 C 948.27 843.69 937.05 853.77 924.08 864.08 C 911.11 874.39 896.68 883.08 882.00 890.00
C 862.63 841.51 871.70 785.48 885.00 737.00
C 892.97 750.87 903.85 768.92 922.00 773.00
C 916.54 764.80 910.23 758.55 904.92 750.08 C 899.62 741.60 894.99 731.19 894.00 721.00 C 893.01 710.81 902.98 694.88 886.00 695.00
C 862.80 757.92 844.53 831.58 873.00 896.00
C 810.02 924.53 731.03 930.65 665.00 906.00
C 701.60 840.83 680.40 760.32 657.00 695.00
C 654.07 696.26 651.06 697.25 648.00 698.00
C 654.09 726.66 642.02 753.25 622.00 773.00
C 638.83 767.37 653.00 751.40 659.00 735.00
C 676.25 787.22 685.41 853.52 655.00 903.00
C 605.98 881.53 566.46 853.43 533.30 808.70 C 500.14 763.97 480.85 703.48 481.00 646.00 C 481.15 588.52 500.75 527.73 534.25 483.25 C 567.75 438.77 606.26 411.95 653.00 387.00
C 653.23 386.66 652.76 385.20 653.00 385.00
C 534.08 420.75 458.29 550.16 469.07 672.93 C 479.85 795.70 568.47 896.48 687.78 926.22 C 807.09 955.96 940.12 900.97 1002.25 792.25 C 1064.38 683.52 1051.93 531.72 953.00 448.00
C 976.83 477.26 994.09 502.84 1009.08 538.92 C 1024.06 575.01 1032.40 623.76 1029.99 664.99 C 1027.58 706.22 1014.23 739.86 998.00 777.00 Z"/>
</g>
<g fill="#21392A" fill-opacity="0.36" stroke="None">
<path d="
M 799.00 388.00 
C 799.70 389.98 802.17 390.73 804.00 391.00
C 803.00 388.88 800.81 387.41 799.00 386.00
C 799.14 386.46 798.85 387.55 799.00 388.00 Z"/>
</g>
<g fill="#2C4C36" fill-opacity="0.94" stroke="None">
<path d="
M 1004.00 421.00 
C 992.07 420.09 986.01 436.02 983.98 444.98 C 981.94 453.93 982.28 474.15 995.00 475.00 C 1007.71 475.84 1012.42 459.60 1015.02 451.02 C 1017.63 442.45 1015.89 421.90 1004.00 421.00 Z"/>
</g>
<g fill="#2B4B36" fill-opacity="0.93" stroke="None">
<path d="
M 841.00 437.00 
C 820.69 434.10 826.18 454.61 834.25 465.75 C 842.31 476.90 864.28 478.59 863.00 464.00 C 861.72 449.41 854.76 438.97 841.00 437.00 Z"/>
</g>
<g fill="#2C4C36" fill-opacity="0.94" stroke="None">
<path d="
M 904.00 437.00 
C 891.77 433.29 885.82 449.89 886.00 459.00 C 886.18 468.11 887.38 482.41 897.92 486.07 C 908.46 489.72 914.95 473.19 915.00 465.00 C 915.05 456.81 913.92 440.01 904.00 437.00 Z"/>
</g>
<g fill="#233E2C" fill-opacity="0.44" stroke="None">
<path d="
M 878.00 486.00 
C 877.60 485.19 877.96 483.88 878.00 484.00
C 876.17 481.15 872.32 480.62 870.00 478.00
C 869.95 482.83 875.08 483.45 878.00 486.00 Z"/>
</g>
<g fill="#2B4C36" fill-opacity="0.94" stroke="None">
<path d="
M 1054.00 479.00 
C 1041.90 476.00 1030.99 485.88 1023.25 493.25 C 1015.51 500.62 1011.23 517.58 1023.78 521.22 C 1036.33 524.87 1045.74 514.65 1053.75 507.75 C 1061.77 500.85 1066.75 482.16 1054.00 479.00 Z"/>
</g>
<g fill="#2B4C36" fill-opacity="0.93" stroke="None">
<path d="
M 956.00 481.00 
C 945.73 476.80 929.77 491.02 927.93 499.93 C 926.08 508.83 924.62 515.14 930.00 519.00 C 935.38 522.86 944.54 515.71 948.77 513.77 C 953.00 511.82 957.14 504.17 958.07 500.07 C 959.00 495.98 961.21 483.13 956.00 481.00 Z"/>
</g>
<g fill="#2B4B36" fill-opacity="0.93" stroke="None">
<path d="
M 865.00 490.00 
C 856.16 488.42 830.67 491.50 831.36 505.31 C 832.04 519.11 854.75 518.77 865.26 514.26 C 875.76 509.74 882.68 493.17 865.00 490.00 Z"/>
</g>
<g fill="#2B4C36" fill-opacity="0.94" stroke="None">
<path d="
M 985.00 521.00 
C 974.71 519.12 966.40 530.23 961.31 537.31 C 956.21 544.38 953.66 560.94 963.93 564.07 C 974.19 567.21 982.30 556.22 987.68 549.68 C 993.06 543.14 995.71 522.96 985.00 521.00 Z"/>
</g>
<g fill="#2C4C36" fill-opacity="0.93" stroke="None">
<path d="
M 894.00 524.00 
C 882.56 522.14 871.55 525.26 862.92 532.92 C 854.29 540.58 862.95 553.18 873.98 553.02 C 885.00 552.87 895.11 553.54 903.90 544.90 C 912.69 536.26 904.36 525.68 894.00 524.00 Z"/>
</g>
<g fill="#2B4C36" fill-opacity="0.94" stroke="None">
<path d="
M 1079.00 540.00 
C 1066.79 537.47 1056.29 546.86 1048.25 554.25 C 1040.21 561.64 1036.93 579.60 1049.33 582.67 C 1061.73 585.74 1071.89 574.88 1079.25 568.25 C 1086.60 561.62 1092.07 542.71 1079.00 540.00 Z"/>
</g>
<g fill="#2B4C36" fill-opacity="0.94" stroke="None">
<path d="
M 918.00 561.00 
C 906.71 559.81 897.02 565.30 890.75 574.75 C 884.49 584.21 899.03 591.30 909.00 591.00 C 918.97 590.70 929.23 588.61 935.69 578.70 C 942.16 568.78 925.96 561.84 918.00 561.00 Z"/>
</g>
<g fill="#274330" fill-opacity="0.65" stroke="None">
<path d="
M 998.00 777.00 
C 997.90 776.25 996.93 775.45 997.00 774.00
C 996.08 769.73 995.14 779.70 996.00 781.00
C 998.34 780.86 997.47 778.21 998.00 777.00 Z"/>
</g>
<g fill="#C18B21" fill-opacity="0.90" stroke="None">
<path d="
M 254.00 995.00 
C 250.40 984.80 232.78 982.43 222.07 983.07 C 211.36 983.72 201.01 989.12 193.77 997.77 C 186.53 1006.43 186.36 1022.06 190.70 1032.31 C 195.03 1042.55 205.08 1047.06 214.77 1051.23 C 224.46 1055.40 234.64 1058.56 242.75 1066.25 C 250.86 1073.94 253.53 1087.52 247.77 1097.77 C 242.01 1108.02 230.54 1112.45 219.00 1112.00 C 207.46 1111.55 196.20 1108.24 187.00 1101.00
C 188.30 1113.54 204.89 1114.49 216.00 1116.00 C 227.11 1117.51 241.14 1113.88 249.75 1106.75 C 258.37 1099.62 263.77 1087.96 262.93 1077.07 C 262.08 1066.19 256.34 1056.00 246.70 1050.30 C 237.05 1044.61 228.07 1040.81 217.70 1036.31 C 207.32 1031.80 199.20 1023.04 200.00 1011.00 C 200.80 998.96 208.05 990.10 220.00 988.00 C 231.94 985.90 243.33 990.17 254.00 995.00 Z"/>
</g>
<g fill="#C18B21" fill-opacity="0.90" stroke="None">
<path d="
M 826.00 995.00 
C 822.40 984.80 804.78 982.43 794.07 983.07 C 783.36 983.71 773.01 989.12 765.77 997.77 C 758.53 1006.42 758.36 1022.06 762.70 1032.31 C 767.03 1042.55 777.08 1047.06 786.77 1051.23 C 796.46 1055.40 806.64 1058.56 814.75 1066.25 C 822.86 1073.94 825.53 1087.52 819.77 1097.77 C 814.01 1108.02 802.53 1112.45 791.00 1112.00 C 779.47 1111.55 768.20 1108.24 759.00 1101.00
C 760.30 1113.54 776.89 1114.49 788.00 1116.00 C 799.11 1117.51 813.14 1113.89 821.75 1106.75 C 830.37 1099.62 835.77 1087.96 834.93 1077.07 C 834.08 1066.19 828.34 1056.00 818.70 1050.30 C 809.05 1044.61 800.07 1040.81 789.70 1036.31 C 779.32 1031.80 771.20 1023.04 772.00 1011.00 C 772.80 998.96 780.05 990.10 792.00 988.00 C 803.94 985.90 815.33 990.17 826.00 995.00 Z"/>
</g>
<g fill="#C28A22" fill-opacity="0.90" stroke="None">
<path d="
M 448.00 984.00 
C 443.65 992.10 443.98 1004.67 442.00 1015.00 C 440.02 1025.33 439.98 1036.55 437.99 1046.99 C 436.00 1057.44 435.30 1069.18 433.78 1079.78 C 432.26 1090.38 430.79 1100.48 429.00 1111.00
C 437.54 1110.36 434.36 1096.80 436.22 1089.22 C 438.08 1081.64 438.45 1072.99 440.00 1065.00 C 441.55 1057.01 441.50 1047.08 443.02 1039.02 C 444.55 1030.97 444.80 1022.50 447.00 1015.00
C 461.47 1046.47 479.58 1076.51 494.00 1108.00
C 502.85 1101.58 506.17 1087.26 512.25 1077.25 C 518.32 1067.24 523.33 1056.32 529.08 1046.08 C 534.82 1035.83 539.34 1024.56 546.00 1015.00
C 547.35 1024.28 548.95 1032.83 549.67 1042.33 C 550.39 1051.83 552.41 1060.27 553.00 1070.00 C 553.59 1079.73 555.96 1087.70 556.00 1098.00 C 556.05 1108.29 560.48 1114.60 573.00 1111.00
C 566.98 1068.90 564.24 1025.44 557.00 984.00
C 537.81 1018.33 521.28 1054.60 501.00 1088.00
C 484.46 1052.90 464.83 1018.92 448.00 984.00 Z"/>
</g>
<g fill="#C18B23" fill-opacity="0.89" stroke="None">
<path d="
M 645.00 984.00 
C 632.35 1002.23 624.72 1025.98 614.92 1046.92 C 605.13 1067.87 595.29 1089.53 587.00 1111.00
C 597.05 1109.80 597.57 1095.25 602.23 1087.23 C 606.89 1079.21 610.46 1069.53 614.00 1061.00
C 625.79 1059.27 636.06 1063.30 648.00 1061.00 C 659.94 1058.70 664.60 1065.62 667.23 1075.77 C 669.86 1085.92 675.47 1089.07 677.69 1099.31 C 679.92 1109.54 687.91 1113.79 699.00 1111.00
C 681.37 1068.54 662.26 1026.57 645.00 984.00
M 639.00 1008.00 
C 644.42 1024.69 653.14 1040.39 659.00 1057.00
C 644.67 1057.00 630.33 1057.00 616.00 1057.00
C 624.10 1040.91 629.41 1022.96 639.00 1008.00 Z"/>
</g>
<g fill="#C18B22" fill-opacity="0.91" stroke="None">
<path d="
M 358.00 985.00 
C 320.37 981.36 283.41 998.82 278.00 1038.00 C 272.59 1077.18 295.74 1109.80 334.00 1115.00 C 372.26 1120.20 407.70 1098.62 413.02 1061.02 C 418.35 1023.43 396.38 988.72 358.00 985.00
M 355.00 989.00 
C 397.74 995.11 410.31 1053.78 390.08 1088.08 C 369.84 1122.37 307.37 1117.43 296.22 1075.78 C 285.08 1034.12 303.59 981.65 355.00 989.00 Z"/>
</g>
<g fill="#C18A21" fill-opacity="0.91" stroke="None">
<path d="
M 1236.00 1046.00 
C 1236.00 1048.67 1236.00 1051.33 1236.00 1054.00
C 1236.00 1092.41 1267.42 1115.22 1304.00 1115.00 C 1340.58 1114.78 1368.61 1091.98 1372.00 1055.00
C 1372.00 1053.61 1371.99 1049.33 1372.00 1048.00
C 1370.09 1025.52 1361.88 1003.28 1340.22 992.78 C 1318.57 982.27 1289.60 982.09 1268.08 992.08 C 1246.55 1002.06 1236.00 1023.20 1236.00 1046.00
M 1356.00 1048.00 
C 1356.21 1050.19 1356.21 1052.87 1356.00 1055.00
C 1356.00 1086.47 1336.64 1110.60 1304.00 1111.00 C 1271.36 1111.40 1251.00 1086.95 1251.00 1055.00
C 1250.56 1050.50 1250.27 1045.50 1251.00 1041.00
C 1252.66 1010.49 1275.31 987.28 1307.00 989.00 C 1338.69 990.72 1356.00 1018.10 1356.00 1048.00 Z"/>
</g>
<g fill="#B3902B" fill-opacity="0.37" stroke="None">
<path d="
M 887.00 1111.00 
C 886.96 1111.00 887.00 1110.00 887.00 1110.00
C 886.99 1070.00 887.00 1030.00 887.00 990.00
C 874.33 990.00 861.67 990.00 849.00 990.00
C 849.00 989.00 849.00 988.00 849.00 987.00
C 847.24 987.50 848.28 989.72 848.00 991.00
C 860.67 991.00 873.33 991.00 886.00 991.00
C 886.11 999.08 885.85 1008.00 886.00 1016.00 C 886.15 1024.00 885.71 1032.22 886.00 1040.00 C 886.29 1047.78 885.37 1056.59 886.00 1064.00 C 886.63 1071.41 884.61 1081.36 886.00 1088.00 C 887.39 1094.64 882.46 1106.64 887.00 1111.00 Z"/>
</g>
<g fill="#C38A1F" fill-opacity="0.98" stroke="None">
<path d="
M 887.00 1110.00 
C 891.63 1109.58 896.36 1110.32 901.00 1110.00
C 901.00 1070.33 901.00 1030.67 901.00 991.00
C 907.32 990.40 915.91 991.80 922.00 991.00 C 928.09 990.20 938.64 994.23 939.00 987.00
C 931.60 987.27 923.31 986.65 916.00 987.00 C 908.69 987.35 901.06 986.29 894.00 987.00 C 886.94 987.71 877.56 985.54 871.00 987.00 C 864.44 988.46 854.32 983.63 849.00 987.00
C 849.00 988.00 849.00 989.00 849.00 990.00
C 861.67 990.00 874.33 990.00 887.00 990.00
C 887.00 1030.00 886.99 1070.00 887.00 1110.00 Z"/>
</g>
<g fill="#C18B20" fill-opacity="0.92" stroke="None">
<path d="
M 997.00 1114.00 
C 999.17 1114.04 1002.62 1114.99 1004.00 1115.00
C 1011.68 1113.68 1021.09 1112.89 1027.77 1108.77 C 1034.45 1104.65 1038.52 1101.30 1042.23 1094.23 C 1045.94 1087.16 1048.71 1079.59 1049.00 1071.00 C 1049.29 1062.41 1049.16 1050.96 1049.00 1042.00 C 1048.84 1033.04 1049.68 1020.74 1049.00 1012.00 C 1048.32 1003.26 1052.49 989.79 1045.00 987.00
C 1042.92 1017.49 1049.85 1061.59 1039.92 1088.92 C 1030.00 1116.26 981.90 1117.26 972.78 1089.22 C 963.65 1061.18 971.78 1017.71 969.00 987.00
C 964.00 987.00 959.00 987.00 954.00 987.00
C 954.03 1013.68 953.95 1045.84 954.02 1071.98 C 954.10 1098.11 972.78 1113.52 997.00 1114.00 Z"/>
</g>
<g fill="#C28A20" fill-opacity="0.93" stroke="None">
<path d="
M 1067.00 1111.00 
C 1098.06 1110.69 1144.18 1116.83 1165.75 1091.75 C 1187.33 1066.67 1188.55 1029.47 1167.25 1003.75 C 1145.94 978.03 1097.27 989.47 1067.00 987.00
C 1067.00 1028.34 1067.00 1069.67 1067.00 1111.00
M 1082.00 1107.00 
C 1082.00 1068.34 1082.00 1029.66 1082.00 991.00
C 1106.23 990.68 1142.12 987.22 1156.25 1010.75 C 1170.38 1034.29 1169.69 1062.25 1155.70 1085.70 C 1141.70 1109.15 1106.73 1108.34 1082.00 1107.00 Z"/>
</g>
<g fill="#C38A1F" fill-opacity="0.98" stroke="None">
<path d="
M 1215.00 1111.00 
C 1215.00 1069.67 1215.00 1028.34 1215.00 987.00
C 1210.33 987.00 1205.67 987.00 1201.00 987.00
C 1201.00 1028.34 1201.00 1069.67 1201.00 1111.00
C 1204.52 1109.36 1211.87 1113.19 1215.00 1111.00 Z"/>
</g>
<g fill="#B29028" fill-opacity="0.49" stroke="None">
<path d="
M 1215.00 1111.00 
C 1219.07 1108.15 1214.86 1096.39 1216.00 1091.00 C 1217.14 1085.61 1215.57 1076.16 1216.00 1070.00 C 1216.43 1063.84 1216.00 1055.36 1216.00 1049.00 C 1216.00 1042.64 1216.43 1034.15 1216.00 1028.00 C 1215.57 1021.85 1217.14 1012.36 1216.00 1007.00 C 1214.86 1001.64 1219.09 989.86 1215.00 987.00
C 1215.00 1028.34 1215.00 1069.67 1215.00 1111.00 Z"/>
</g>
<g fill="#000000" fill-opacity="0.00" stroke="None">
<path d="
M 355.00 989.00 
C 303.59 981.65 285.08 1034.12 296.22 1075.78 C 307.37 1117.43 369.84 1122.37 390.08 1088.08 C 410.31 1053.78 397.74 995.11 355.00 989.00 Z"/>
</g>
<g fill="#000000" fill-opacity="0.00" stroke="None">
<path d="
M 1251.00 1041.00 
C 1250.75 1045.64 1251.00 1050.36 1251.00 1055.00
C 1251.00 1086.95 1271.36 1111.40 1304.00 1111.00 C 1336.64 1110.60 1356.00 1086.47 1356.00 1055.00
C 1356.00 1052.67 1356.00 1050.33 1356.00 1048.00
C 1356.00 1018.10 1338.69 990.72 1307.00 989.00 C 1275.31 987.28 1252.66 1010.49 1251.00 1041.00 Z"/>
</g>
<g fill="#000000" fill-opacity="0.00" stroke="None">
<path d="
M 1082.00 1107.00 
C 1106.73 1108.34 1141.70 1109.15 1155.70 1085.70 C 1169.69 1062.25 1170.38 1034.29 1156.25 1010.75 C 1142.12 987.22 1106.23 990.68 1082.00 991.00
C 1082.00 1029.66 1082.00 1068.34 1082.00 1107.00 Z"/>
</g>
<g fill="#000000" fill-opacity="0.00" stroke="None">
<path d="
M 639.00 1008.00 
C 629.41 1022.96 624.10 1040.91 616.00 1057.00
C 630.33 1057.00 644.67 1057.00 659.00 1057.00
C 653.14 1040.39 644.42 1024.69 639.00 1008.00 Z"/>
</g>
<g fill="#B2912A" fill-opacity="0.31" stroke="None">
<path d="
M 1251.00 1055.00 
C 1251.00 1050.36 1250.75 1045.64 1251.00 1041.00
C 1250.27 1045.50 1250.56 1050.50 1251.00 1055.00 Z"/>
</g>
<g fill="#AB8C28" fill-opacity="0.10" stroke="None">
<path d="
M 1236.00 1054.00 
C 1236.00 1051.33 1236.00 1048.67 1236.00 1046.00
C 1235.76 1048.44 1235.76 1051.49 1236.00 1054.00 Z"/>
</g>
<g fill="#B1912B" fill-opacity="0.25" stroke="None">
<path d="
M 1356.00 1055.00 
C 1356.21 1052.87 1356.21 1050.19 1356.00 1048.00
C 1356.00 1050.33 1356.00 1052.67 1356.00 1055.00 Z"/>
</g>
<g fill="#B1912B" fill-opacity="0.24" stroke="None">
<path d="
M 1372.00 1055.00 
C 1372.20 1052.79 1372.19 1050.21 1372.00 1048.00
C 1371.99 1049.33 1372.00 1053.61 1372.00 1055.00 Z"/>
</g>
<g fill="#BC8C22" fill-opacity="0.83" stroke="None">
<path d="
M 887.00 1111.00 
C 889.79 1111.25 899.43 1112.24 901.00 1110.00
C 896.36 1110.32 891.63 1109.58 887.00 1110.00
C 887.00 1110.00 886.96 1111.00 887.00 1111.00 Z"/>
</g>
<g fill="#B1912B" fill-opacity="0.23" stroke="None">
<path d="
M 1004.00 1115.00 
C 1002.62 1114.99 999.17 1114.04 997.00 1114.00
C 998.78 1114.17 1001.45 1115.17 1004.00 1115.00 Z"/>
</g>
<g fill="#2E4E39" fill-opacity="0.65" stroke="None">
<path d="
M 315.00 1186.00 
C 311.37 1168.52 285.22 1173.76 286.01 1190.99 C 286.79 1208.22 310.90 1211.40 316.00 1195.00
C 310.94 1197.23 301.12 1206.33 294.25 1200.75 C 287.38 1195.17 288.24 1185.56 294.77 1180.77 C 301.31 1175.98 310.30 1182.04 315.00 1186.00 Z"/>
</g>
<g fill="#2E4E38" fill-opacity="0.69" stroke="None">
<path d="
M 367.00 1175.00 
C 347.28 1170.92 340.06 1200.22 359.33 1205.67 C 378.60 1211.12 385.64 1178.86 367.00 1175.00
M 368.00 1179.00 
C 382.06 1183.27 372.43 1208.75 358.33 1201.67 C 344.23 1194.59 353.06 1174.46 368.00 1179.00 Z"/>
</g>
<g fill="#2E4F39" fill-opacity="0.64" stroke="None">
<path d="
M 427.00 1193.00 
C 421.25 1188.36 420.40 1176.45 412.00 1176.00
C 412.34 1181.08 411.54 1188.11 412.00 1193.00 C 412.46 1197.89 409.53 1205.63 416.00 1205.00
C 416.63 1198.16 414.71 1190.09 417.00 1184.00
C 420.11 1186.78 422.08 1196.92 426.97 1196.97 C 431.87 1197.02 433.90 1186.77 437.00 1184.00
C 441.23 1189.31 433.07 1204.44 442.00 1205.00
C 442.00 1195.34 442.00 1185.66 442.00 1176.00
C 433.90 1176.71 432.29 1187.74 427.00 1193.00 Z"/>
</g>
<g fill="#2F4E39" fill-opacity="0.70" stroke="None">
<path d="
M 501.00 1205.00 
C 499.24 1195.92 494.91 1193.67 492.92 1184.08 C 490.94 1174.49 484.12 1175.95 481.98 1184.98 C 479.83 1194.00 476.84 1196.73 474.00 1205.00
C 480.01 1207.22 477.79 1199.89 481.33 1198.33 C 484.87 1196.77 491.11 1198.82 495.00 1198.00
C 496.18 1200.96 496.48 1206.35 501.00 1205.00
M 488.00 1182.00 
C 489.99 1186.25 491.89 1190.46 493.00 1195.00
C 489.33 1195.00 485.67 1195.00 482.00 1195.00
C 484.57 1190.92 484.97 1185.55 488.00 1182.00 Z"/>
</g>
<g fill="#2D4E37" fill-opacity="0.51" stroke="None">
<path d="
M 540.00 1179.00 
C 540.50 1179.00 541.00 1179.00 541.00 1179.00
C 538.62 1176.53 532.65 1180.15 532.00 1176.00
C 530.53 1176.27 531.11 1178.00 531.00 1179.00
C 534.00 1179.00 537.00 1179.00 540.00 1179.00 Z"/>
</g>
<g fill="#2C4E37" fill-opacity="0.82" stroke="None">
<path d="
M 541.00 1179.00 
C 541.78 1187.60 540.42 1196.38 541.00 1205.00
C 542.00 1205.00 543.00 1205.00 544.00 1205.00
C 544.00 1196.33 544.00 1187.67 544.00 1179.00
C 547.15 1178.14 554.66 1181.30 554.00 1176.00
C 548.04 1178.38 537.50 1172.83 532.00 1176.00
C 532.65 1180.15 538.62 1176.53 541.00 1179.00 Z"/>
</g>
<g fill="#2D4E38" fill-opacity="0.75" stroke="None">
<path d="
M 606.00 1183.00 
C 607.95 1182.82 606.62 1201.22 607.00 1205.00
C 608.00 1205.00 609.00 1205.00 610.00 1205.00
C 610.00 1195.34 610.00 1185.66 610.00 1176.00
C 600.26 1178.54 597.30 1192.31 590.00 1199.00
C 588.30 1192.03 593.58 1178.93 587.00 1176.00
C 587.00 1185.67 587.00 1195.33 587.00 1205.00
C 592.49 1205.76 594.34 1196.89 597.70 1194.70 C 601.05 1192.51 601.99 1183.37 606.00 1183.00 Z"/>
</g>
<g fill="#2D4E38" fill-opacity="0.76" stroke="None">
<path d="
M 648.00 1176.00 
C 642.98 1177.38 644.06 1186.62 646.70 1191.30 C 649.35 1195.97 657.78 1195.27 663.00 1195.00
C 663.86 1198.15 660.70 1205.67 666.00 1205.00
C 665.55 1200.19 666.60 1193.63 666.00 1189.00 C 665.40 1184.37 668.40 1176.52 663.00 1176.00
C 663.00 1181.33 663.00 1186.67 663.00 1192.00
C 652.02 1195.11 644.95 1186.46 648.00 1176.00 Z"/>
</g>
<g fill="#2D4D38" fill-opacity="0.72" stroke="None">
<path d="
M 721.00 1192.00 
C 724.09 1194.16 720.75 1201.77 722.00 1205.00
C 723.00 1205.00 724.00 1205.00 725.00 1205.00
C 725.00 1195.34 725.00 1185.66 725.00 1176.00
C 724.15 1176.31 722.81 1175.61 722.00 1176.00
C 720.75 1179.29 724.11 1186.82 721.00 1189.00
C 716.00 1189.00 711.00 1189.00 706.00 1189.00
C 704.85 1184.82 709.11 1174.85 702.00 1176.00
C 702.34 1181.09 701.54 1188.11 702.00 1193.00 C 702.46 1197.89 699.53 1205.63 706.00 1205.00
C 706.00 1200.67 706.00 1196.33 706.00 1192.00
C 709.77 1193.76 717.65 1189.65 721.00 1192.00 Z"/>
</g>
<g fill="#555555" fill-opacity="0.01" stroke="None">
<path d="
M 721.00 1189.00 
C 724.11 1186.82 720.75 1179.29 722.00 1176.00
C 718.83 1177.54 722.29 1186.19 721.00 1189.00 Z"/>
</g>
<g fill="#2E4E39" fill-opacity="0.69" stroke="None">
<path d="
M 765.00 1176.00 
C 758.20 1175.30 761.65 1184.26 761.00 1189.00 C 760.35 1193.74 761.49 1200.12 761.00 1205.00
C 770.39 1202.73 773.64 1190.00 780.00 1183.00
C 783.99 1188.67 776.80 1202.55 784.00 1205.00
C 784.00 1195.34 784.00 1185.66 784.00 1176.00
C 775.16 1179.26 771.58 1190.71 766.00 1198.00
C 763.67 1191.66 765.66 1183.16 765.00 1176.00 Z"/>
</g>
<g fill="#2D4D38" fill-opacity="0.74" stroke="None">
<path d="
M 863.00 1179.00 
C 863.43 1177.94 876.56 1176.46 879.00 1179.00
C 879.78 1187.60 878.42 1196.38 879.00 1205.00
C 880.00 1205.00 881.00 1205.00 882.00 1205.00
C 882.00 1195.34 882.00 1185.66 882.00 1176.00
C 874.33 1176.00 866.67 1176.00 859.00 1176.00
C 859.34 1181.08 858.54 1188.11 859.00 1193.00 C 859.46 1197.89 856.53 1205.63 863.00 1205.00
C 865.27 1197.25 859.98 1186.44 863.00 1179.00 Z"/>
</g>
<g fill="#2D4E38" fill-opacity="0.75" stroke="None">
<path d="
M 921.00 1195.00 
C 929.38 1195.99 939.16 1194.95 938.33 1184.67 C 937.50 1174.40 926.18 1175.48 918.00 1176.00
C 918.45 1180.81 917.40 1187.37 918.00 1192.00 C 918.60 1196.63 915.60 1204.48 921.00 1205.00
C 921.00 1201.67 921.00 1198.33 921.00 1195.00
M 921.00 1192.00 
C 921.00 1187.67 921.00 1183.33 921.00 1179.00
C 938.32 1173.01 938.34 1197.98 921.00 1192.00 Z"/>
</g>
<g fill="#2F4E39" fill-opacity="0.70" stroke="None">
<path d="
M 995.00 1205.00 
C 993.24 1195.92 988.91 1193.67 986.92 1184.08 C 984.94 1174.48 978.12 1175.95 975.98 1184.98 C 973.83 1194.00 970.84 1196.74 968.00 1205.00
C 974.01 1207.22 971.79 1199.89 975.33 1198.33 C 978.87 1196.77 985.11 1198.82 989.00 1198.00
C 990.17 1200.96 990.48 1206.35 995.00 1205.00
M 987.00 1195.00 
C 983.33 1195.00 979.67 1195.00 976.00 1195.00
C 977.99 1190.75 979.89 1186.54 981.00 1182.00
C 984.68 1185.10 985.41 1190.60 987.00 1195.00 Z"/>
</g>
<g fill="#2E4F3A" fill-opacity="0.72" stroke="None">
<path d="
M 1031.00 1176.00 
C 1025.74 1176.48 1028.17 1186.61 1028.00 1191.00 C 1027.83 1195.39 1026.09 1204.60 1031.00 1205.00
C 1031.00 1200.67 1031.00 1196.33 1031.00 1192.00
C 1042.91 1187.40 1040.76 1205.19 1050.00 1205.00
C 1048.08 1199.74 1044.34 1195.20 1042.00 1190.00
C 1046.45 1186.91 1046.84 1180.59 1049.00 1176.00
C 1041.16 1177.13 1042.75 1192.19 1031.00 1189.00
C 1031.00 1184.67 1031.00 1180.33 1031.00 1176.00 Z"/>
</g>
<g fill="#2E4F38" fill-opacity="0.67" stroke="None">
<path d="
M 1104.00 1176.00 
C 1096.71 1177.72 1083.25 1172.39 1080.00 1179.00
C 1083.33 1179.00 1086.67 1179.00 1090.00 1179.00
C 1090.31 1183.53 1089.58 1189.62 1090.00 1194.00 C 1090.42 1198.38 1087.71 1205.99 1094.00 1205.00
C 1094.00 1196.33 1094.00 1187.67 1094.00 1179.00
C 1097.15 1178.14 1104.67 1181.30 1104.00 1176.00 Z"/>
</g>
<g fill="#2D4E38" fill-opacity="0.63" stroke="None">
<path d="
M 1140.00 1176.00 
C 1133.20 1175.30 1136.65 1184.26 1136.00 1189.00 C 1135.35 1193.74 1136.49 1200.11 1136.00 1205.00
C 1145.62 1202.90 1148.93 1190.15 1155.00 1183.00
C 1159.29 1188.61 1150.99 1204.16 1160.00 1205.00
C 1160.00 1195.34 1160.00 1185.66 1160.00 1176.00
C 1150.49 1178.17 1147.33 1191.01 1141.00 1198.00
C 1138.67 1191.66 1140.66 1183.17 1140.00 1176.00 Z"/>
</g>
<g fill="#2D4E39" fill-opacity="0.73" stroke="None">
<path d="
M 1199.00 1176.00 
C 1193.74 1176.48 1196.17 1186.61 1196.00 1191.00 C 1195.83 1195.39 1194.09 1204.60 1199.00 1205.00
C 1199.00 1200.67 1199.00 1196.33 1199.00 1192.00
C 1210.82 1187.46 1209.09 1204.91 1218.00 1205.00
C 1216.30 1199.61 1212.50 1195.11 1210.00 1190.00
C 1214.62 1186.98 1215.18 1180.71 1217.00 1176.00
C 1209.81 1177.43 1210.67 1192.37 1199.00 1189.00
C 1199.00 1184.67 1199.00 1180.33 1199.00 1176.00 Z"/>
</g>
<g fill="#2D4E38" fill-opacity="0.75" stroke="None">
<path d="
M 1271.00 1183.00 
C 1272.95 1182.82 1271.62 1201.22 1272.00 1205.00
C 1273.00 1205.00 1274.00 1205.00 1275.00 1205.00
C 1275.00 1195.34 1275.00 1185.66 1275.00 1176.00
C 1265.26 1178.53 1262.30 1192.31 1255.00 1199.00
C 1253.31 1192.03 1258.58 1178.93 1252.00 1176.00
C 1252.00 1185.67 1252.00 1195.33 1252.00 1205.00
C 1257.49 1205.76 1259.34 1196.89 1262.70 1194.70 C 1266.05 1192.51 1266.99 1183.37 1271.00 1183.00 Z"/>
</g>
<g fill="#2D4E37" fill-opacity="0.44" stroke="None">
<path d="
M 863.00 1179.00 
C 867.02 1180.31 873.74 1179.00 878.00 1179.00
C 878.50 1179.00 879.00 1179.00 879.00 1179.00
C 876.56 1176.46 863.43 1177.94 863.00 1179.00 Z"/>
</g>
<g fill="#000000" fill-opacity="0.00" stroke="None">
<path d="
M 368.00 1179.00 
C 353.06 1174.46 344.23 1194.59 358.33 1201.67 C 372.43 1208.75 382.06 1183.27 368.00 1179.00 Z"/>
</g>
<g fill="#33664C" fill-opacity="0.04" stroke="None">
<path d="
M 541.00 1205.00 
C 540.42 1196.38 541.78 1187.60 541.00 1179.00
C 541.00 1179.00 540.50 1179.00 540.00 1179.00
C 539.68 1182.55 539.74 1189.76 540.00 1193.00 C 540.26 1196.24 538.38 1203.73 541.00 1205.00 Z"/>
</g>
<g fill="#555555" fill-opacity="0.01" stroke="None">
<path d="
M 879.00 1205.00 
C 878.42 1196.38 879.78 1187.60 879.00 1179.00
C 879.00 1179.00 878.50 1179.00 878.00 1179.00
C 877.68 1182.55 877.74 1189.76 878.00 1193.00 C 878.26 1196.24 876.38 1203.73 879.00 1205.00 Z"/>
</g>
<g fill="#000000" fill-opacity="0.00" stroke="None">
<path d="
M 921.00 1192.00 
C 938.34 1197.98 938.32 1173.01 921.00 1179.00
C 921.00 1183.33 921.00 1187.67 921.00 1192.00 Z"/>
</g>
<g fill="#000000" fill-opacity="0.00" stroke="None">
<path d="
M 488.00 1182.00 
C 484.97 1185.55 484.57 1190.92 482.00 1195.00
C 485.67 1195.00 489.33 1195.00 493.00 1195.00
C 491.89 1190.46 489.99 1186.25 488.00 1182.00 Z"/>
</g>
<g fill="#555555" fill-opacity="0.02" stroke="None">
<path d="
M 606.00 1183.00 
C 605.10 1185.74 606.16 1192.34 606.00 1195.00 C 605.84 1197.66 604.89 1203.97 607.00 1205.00
C 606.62 1201.22 607.95 1182.82 606.00 1183.00 Z"/>
</g>
<g fill="#000000" fill-opacity="0.00" stroke="None">
<path d="
M 987.00 1195.00 
C 985.41 1190.60 984.68 1185.10 981.00 1182.00
C 979.89 1186.54 977.99 1190.75 976.00 1195.00
C 979.67 1195.00 983.33 1195.00 987.00 1195.00 Z"/>
</g>
<g fill="#555555" fill-opacity="0.02" stroke="None">
<path d="
M 1271.00 1183.00 
C 1270.10 1185.74 1271.16 1192.34 1271.00 1195.00 C 1270.84 1197.66 1269.89 1203.97 1272.00 1205.00
C 1271.62 1201.22 1272.95 1182.82 1271.00 1183.00 Z"/>
</g>
<g fill="#555555" fill-opacity="0.01" stroke="None">
<path d="
M 722.00 1205.00 
C 720.75 1201.77 724.09 1194.16 721.00 1192.00
C 722.28 1194.74 718.87 1203.48 722.00 1205.00 Z"/>
</g>
</svg>