<svg xmlns="http://www.w3.org/2000/svg" xmlns:v="https://svgstorm.com"
viewBox = "0 0 1563 1563"
width="1563"
height="1563">
<g fill="None" fill-opacity="0.0" stroke="#FEFEFE" stroke-opacity="1.00" stroke-width="0.3"><path d="
M 0.00 1563.00 
L 1563.00 1563.00
L 1563.00 0.00
L 0.00 0.00
L 0.00 1563.00
M 800.00 388.00 
C 768.27 372.30 734.41 379.69 715.08 411.08 C 695.74 442.46 723.26 471.47 731.93 502.07 C 740.59 532.68 712.93 570.24 681.99 573.99 C 651.06 577.75 613.90 583.48 600.08 616.08 C 586.25 648.67 587.86 683.63 577.00 717.00
C 580.86 683.09 575.41 637.84 590.31 606.31 C 605.20 574.77 635.04 560.50 669.02 559.02 C 703.01 557.54 728.24 515.85 707.70 486.31 C 687.15 456.76 687.65 421.03 711.25 395.25 C 734.85 369.47 774.01 365.36 800.00 388.00
M 653.00 387.00 
C 551.46 431.92 480.04 534.79 480.00 646.00 C 479.96 757.21 550.07 864.87 656.00 903.00
C 686.12 851.98 676.14 785.13 659.00 732.00
C 654.40 749.18 640.22 764.71 624.00 772.00
C 641.97 752.37 655.94 726.29 648.00 699.00
C 650.92 697.72 653.90 696.75 657.00 696.00
C 679.82 761.45 700.92 841.94 664.00 907.00
C 731.23 930.41 810.02 925.96 874.00 896.00
C 844.24 832.35 864.13 758.05 886.00 696.00
C 889.91 696.08 893.19 698.43 897.00 699.00
C 885.84 726.30 904.29 751.70 920.00 772.00
C 903.59 765.85 891.02 750.48 886.00 734.00
C 870.78 782.89 861.22 841.55 882.00 891.00
C 897.28 883.66 911.24 874.54 924.75 863.75 C 938.26 852.96 949.02 843.97 961.25 830.25 C 973.48 816.52 985.19 803.75 986.00 784.00 C 986.81 764.25 989.84 738.25 988.22 717.78 C 986.60 697.31 985.44 673.96 981.02 654.98 C 976.61 635.99 971.49 617.76 964.23 600.77 C 956.97 583.78 949.94 569.52 940.08 554.92 C 930.22 540.32 921.25 528.36 909.25 515.75 C 897.25 503.14 884.77 492.00 873.00 481.00
C 972.26 544.82 1012.85 666.14 996.00 780.00
C 1055.84 679.05 1035.88 540.25 958.00 454.00
C 988.50 481.61 1004.50 508.97 1020.98 546.03 C 1037.45 583.08 1044.25 638.60 1039.01 680.01 C 1033.77 721.42 1021.34 762.53 999.70 796.70 C 978.05 830.86 957.97 853.20 925.75 877.75 C 893.53 902.31 858.82 916.77 818.93 926.93 C 779.03 937.08 719.20 935.76 679.98 924.02 C 640.75 912.29 608.56 897.54 576.92 872.08 C 545.27 846.62 525.78 822.53 505.23 787.77 C 484.67 753.01 473.09 708.72 470.00 667.00 C 466.91 625.28 475.33 572.48 491.92 535.92 C 508.52 499.37 527.15 471.51 555.75 443.75 C 584.36 416.00 616.50 395.54 653.00 387.00
M 1006.00 422.00 
C 1017.26 425.02 1015.98 445.75 1014.01 454.01 C 1012.04 462.26 1003.51 477.96 992.33 473.67 C 981.15 469.38 983.04 451.45 984.98 442.98 C 986.91 434.50 994.84 419.00 1006.00 422.00
M 862.00 474.00 
C 853.91 477.03 841.12 471.77 835.75 466.25 C 830.38 460.72 823.15 444.60 829.32 438.32 C 835.49 432.04 849.84 440.42 855.25 445.75 C 860.65 451.09 865.93 465.79 862.00 474.00
M 903.00 437.00 
C 911.89 439.25 915.07 455.53 915.00 463.00 C 914.93 470.47 910.10 487.71 899.33 485.67 C 888.55 483.63 887.18 468.36 887.00 460.00 C 886.82 451.64 890.98 433.95 903.00 437.00
M 1055.00 480.00 
C 1067.11 483.67 1059.43 502.60 1052.25 508.25 C 1045.07 513.90 1033.70 525.95 1022.33 520.67 C 1010.96 515.39 1017.43 499.67 1024.75 492.75 C 1032.07 485.84 1043.48 476.50 1055.00 480.00
M 957.00 482.00 
C 964.80 499.81 948.40 521.26 929.00 519.00
C 920.55 500.91 937.35 479.18 957.00 482.00
M 861.00 490.00 
C 869.52 490.71 881.01 498.61 873.75 507.75 C 866.48 516.89 856.91 514.66 847.00 516.00 C 837.09 517.34 827.97 506.37 835.25 499.25 C 842.53 492.13 851.16 489.18 861.00 490.00
M 986.00 522.00 
C 996.23 524.75 991.85 543.06 987.08 549.08 C 982.30 555.09 973.28 567.74 963.33 563.67 C 953.38 559.60 957.79 544.26 962.31 537.31 C 966.82 530.35 976.03 519.32 986.00 522.00
M 895.00 525.00 
C 913.52 528.01 905.80 545.64 894.31 550.31 C 882.81 554.97 859.74 554.52 860.00 540.00 C 860.26 525.48 885.37 523.44 895.00 525.00
M 1081.00 541.00 
C 1091.68 544.24 1084.73 564.48 1077.75 569.75 C 1070.76 575.01 1058.52 586.60 1047.78 581.22 C 1037.03 575.84 1042.67 560.24 1050.25 553.25 C 1057.83 546.26 1069.27 537.44 1081.00 541.00
M 888.00 581.00 
C 891.61 573.77 894.83 568.51 902.70 564.70 C 910.56 560.89 920.33 561.35 928.69 565.31 C 937.06 569.26 939.27 574.50 932.25 581.25 C 925.23 588.00 919.52 591.22 910.00 591.00 C 900.48 590.78 894.87 586.96 888.00 581.00
M 200.00 1007.00 
C 199.65 1009.81 199.81 1013.18 200.00 1016.00
C 201.11 1032.34 219.59 1038.28 233.08 1043.92 C 246.56 1049.57 261.42 1060.09 262.00 1077.00
C 262.36 1079.54 262.45 1081.48 262.00 1084.00
C 261.35 1094.26 254.42 1102.30 246.30 1108.30 C 238.19 1114.31 224.14 1117.99 214.00 1116.00 C 203.86 1114.01 190.03 1112.69 188.00 1102.00
C 195.70 1107.51 204.33 1111.85 214.00 1112.00
C 217.59 1112.19 221.41 1112.20 225.00 1112.00
C 240.83 1111.14 254.14 1095.97 251.00 1080.00 C 247.86 1064.03 233.57 1058.02 219.92 1053.08 C 206.28 1048.13 192.05 1040.66 189.01 1024.99 C 185.96 1009.33 193.11 994.09 207.70 987.70 C 222.28 981.30 243.99 981.69 253.00 994.00
C 236.21 984.18 204.33 982.42 200.00 1007.00
M 698.00 1110.00 
C 696.13 1113.06 683.88 1111.18 682.00 1109.00
C 676.76 1102.93 676.44 1091.91 672.07 1084.93 C 667.71 1077.94 665.26 1068.55 662.00 1061.00
C 651.55 1059.78 641.49 1062.62 631.00 1061.00 C 620.51 1059.38 612.42 1061.44 609.68 1070.68 C 606.94 1079.92 603.43 1084.25 600.08 1092.08 C 596.72 1099.90 594.77 1109.59 587.00 1111.00
C 605.21 1068.53 624.79 1026.49 643.00 984.00
C 663.06 1024.72 679.77 1068.07 698.00 1110.00
M 772.00 1007.00 
C 771.65 1009.81 771.81 1013.18 772.00 1016.00
C 773.11 1032.35 791.59 1038.28 805.08 1043.92 C 818.56 1049.57 833.42 1060.08 834.00 1077.00
C 834.36 1079.54 834.45 1081.48 834.00 1084.00
C 833.35 1094.26 826.42 1102.30 818.30 1108.30 C 810.19 1114.31 796.14 1117.99 786.00 1116.00 C 775.86 1114.01 762.03 1112.69 760.00 1102.00
C 767.70 1107.51 776.33 1111.85 786.00 1112.00
C 789.59 1112.19 793.41 1112.20 797.00 1112.00
C 812.83 1111.14 826.14 1095.97 823.00 1080.00 C 819.86 1064.03 805.57 1058.02 791.92 1053.08 C 778.28 1048.13 764.05 1040.65 761.01 1024.99 C 757.97 1009.33 765.11 994.09 779.70 987.70 C 794.28 981.30 815.98 981.68 825.00 994.00
C 808.21 984.18 776.33 982.42 772.00 1007.00
M 413.00 1044.00 
C 413.43 1048.48 413.64 1053.54 413.00 1058.00
C 411.04 1109.42 347.45 1128.15 307.75 1105.25 C 268.06 1082.34 267.30 1015.69 308.25 993.25 C 349.20 970.80 413.00 992.26 413.00 1044.00
M 448.00 985.00 
C 464.83 1019.91 484.46 1053.90 501.00 1089.00
C 521.28 1055.60 537.81 1019.34 557.00 985.00
C 563.24 1026.28 567.40 1068.95 572.00 1111.00
C 567.33 1111.00 562.67 1111.00 558.00 1111.00
C 553.64 1078.18 550.80 1044.32 546.00 1012.00
C 529.99 1044.25 512.52 1075.91 496.00 1108.00
C 478.64 1077.63 462.46 1045.60 447.00 1014.00
C 440.82 1045.53 438.34 1078.89 433.00 1111.00
C 427.20 1106.97 432.21 1095.74 432.78 1087.78 C 433.34 1079.82 435.20 1070.31 436.00 1062.00 C 436.80 1053.69 438.95 1044.41 439.99 1035.99 C 441.03 1027.57 441.74 1018.34 443.00 1010.00 C 444.25 1001.66 444.45 991.16 448.00 985.00
M 1316.00 985.00 
C 1353.62 991.11 1376.05 1022.59 1370.22 1061.22 C 1364.40 1099.85 1329.47 1118.66 1291.78 1114.22 C 1254.08 1109.79 1230.53 1075.88 1236.00 1038.00 C 1241.47 1000.12 1279.10 979.00 1316.00 985.00
M 939.00 990.00 
C 937.17 993.76 925.52 989.86 921.00 991.00 C 916.48 992.14 906.05 990.14 901.00 991.00
C 897.87 995.47 902.42 1005.32 901.00 1011.00 C 899.58 1016.68 901.64 1024.78 901.00 1031.00 C 900.36 1037.22 901.29 1044.54 901.00 1051.00 C 900.71 1057.46 901.13 1064.43 901.00 1071.00 C 900.87 1077.57 901.07 1084.38 901.00 1091.00 C 900.93 1097.62 901.05 1104.37 901.00 1111.00
C 896.33 1111.00 891.67 1111.00 887.00 1111.00
C 883.01 1108.21 887.14 1097.20 886.00 1092.00 C 884.86 1086.80 886.51 1078.02 886.00 1072.00 C 885.49 1065.98 886.23 1058.40 886.00 1052.00 C 885.77 1045.61 886.11 1038.59 886.00 1032.00 C 885.89 1025.41 886.05 1018.74 886.00 1012.00 C 885.95 1005.26 886.04 997.81 886.00 991.00
C 879.95 990.54 870.73 991.61 865.00 991.00 C 859.27 990.39 847.34 993.76 849.00 987.00
C 854.37 983.66 864.42 988.45 871.00 987.00 C 877.58 985.55 886.93 987.70 894.00 987.00 C 901.07 986.30 908.69 987.35 916.00 987.00 C 923.31 986.65 931.60 987.26 939.00 987.00
C 939.00 988.00 939.00 989.00 939.00 990.00
M 1048.00 987.00 
C 1051.45 988.68 1048.07 998.85 1049.00 1003.00 C 1049.93 1007.15 1048.51 1015.02 1049.00 1020.00 C 1049.49 1024.98 1048.62 1031.65 1049.00 1037.00 C 1049.38 1042.35 1048.47 1048.50 1049.00 1054.00 C 1049.53 1059.50 1048.46 1066.23 1048.00 1071.00
C 1048.00 1098.00 1029.21 1113.03 1003.00 1114.00 C 976.79 1114.97 956.07 1100.88 955.00 1073.00
C 954.12 1066.86 953.54 1058.79 954.00 1052.00 C 954.46 1045.21 953.34 1036.50 954.00 1030.00 C 954.66 1023.50 952.69 1013.66 954.00 1008.00 C 955.31 1002.34 950.70 990.01 955.00 987.00
C 958.13 984.81 965.48 988.65 969.00 987.00
C 971.51 1018.01 963.99 1060.86 972.77 1089.23 C 981.55 1117.60 1030.02 1116.83 1040.30 1089.31 C 1050.59 1061.78 1042.31 1017.57 1045.00 987.00
C 1046.00 987.00 1047.00 987.00 1048.00 987.00
M 1067.00 1111.00 
C 1067.00 1069.67 1067.00 1028.34 1067.00 987.00
C 1097.66 989.15 1145.30 978.36 1166.75 1004.25 C 1188.20 1030.14 1187.02 1065.96 1165.25 1091.25 C 1143.47 1116.53 1098.42 1110.86 1067.00 1111.00
M 1215.00 1111.00 
C 1211.87 1113.19 1204.52 1109.36 1201.00 1111.00
C 1201.00 1069.67 1201.00 1028.34 1201.00 987.00
C 1205.67 987.00 1210.33 987.00 1215.00 987.00
C 1219.09 989.86 1214.86 1001.64 1216.00 1007.00 C 1217.14 1012.36 1215.57 1021.85 1216.00 1028.00 C 1216.43 1034.15 1216.00 1042.64 1216.00 1049.00 C 1216.00 1055.36 1216.43 1063.84 1216.00 1070.00 C 1215.57 1076.16 1217.14 1085.61 1216.00 1091.00 C 1214.86 1096.39 1219.07 1108.15 1215.00 1111.00 Z"/>
</g>
<g fill="None" fill-opacity="0.0" stroke="#2E4F39" stroke-opacity="1.00" stroke-width="0.3"><path d="
M 800.00 388.00 
C 774.01 365.36 734.85 369.47 711.25 395.25 C 687.65 421.03 687.15 456.76 707.70 486.31 C 728.24 515.85 703.01 557.54 669.02 559.02 C 635.04 560.50 605.20 574.77 590.31 606.31 C 575.41 637.84 580.86 683.09 577.00 717.00
C 587.86 683.63 586.25 648.67 600.08 616.08 C 613.90 583.48 651.06 577.75 681.99 573.99 C 712.93 570.24 740.59 532.68 731.93 502.07 C 723.26 471.47 695.74 442.46 715.08 411.08 C 734.41 379.69 768.27 372.30 800.00 388.00 Z"/>
</g>
<g fill="None" fill-opacity="0.0" stroke="#2F4F3A" stroke-opacity="1.00" stroke-width="0.3"><path d="
M 653.00 387.00 
C 616.50 395.54 584.36 416.00 555.75 443.75 C 527.15 471.51 508.52 499.37 491.92 535.92 C 475.33 572.48 466.91 625.28 470.00 667.00 C 473.09 708.72 484.67 753.01 505.23 787.77 C 525.78 822.53 545.27 846.62 576.92 872.08 C 608.56 897.54 640.75 912.29 679.98 924.02 C 719.20 935.76 779.03 937.08 818.93 926.93 C 858.82 916.77 893.53 902.31 925.75 877.75 C 957.97 853.20 978.05 830.86 999.70 796.70 C 1021.34 762.53 1033.77 721.42 1039.01 680.01 C 1044.25 638.60 1037.45 583.08 1020.98 546.03 C 1004.50 508.97 988.50 481.61 958.00 454.00
C 1035.88 540.25 1055.84 679.05 996.00 780.00
C 1012.85 666.14 972.26 544.82 873.00 481.00
C 884.77 492.00 897.25 503.14 909.25 515.75 C 921.25 528.36 930.22 540.32 940.08 554.92 C 949.94 569.52 956.97 583.78 964.23 600.77 C 971.49 617.76 976.61 635.99 981.02 654.98 C 985.44 673.96 986.60 697.31 988.22 717.78 C 989.84 738.25 986.81 764.25 986.00 784.00 C 985.19 803.75 973.48 816.52 961.25 830.25 C 949.02 843.97 938.26 852.96 924.75 863.75 C 911.24 874.54 897.28 883.66 882.00 891.00
C 861.22 841.55 870.78 782.89 886.00 734.00
C 891.02 750.48 903.59 765.85 920.00 772.00
C 904.29 751.70 885.84 726.30 897.00 699.00
C 893.19 698.43 889.91 696.08 886.00 696.00
C 864.13 758.05 844.24 832.35 874.00 896.00
C 810.02 925.96 731.23 930.41 664.00 907.00
C 700.92 841.94 679.82 761.45 657.00 696.00
C 653.90 696.75 650.92 697.72 648.00 699.00
C 655.94 726.29 641.97 752.37 624.00 772.00
C 640.22 764.71 654.40 749.18 659.00 732.00
C 676.14 785.13 686.12 851.98 656.00 903.00
C 550.07 864.87 479.96 757.21 480.00 646.00 C 480.04 534.79 551.46 431.92 653.00 387.00 Z"/>
</g>
<g fill="None" fill-opacity="0.0" stroke="#2E4E38" stroke-opacity="1.00" stroke-width="0.3"><path d="
M 1006.00 422.00 
C 994.84 419.00 986.91 434.50 984.98 442.98 C 983.04 451.45 981.15 469.38 992.33 473.67 C 1003.51 477.96 1012.04 462.26 1014.01 454.01 C 1015.98 445.75 1017.26 425.02 1006.00 422.00 Z"/>
</g>
<g fill="None" fill-opacity="0.0" stroke="#2E4F39" stroke-opacity="1.00" stroke-width="0.3"><path d="
M 862.00 474.00 
C 865.93 465.79 860.65 451.09 855.25 445.75 C 849.84 440.42 835.49 432.04 829.32 438.32 C 823.15 444.60 830.38 460.72 835.75 466.25 C 841.12 471.77 853.91 477.03 862.00 474.00 Z"/>
</g>
<g fill="None" fill-opacity="0.0" stroke="#2E4F39" stroke-opacity="1.00" stroke-width="0.3"><path d="
M 903.00 437.00 
C 890.98 433.95 886.82 451.64 887.00 460.00 C 887.18 468.36 888.55 483.63 899.33 485.67 C 910.10 487.71 914.93 470.47 915.00 463.00 C 915.07 455.53 911.89 439.25 903.00 437.00 Z"/>
</g>
<g fill="None" fill-opacity="0.0" stroke="#2E4E38" stroke-opacity="1.00" stroke-width="0.3"><path d="
M 1055.00 480.00 
C 1043.48 476.50 1032.07 485.84 1024.75 492.75 C 1017.43 499.67 1010.96 515.39 1022.33 520.67 C 1033.70 525.95 1045.07 513.90 1052.25 508.25 C 1059.43 502.60 1067.11 483.67 1055.00 480.00 Z"/>
</g>
<g fill="None" fill-opacity="0.0" stroke="#2E4F39" stroke-opacity="1.00" stroke-width="0.3"><path d="
M 957.00 482.00 
C 937.35 479.18 920.55 500.91 929.00 519.00
C 948.40 521.26 964.80 499.81 957.00 482.00 Z"/>
</g>
<g fill="None" fill-opacity="0.0" stroke="#2E4F39" stroke-opacity="1.00" stroke-width="0.3"><path d="
M 861.00 490.00 
C 851.16 489.18 842.53 492.13 835.25 499.25 C 827.97 506.37 837.09 517.34 847.00 516.00 C 856.91 514.66 866.48 516.89 873.75 507.75 C 881.01 498.61 869.52 490.71 861.00 490.00 Z"/>
</g>
<g fill="None" fill-opacity="0.0" stroke="#2E4F39" stroke-opacity="1.00" stroke-width="0.3"><path d="
M 986.00 522.00 
C 976.03 519.32 966.82 530.35 962.31 537.31 C 957.79 544.26 953.38 559.60 963.33 563.67 C 973.28 567.74 982.30 555.09 987.08 549.08 C 991.85 543.06 996.23 524.75 986.00 522.00 Z"/>
</g>
<g fill="None" fill-opacity="0.0" stroke="#2E4E39" stroke-opacity="1.00" stroke-width="0.3"><path d="
M 895.00 525.00 
C 885.37 523.44 860.26 525.48 860.00 540.00 C 859.74 554.52 882.81 554.97 894.31 550.31 C 905.80 545.64 913.52 528.01 895.00 525.00 Z"/>
</g>
<g fill="None" fill-opacity="0.0" stroke="#2E4E39" stroke-opacity="1.00" stroke-width="0.3"><path d="
M 1081.00 541.00 
C 1069.27 537.44 1057.83 546.26 1050.25 553.25 C 1042.67 560.24 1037.03 575.84 1047.78 581.22 C 1058.52 586.60 1070.76 575.01 1077.75 569.75 C 1084.73 564.48 1091.68 544.24 1081.00 541.00 Z"/>
</g>
<g fill="None" fill-opacity="0.0" stroke="#2E4F39" stroke-opacity="1.00" stroke-width="0.3"><path d="
M 888.00 581.00 
C 894.87 586.96 900.48 590.78 910.00 591.00 C 919.52 591.22 925.23 588.00 932.25 581.25 C 939.27 574.50 937.06 569.26 928.69 565.31 C 920.33 561.35 910.56 560.89 902.70 564.70 C 894.83 568.51 891.61 573.77 888.00 581.00 Z"/>
</g>
<g fill="None" fill-opacity="0.0" stroke="#C58D28" stroke-opacity="1.00" stroke-width="0.3"><path d="
M 225.00 1112.00 
C 221.26 1112.61 217.67 1112.60 214.00 1112.00
C 204.33 1111.85 195.70 1107.51 188.00 1102.00
C 190.03 1112.69 203.86 1114.01 214.00 1116.00 C 224.14 1117.99 238.19 1114.31 246.30 1108.30 C 254.42 1102.30 261.35 1094.26 262.00 1084.00
C 262.15 1081.71 262.08 1079.30 262.00 1077.00
C 261.42 1060.09 246.56 1049.57 233.08 1043.92 C 219.59 1038.28 201.11 1032.34 200.00 1016.00
C 199.42 1012.76 199.20 1010.24 200.00 1007.00
C 204.33 982.42 236.21 984.18 253.00 994.00
C 243.99 981.69 222.28 981.30 207.70 987.70 C 193.11 994.09 185.96 1009.33 189.01 1024.99 C 192.05 1040.66 206.28 1048.13 219.92 1053.08 C 233.57 1058.02 247.86 1064.03 251.00 1080.00 C 254.14 1095.97 240.83 1111.14 225.00 1112.00 Z"/>
</g>
<g fill="None" fill-opacity="0.0" stroke="#C58D28" stroke-opacity="1.00" stroke-width="0.3"><path d="
M 682.00 1109.00 
C 685.93 1112.26 693.43 1108.63 698.00 1110.00
C 679.77 1068.07 663.06 1024.72 643.00 984.00
C 624.79 1026.49 605.21 1068.53 587.00 1111.00
C 594.77 1109.59 596.72 1099.90 600.08 1092.08 C 603.43 1084.25 606.94 1079.92 609.68 1070.68 C 612.42 1061.44 620.51 1059.38 631.00 1061.00 C 641.49 1062.62 651.55 1059.78 662.00 1061.00
C 665.26 1068.55 667.71 1077.94 672.07 1084.93 C 676.44 1091.91 676.76 1102.93 682.00 1109.00
M 639.00 1007.00 
C 645.03 1024.32 653.75 1040.73 660.00 1058.00
C 645.33 1058.00 630.67 1058.00 616.00 1058.00
C 622.50 1040.93 629.84 1021.80 639.00 1007.00 Z"/>
</g>
<g fill="None" fill-opacity="0.0" stroke="#C58D28" stroke-opacity="1.00" stroke-width="0.3"><path d="
M 797.00 1112.00 
C 793.26 1112.61 789.67 1112.60 786.00 1112.00
C 776.33 1111.85 767.70 1107.51 760.00 1102.00
C 762.03 1112.69 775.86 1114.01 786.00 1116.00 C 796.14 1117.99 810.19 1114.31 818.30 1108.30 C 826.42 1102.30 833.35 1094.26 834.00 1084.00
C 834.15 1081.71 834.08 1079.30 834.00 1077.00
C 833.42 1060.08 818.56 1049.57 805.08 1043.92 C 791.59 1038.28 773.11 1032.35 772.00 1016.00
C 771.42 1012.76 771.20 1010.24 772.00 1007.00
C 776.33 982.42 808.21 984.18 825.00 994.00
C 815.98 981.68 794.28 981.30 779.70 987.70 C 765.11 994.09 757.97 1009.33 761.01 1024.99 C 764.05 1040.65 778.28 1048.13 791.92 1053.08 C 805.57 1058.02 819.86 1064.03 823.00 1080.00 C 826.14 1095.97 812.83 1111.14 797.00 1112.00 Z"/>
</g>
<g fill="None" fill-opacity="0.0" stroke="#C58D28" stroke-opacity="1.00" stroke-width="0.3"><path d="
M 413.00 1058.00 
C 413.18 1053.35 413.00 1048.66 413.00 1044.00
C 413.00 992.26 349.20 970.80 308.25 993.25 C 267.30 1015.69 268.06 1082.34 307.75 1105.25 C 347.45 1128.15 411.04 1109.42 413.00 1058.00
M 351.00 989.00 
C 415.43 990.29 415.96 1108.52 351.00 1111.00
C 347.32 1111.53 343.62 1111.52 340.00 1111.00
C 274.04 1108.48 276.91 990.32 343.00 989.00
C 345.66 988.68 348.40 988.69 351.00 989.00 Z"/>
</g>
<g fill="None" fill-opacity="0.0" stroke="#C58E29" stroke-opacity="1.00" stroke-width="0.3"><path d="
M 448.00 985.00 
C 444.45 991.16 444.25 1001.66 443.00 1010.00 C 441.74 1018.34 441.03 1027.57 439.99 1035.99 C 438.95 1044.41 436.80 1053.69 436.00 1062.00 C 435.20 1070.31 433.34 1079.82 432.78 1087.78 C 432.21 1095.74 427.20 1106.97 433.00 1111.00
C 438.34 1078.89 440.82 1045.53 447.00 1014.00
C 462.46 1045.60 478.64 1077.63 496.00 1108.00
C 512.52 1075.91 529.99 1044.25 546.00 1012.00
C 550.80 1044.32 553.64 1078.18 558.00 1111.00
C 562.67 1111.00 567.33 1111.00 572.00 1111.00
C 567.40 1068.95 563.24 1026.28 557.00 985.00
C 537.81 1019.34 521.28 1055.60 501.00 1089.00
C 484.46 1053.90 464.83 1019.91 448.00 985.00 Z"/>
</g>
<g fill="None" fill-opacity="0.0" stroke="#C58D27" stroke-opacity="1.00" stroke-width="0.3"><path d="
M 1316.00 985.00 
C 1279.10 979.00 1241.47 1000.12 1236.00 1038.00 C 1230.53 1075.88 1254.08 1109.79 1291.78 1114.22 C 1329.47 1118.66 1364.40 1099.85 1370.22 1061.22 C 1376.05 1022.59 1353.62 991.11 1316.00 985.00
M 1310.00 989.00 
C 1339.13 991.31 1356.00 1017.31 1356.00 1045.00
C 1356.43 1049.45 1356.53 1054.59 1356.00 1059.00
C 1355.47 1085.67 1337.79 1109.49 1310.00 1111.00
C 1305.99 1111.65 1301.93 1111.56 1298.00 1111.00
C 1269.88 1109.93 1252.03 1086.91 1251.00 1060.00
C 1250.10 1053.66 1250.10 1046.27 1251.00 1040.00
C 1251.99 1014.12 1270.36 991.11 1297.00 989.00
C 1301.33 988.16 1305.73 988.18 1310.00 989.00 Z"/>
</g>
<g fill="None" fill-opacity="0.0" stroke="#E2D5AB" stroke-opacity="1.00" stroke-width="0.3"><path d="
M 887.00 1111.00 
C 887.00 1070.67 887.00 1030.34 887.00 990.00
C 874.33 990.00 861.67 990.00 849.00 990.00
C 849.00 989.00 849.00 988.00 849.00 987.00
C 847.34 993.76 859.27 990.39 865.00 991.00 C 870.73 991.61 879.95 990.54 886.00 991.00
C 886.04 997.81 885.95 1005.26 886.00 1012.00 C 886.05 1018.74 885.89 1025.41 886.00 1032.00 C 886.11 1038.59 885.77 1045.61 886.00 1052.00 C 886.23 1058.40 885.49 1065.98 886.00 1072.00 C 886.51 1078.02 884.86 1086.80 886.00 1092.00 C 887.14 1097.20 883.01 1108.21 887.00 1111.00 Z"/>
</g>
<g fill="None" fill-opacity="0.0" stroke="#C48A20" stroke-opacity="1.00" stroke-width="0.3"><path d="
M 887.00 1111.00 
C 891.67 1111.00 896.33 1111.00 901.00 1111.00
C 901.05 1104.37 900.93 1097.62 901.00 1091.00 C 901.07 1084.38 900.87 1077.57 901.00 1071.00 C 901.13 1064.43 900.71 1057.46 901.00 1051.00 C 901.29 1044.54 900.36 1037.22 901.00 1031.00 C 901.64 1024.78 899.58 1016.68 901.00 1011.00 C 902.42 1005.32 897.87 995.47 901.00 991.00
C 903.73 987.10 914.04 991.21 919.00 990.00 C 923.96 988.79 933.61 990.91 939.00 990.00
C 939.00 989.00 939.00 988.00 939.00 987.00
C 931.60 987.26 923.31 986.65 916.00 987.00 C 908.69 987.35 901.07 986.30 894.00 987.00 C 886.93 987.70 877.58 985.55 871.00 987.00 C 864.42 988.45 854.37 983.66 849.00 987.00
C 849.00 988.00 849.00 989.00 849.00 990.00
C 861.67 990.00 874.33 990.00 887.00 990.00
C 887.00 1030.34 887.00 1070.67 887.00 1111.00 Z"/>
</g>
<g fill="None" fill-opacity="0.0" stroke="#DAC88F" stroke-opacity="1.00" stroke-width="0.3"><path d="
M 955.00 1073.00 
C 953.91 1044.38 955.82 1015.63 955.00 987.00
C 950.70 990.01 955.31 1002.34 954.00 1008.00 C 952.69 1013.66 954.66 1023.50 954.00 1030.00 C 953.34 1036.50 954.46 1045.21 954.00 1052.00 C 953.54 1058.79 954.12 1066.86 955.00 1073.00 Z"/>
</g>
<g fill="None" fill-opacity="0.0" stroke="#C58D27" stroke-opacity="1.00" stroke-width="0.3"><path d="
M 955.00 1073.00 
C 956.07 1100.88 976.79 1114.97 1003.00 1114.00 C 1029.21 1113.03 1048.00 1098.00 1048.00 1071.00
C 1048.00 1043.00 1048.00 1015.00 1048.00 987.00
C 1047.00 987.00 1046.00 987.00 1045.00 987.00
C 1042.31 1017.57 1050.59 1061.78 1040.30 1089.31 C 1030.02 1116.83 981.55 1117.60 972.77 1089.23 C 963.99 1060.86 971.51 1018.01 969.00 987.00
C 965.48 988.65 958.13 984.81 955.00 987.00
C 955.82 1015.63 953.91 1044.38 955.00 1073.00 Z"/>
</g>
<g fill="None" fill-opacity="0.0" stroke="#D5BE7F" stroke-opacity="1.00" stroke-width="0.3"><path d="
M 1048.00 1071.00 
C 1048.46 1066.23 1049.53 1059.50 1049.00 1054.00 C 1048.47 1048.50 1049.38 1042.35 1049.00 1037.00 C 1048.62 1031.65 1049.49 1024.98 1049.00 1020.00 C 1048.51 1015.02 1049.93 1007.15 1049.00 1003.00 C 1048.07 998.85 1051.45 988.68 1048.00 987.00
C 1048.00 1015.00 1048.00 1043.00 1048.00 1071.00 Z"/>
</g>
<g fill="None" fill-opacity="0.0" stroke="#C58D26" stroke-opacity="1.00" stroke-width="0.3"><path d="
M 1067.00 1111.00 
C 1098.42 1110.86 1143.47 1116.53 1165.25 1091.25 C 1187.02 1065.96 1188.20 1030.14 1166.75 1004.25 C 1145.30 978.36 1097.66 989.15 1067.00 987.00
C 1067.00 1028.34 1067.00 1069.67 1067.00 1111.00
M 1118.00 991.00 
C 1184.39 992.33 1181.11 1104.51 1116.00 1107.00
C 1105.13 1108.55 1092.60 1107.92 1081.00 1108.00
C 1081.00 1068.67 1080.99 1029.33 1081.00 990.00
C 1093.17 990.67 1106.66 988.67 1118.00 991.00 Z"/>
</g>
<g fill="None" fill-opacity="0.0" stroke="#C48C25" stroke-opacity="1.00" stroke-width="0.3"><path d="
M 1215.00 1111.00 
C 1215.00 1069.67 1215.00 1028.34 1215.00 987.00
C 1210.33 987.00 1205.67 987.00 1201.00 987.00
C 1201.00 1028.34 1201.00 1069.67 1201.00 1111.00
C 1204.52 1109.36 1211.87 1113.19 1215.00 1111.00 Z"/>
</g>
<g fill="None" fill-opacity="0.0" stroke="#DAC991" stroke-opacity="1.00" stroke-width="0.3"><path d="
M 1215.00 1111.00 
C 1219.07 1108.15 1214.86 1096.39 1216.00 1091.00 C 1217.14 1085.61 1215.57 1076.16 1216.00 1070.00 C 1216.43 1063.84 1216.00 1055.36 1216.00 1049.00 C 1216.00 1042.64 1216.43 1034.15 1216.00 1028.00 C 1215.57 1021.85 1217.14 1012.36 1216.00 1007.00 C 1214.86 1001.64 1219.09 989.86 1215.00 987.00
C 1215.00 1028.34 1215.00 1069.67 1215.00 1111.00 Z"/>
</g>
<g fill="None" fill-opacity="0.0" stroke="#E4D6AC" stroke-opacity="1.00" stroke-width="0.3"><path d="
M 343.00 989.00 
C 345.66 988.95 348.34 988.95 351.00 989.00
C 348.40 988.69 345.66 988.68 343.00 989.00 Z"/>
</g>
<g fill="None" fill-opacity="0.0" stroke="#DDCA96" stroke-opacity="1.00" stroke-width="0.3"><path d="
M 1297.00 989.00 
C 1301.15 988.67 1305.85 988.67 1310.00 989.00
C 1305.73 988.18 1301.33 988.16 1297.00 989.00 Z"/>
</g>
<g fill="None" fill-opacity="0.0" stroke="#FEFEFE" stroke-opacity="1.00" stroke-width="0.3"><path d="
M 340.00 1111.00 
C 343.63 1111.14 347.37 1111.14 351.00 1111.00
C 415.96 1108.52 415.43 990.29 351.00 989.00
C 348.34 988.95 345.66 988.95 343.00 989.00
C 276.91 990.32 274.04 1108.48 340.00 1111.00 Z"/>
</g>
<g fill="None" fill-opacity="0.0" stroke="#FEFEFE" stroke-opacity="1.00" stroke-width="0.3"><path d="
M 1251.00 1040.00 
C 1250.75 1046.60 1250.75 1053.40 1251.00 1060.00
C 1252.03 1086.91 1269.88 1109.93 1298.00 1111.00
C 1301.94 1111.15 1306.06 1111.21 1310.00 1111.00
C 1337.79 1109.49 1355.47 1085.67 1356.00 1059.00
C 1356.09 1054.34 1356.00 1049.66 1356.00 1045.00
C 1356.00 1017.31 1339.13 991.31 1310.00 989.00
C 1305.85 988.67 1301.15 988.67 1297.00 989.00
C 1270.36 991.11 1251.99 1014.12 1251.00 1040.00 Z"/>
</g>
<g fill="None" fill-opacity="0.0" stroke="#E6D9B2" stroke-opacity="1.00" stroke-width="0.3"><path d="
M 901.00 991.00 
C 906.05 990.14 916.48 992.14 921.00 991.00 C 925.52 989.86 937.17 993.76 939.00 990.00
C 933.61 990.91 923.96 988.79 919.00 990.00 C 914.04 991.21 903.73 987.10 901.00 991.00 Z"/>
</g>
<g fill="None" fill-opacity="0.0" stroke="#DCCB96" stroke-opacity="1.00" stroke-width="0.3"><path d="
M 1116.00 1107.00 
C 1104.68 1107.43 1093.32 1106.68 1082.00 1107.00
C 1082.00 1068.34 1082.00 1029.66 1082.00 991.00
C 1094.00 991.00 1106.00 991.00 1118.00 991.00
C 1106.66 988.67 1093.17 990.67 1081.00 990.00
C 1080.99 1029.33 1081.00 1068.67 1081.00 1108.00
C 1092.60 1107.92 1105.13 1108.55 1116.00 1107.00 Z"/>
</g>
<g fill="None" fill-opacity="0.0" stroke="#FEFEFE" stroke-opacity="1.00" stroke-width="0.3"><path d="
M 1116.00 1107.00 
C 1181.11 1104.51 1184.39 992.33 1118.00 991.00
C 1106.00 991.00 1094.00 991.00 1082.00 991.00
C 1082.00 1029.66 1082.00 1068.34 1082.00 1107.00
C 1093.32 1106.68 1104.68 1107.43 1116.00 1107.00 Z"/>
</g>
<g fill="None" fill-opacity="0.0" stroke="#DCCA94" stroke-opacity="1.00" stroke-width="0.3"><path d="
M 200.00 1016.00 
C 199.81 1013.18 199.65 1009.81 200.00 1007.00
C 199.20 1010.24 199.42 1012.76 200.00 1016.00 Z"/>
</g>
<g fill="None" fill-opacity="0.0" stroke="#FDFCFA" stroke-opacity="1.00" stroke-width="0.3"><path d="
M 639.00 1007.00 
C 629.84 1021.80 622.50 1040.93 616.00 1058.00
C 630.67 1058.00 645.33 1058.00 660.00 1058.00
C 653.75 1040.73 645.03 1024.32 639.00 1007.00 Z"/>
</g>
<g fill="None" fill-opacity="0.0" stroke="#DCCA94" stroke-opacity="1.00" stroke-width="0.3"><path d="
M 772.00 1016.00 
C 771.81 1013.18 771.65 1009.81 772.00 1007.00
C 771.20 1010.24 771.42 1012.76 772.00 1016.00 Z"/>
</g>
<g fill="None" fill-opacity="0.0" stroke="#E1D3A7" stroke-opacity="1.00" stroke-width="0.3"><path d="
M 1251.00 1060.00 
C 1250.75 1053.40 1250.75 1046.60 1251.00 1040.00
C 1250.10 1046.27 1250.10 1053.66 1251.00 1060.00 Z"/>
</g>
<g fill="None" fill-opacity="0.0" stroke="#DFCFA0" stroke-opacity="1.00" stroke-width="0.3"><path d="
M 413.00 1058.00 
C 413.64 1053.54 413.43 1048.48 413.00 1044.00
C 413.00 1048.66 413.18 1053.35 413.00 1058.00 Z"/>
</g>
<g fill="None" fill-opacity="0.0" stroke="#E3D6AD" stroke-opacity="1.00" stroke-width="0.3"><path d="
M 1356.00 1059.00 
C 1356.53 1054.59 1356.43 1049.45 1356.00 1045.00
C 1356.00 1049.66 1356.09 1054.34 1356.00 1059.00 Z"/>
</g>
<g fill="None" fill-opacity="0.0" stroke="#E1D3A6" stroke-opacity="1.00" stroke-width="0.3"><path d="
M 262.00 1084.00 
C 262.45 1081.48 262.36 1079.54 262.00 1077.00
C 262.08 1079.30 262.15 1081.71 262.00 1084.00 Z"/>
</g>
<g fill="None" fill-opacity="0.0" stroke="#E1D3A6" stroke-opacity="1.00" stroke-width="0.3"><path d="
M 834.00 1084.00 
C 834.45 1081.48 834.36 1079.54 834.00 1077.00
C 834.08 1079.30 834.15 1081.71 834.00 1084.00 Z"/>
</g>
<g fill="None" fill-opacity="0.0" stroke="#D4BB76" stroke-opacity="1.00" stroke-width="0.3"><path d="
M 698.00 1110.00 
C 693.43 1108.63 685.93 1112.26 682.00 1109.00
C 683.88 1111.18 696.13 1113.06 698.00 1110.00 Z"/>
</g>
<g fill="None" fill-opacity="0.0" stroke="#D5BD7B" stroke-opacity="1.00" stroke-width="0.3"><path d="
M 351.00 1111.00 
C 347.37 1111.14 343.63 1111.14 340.00 1111.00
C 343.62 1111.52 347.32 1111.53 351.00 1111.00 Z"/>
</g>
<g fill="None" fill-opacity="0.0" stroke="#D4BA76" stroke-opacity="1.00" stroke-width="0.3"><path d="
M 1310.00 1111.00 
C 1306.06 1111.21 1301.94 1111.15 1298.00 1111.00
C 1301.93 1111.56 1305.99 1111.65 1310.00 1111.00 Z"/>
</g>
<g fill="None" fill-opacity="0.0" stroke="#DDCB96" stroke-opacity="1.00" stroke-width="0.3"><path d="
M 225.00 1112.00 
C 221.41 1112.20 217.59 1112.19 214.00 1112.00
C 217.67 1112.60 221.26 1112.61 225.00 1112.00 Z"/>
</g>
<g fill="None" fill-opacity="0.0" stroke="#DDCB96" stroke-opacity="1.00" stroke-width="0.3"><path d="
M 797.00 1112.00 
C 793.41 1112.20 789.59 1112.19 786.00 1112.00
C 789.67 1112.60 793.26 1112.61 797.00 1112.00 Z"/>
</g>
<g fill="#FEFEFE" fill-opacity="1.00" stroke="None">
<path d="
M 0.00 1563.00 
L 1563.00 1563.00
L 1563.00 0.00
L 0.00 0.00
L 0.00 1563.00
M 800.00 388.00 
C 768.27 372.30 734.41 379.69 715.08 411.08 C 695.74 442.46 723.26 471.47 731.93 502.07 C 740.59 532.68 712.93 570.24 681.99 573.99 C 651.06 577.75 613.90 583.48 600.08 616.08 C 586.25 648.67 587.86 683.63 577.00 717.00
C 580.86 683.09 575.41 637.84 590.31 606.31 C 605.20 574.77 635.04 560.50 669.02 559.02 C 703.01 557.54 728.24 515.85 707.70 486.31 C 687.15 456.76 687.65 421.03 711.25 395.25 C 734.85 369.47 774.01 365.36 800.00 388.00
M 653.00 387.00 
C 551.46 431.92 480.04 534.79 480.00 646.00 C 479.96 757.21 550.07 864.87 656.00 903.00
C 686.12 851.98 676.14 785.13 659.00 732.00
C 654.40 749.18 640.22 764.71 624.00 772.00
C 641.97 752.37 655.94 726.29 648.00 699.00
C 650.92 697.72 653.90 696.75 657.00 696.00
C 679.82 761.45 700.92 841.94 664.00 907.00
C 731.23 930.41 810.02 925.96 874.00 896.00
C 844.24 832.35 864.13 758.05 886.00 696.00
C 889.91 696.08 893.19 698.43 897.00 699.00
C 885.84 726.30 904.29 751.70 920.00 772.00
C 903.59 765.85 891.02 750.48 886.00 734.00
C 870.78 782.89 861.22 841.55 882.00 891.00
C 897.28 883.66 911.24 874.54 924.75 863.75 C 938.26 852.96 949.02 843.97 961.25 830.25 C 973.48 816.52 985.19 803.75 986.00 784.00 C 986.81 764.25 989.84 738.25 988.22 717.78 C 986.60 697.31 985.44 673.96 981.02 654.98 C 976.61 635.99 971.49 617.76 964.23 600.77 C 956.97 583.78 949.94 569.52 940.08 554.92 C 930.22 540.32 921.25 528.36 909.25 515.75 C 897.25 503.14 884.77 492.00 873.00 481.00
C 972.26 544.82 1012.85 666.14 996.00 780.00
C 1055.84 679.05 1035.88 540.25 958.00 454.00
C 988.50 481.61 1004.50 508.97 1020.98 546.03 C 1037.45 583.08 1044.25 638.60 1039.01 680.01 C 1033.77 721.42 1021.34 762.53 999.70 796.70 C 978.05 830.86 957.97 853.20 925.75 877.75 C 893.53 902.31 858.82 916.77 818.93 926.93 C 779.03 937.08 719.20 935.76 679.98 924.02 C 640.75 912.29 608.56 897.54 576.92 872.08 C 545.27 846.62 525.78 822.53 505.23 787.77 C 484.67 753.01 473.09 708.72 470.00 667.00 C 466.91 625.28 475.33 572.48 491.92 535.92 C 508.52 499.37 527.15 471.51 555.75 443.75 C 584.36 416.00 616.50 395.54 653.00 387.00
M 1006.00 422.00 
C 1017.26 425.02 1015.98 445.75 1014.01 454.01 C 1012.04 462.26 1003.51 477.96 992.33 473.67 C 981.15 469.38 983.04 451.45 984.98 442.98 C 986.91 434.50 994.84 419.00 1006.00 422.00
M 862.00 474.00 
C 853.91 477.03 841.12 471.77 835.75 466.25 C 830.38 460.72 823.15 444.60 829.32 438.32 C 835.49 432.04 849.84 440.42 855.25 445.75 C 860.65 451.09 865.93 465.79 862.00 474.00
M 903.00 437.00 
C 911.89 439.25 915.07 455.53 915.00 463.00 C 914.93 470.47 910.10 487.71 899.33 485.67 C 888.55 483.63 887.18 468.36 887.00 460.00 C 886.82 451.64 890.98 433.95 903.00 437.00
M 1055.00 480.00 
C 1067.11 483.67 1059.43 502.60 1052.25 508.25 C 1045.07 513.90 1033.70 525.95 1022.33 520.67 C 1010.96 515.39 1017.43 499.67 1024.75 492.75 C 1032.07 485.84 1043.48 476.50 1055.00 480.00
M 957.00 482.00 
C 964.80 499.81 948.40 521.26 929.00 519.00
C 920.55 500.91 937.35 479.18 957.00 482.00
M 861.00 490.00 
C 869.52 490.71 881.01 498.61 873.75 507.75 C 866.48 516.89 856.91 514.66 847.00 516.00 C 837.09 517.34 827.97 506.37 835.25 499.25 C 842.53 492.13 851.16 489.18 861.00 490.00
M 986.00 522.00 
C 996.23 524.75 991.85 543.06 987.08 549.08 C 982.30 555.09 973.28 567.74 963.33 563.67 C 953.38 559.60 957.79 544.26 962.31 537.31 C 966.82 530.35 976.03 519.32 986.00 522.00
M 895.00 525.00 
C 913.52 528.01 905.80 545.64 894.31 550.31 C 882.81 554.97 859.74 554.52 860.00 540.00 C 860.26 525.48 885.37 523.44 895.00 525.00
M 1081.00 541.00 
C 1091.68 544.24 1084.73 564.48 1077.75 569.75 C 1070.76 575.01 1058.52 586.60 1047.78 581.22 C 1037.03 575.84 1042.67 560.24 1050.25 553.25 C 1057.83 546.26 1069.27 537.44 1081.00 541.00
M 888.00 581.00 
C 891.61 573.77 894.83 568.51 902.70 564.70 C 910.56 560.89 920.33 561.35 928.69 565.31 C 937.06 569.26 939.27 574.50 932.25 581.25 C 925.23 588.00 919.52 591.22 910.00 591.00 C 900.48 590.78 894.87 586.96 888.00 581.00
M 200.00 1007.00 
C 199.65 1009.81 199.81 1013.18 200.00 1016.00
C 201.11 1032.34 219.59 1038.28 233.08 1043.92 C 246.56 1049.57 261.42 1060.09 262.00 1077.00
C 262.36 1079.54 262.45 1081.48 262.00 1084.00
C 261.35 1094.26 254.42 1102.30 246.30 1108.30 C 238.19 1114.31 224.14 1117.99 214.00 1116.00 C 203.86 1114.01 190.03 1112.69 188.00 1102.00
C 195.70 1107.51 204.33 1111.85 214.00 1112.00
C 217.59 1112.19 221.41 1112.20 225.00 1112.00
C 240.83 1111.14 254.14 1095.97 251.00 1080.00 C 247.86 1064.03 233.57 1058.02 219.92 1053.08 C 206.28 1048.13 192.05 1040.66 189.01 1024.99 C 185.96 1009.33 193.11 994.09 207.70 987.70 C 222.28 981.30 243.99 981.69 253.00 994.00
C 236.21 984.18 204.33 982.42 200.00 1007.00
M 698.00 1110.00 
C 696.13 1113.06 683.88 1111.18 682.00 1109.00
C 676.76 1102.93 676.44 1091.91 672.07 1084.93 C 667.71 1077.94 665.26 1068.55 662.00 1061.00
C 651.55 1059.78 641.49 1062.62 631.00 1061.00 C 620.51 1059.38 612.42 1061.44 609.68 1070.68 C 606.94 1079.92 603.43 1084.25 600.08 1092.08 C 596.72 1099.90 594.77 1109.59 587.00 1111.00
C 605.21 1068.53 624.79 1026.49 643.00 984.00
C 663.06 1024.72 679.77 1068.07 698.00 1110.00
M 772.00 1007.00 
C 771.65 1009.81 771.81 1013.18 772.00 1016.00
C 773.11 1032.35 791.59 1038.28 805.08 1043.92 C 818.56 1049.57 833.42 1060.08 834.00 1077.00
C 834.36 1079.54 834.45 1081.48 834.00 1084.00
C 833.35 1094.26 826.42 1102.30 818.30 1108.30 C 810.19 1114.31 796.14 1117.99 786.00 1116.00 C 775.86 1114.01 762.03 1112.69 760.00 1102.00
C 767.70 1107.51 776.33 1111.85 786.00 1112.00
C 789.59 1112.19 793.41 1112.20 797.00 1112.00
C 812.83 1111.14 826.14 1095.97 823.00 1080.00 C 819.86 1064.03 805.57 1058.02 791.92 1053.08 C 778.28 1048.13 764.05 1040.65 761.01 1024.99 C 757.97 1009.33 765.11 994.09 779.70 987.70 C 794.28 981.30 815.98 981.68 825.00 994.00
C 808.21 984.18 776.33 982.42 772.00 1007.00
M 413.00 1044.00 
C 413.43 1048.48 413.64 1053.54 413.00 1058.00
C 411.04 1109.42 347.45 1128.15 307.75 1105.25 C 268.06 1082.34 267.30 1015.69 308.25 993.25 C 349.20 970.80 413.00 992.26 413.00 1044.00
M 448.00 985.00 
C 464.83 1019.91 484.46 1053.90 501.00 1089.00
C 521.28 1055.60 537.81 1019.34 557.00 985.00
C 563.24 1026.28 567.40 1068.95 572.00 1111.00
C 567.33 1111.00 562.67 1111.00 558.00 1111.00
C 553.64 1078.18 550.80 1044.32 546.00 1012.00
C 529.99 1044.25 512.52 1075.91 496.00 1108.00
C 478.64 1077.63 462.46 1045.60 447.00 1014.00
C 440.82 1045.53 438.34 1078.89 433.00 1111.00
C 427.20 1106.97 432.21 1095.74 432.78 1087.78 C 433.34 1079.82 435.20 1070.31 436.00 1062.00 C 436.80 1053.69 438.95 1044.41 439.99 1035.99 C 441.03 1027.57 441.74 1018.34 443.00 1010.00 C 444.25 1001.66 444.45 991.16 448.00 985.00
M 1316.00 985.00 
C 1353.62 991.11 1376.05 1022.59 1370.22 1061.22 C 1364.40 1099.85 1329.47 1118.66 1291.78 1114.22 C 1254.08 1109.79 1230.53 1075.88 1236.00 1038.00 C 1241.47 1000.12 1279.10 979.00 1316.00 985.00
M 939.00 990.00 
C 937.17 993.76 925.52 989.86 921.00 991.00 C 916.48 992.14 906.05 990.14 901.00 991.00
C 897.87 995.47 902.42 1005.32 901.00 1011.00 C 899.58 1016.68 901.64 1024.78 901.00 1031.00 C 900.36 1037.22 901.29 1044.54 901.00 1051.00 C 900.71 1057.46 901.13 1064.43 901.00 1071.00 C 900.87 1077.57 901.07 1084.38 901.00 1091.00 C 900.93 1097.62 901.05 1104.37 901.00 1111.00
C 896.33 1111.00 891.67 1111.00 887.00 1111.00
C 883.01 1108.21 887.14 1097.20 886.00 1092.00 C 884.86 1086.80 886.51 1078.02 886.00 1072.00 C 885.49 1065.98 886.23 1058.40 886.00 1052.00 C 885.77 1045.61 886.11 1038.59 886.00 1032.00 C 885.89 1025.41 886.05 1018.74 886.00 1012.00 C 885.95 1005.26 886.04 997.81 886.00 991.00
C 879.95 990.54 870.73 991.61 865.00 991.00 C 859.27 990.39 847.34 993.76 849.00 987.00
C 854.37 983.66 864.42 988.45 871.00 987.00 C 877.58 985.55 886.93 987.70 894.00 987.00 C 901.07 986.30 908.69 987.35 916.00 987.00 C 923.31 986.65 931.60 987.26 939.00 987.00
C 939.00 988.00 939.00 989.00 939.00 990.00
M 1048.00 987.00 
C 1051.45 988.68 1048.07 998.85 1049.00 1003.00 C 1049.93 1007.15 1048.51 1015.02 1049.00 1020.00 C 1049.49 1024.98 1048.62 1031.65 1049.00 1037.00 C 1049.38 1042.35 1048.47 1048.50 1049.00 1054.00 C 1049.53 1059.50 1048.46 1066.23 1048.00 1071.00
C 1048.00 1098.00 1029.21 1113.03 1003.00 1114.00 C 976.79 1114.97 956.07 1100.88 955.00 1073.00
C 954.12 1066.86 953.54 1058.79 954.00 1052.00 C 954.46 1045.21 953.34 1036.50 954.00 1030.00 C 954.66 1023.50 952.69 1013.66 954.00 1008.00 C 955.31 1002.34 950.70 990.01 955.00 987.00
C 958.13 984.81 965.48 988.65 969.00 987.00
C 971.51 1018.01 963.99 1060.86 972.77 1089.23 C 981.55 1117.60 1030.02 1116.83 1040.30 1089.31 C 1050.59 1061.78 1042.31 1017.57 1045.00 987.00
C 1046.00 987.00 1047.00 987.00 1048.00 987.00
M 1067.00 1111.00 
C 1067.00 1069.67 1067.00 1028.34 1067.00 987.00
C 1097.66 989.15 1145.30 978.36 1166.75 1004.25 C 1188.20 1030.14 1187.02 1065.96 1165.25 1091.25 C 1143.47 1116.53 1098.42 1110.86 1067.00 1111.00
M 1215.00 1111.00 
C 1211.87 1113.19 1204.52 1109.36 1201.00 1111.00
C 1201.00 1069.67 1201.00 1028.34 1201.00 987.00
C 1205.67 987.00 1210.33 987.00 1215.00 987.00
C 1219.09 989.86 1214.86 1001.64 1216.00 1007.00 C 1217.14 1012.36 1215.57 1021.85 1216.00 1028.00 C 1216.43 1034.15 1216.00 1042.64 1216.00 1049.00 C 1216.00 1055.36 1216.43 1063.84 1216.00 1070.00 C 1215.57 1076.16 1217.14 1085.61 1216.00 1091.00 C 1214.86 1096.39 1219.07 1108.15 1215.00 1111.00 Z"/>
</g>
<g fill="#2E4F39" fill-opacity="1.00" stroke="None">
<path d="
M 800.00 388.00 
C 774.01 365.36 734.85 369.47 711.25 395.25 C 687.65 421.03 687.15 456.76 707.70 486.31 C 728.24 515.85 703.01 557.54 669.02 559.02 C 635.04 560.50 605.20 574.77 590.31 606.31 C 575.41 637.84 580.86 683.09 577.00 717.00
C 587.86 683.63 586.25 648.67 600.08 616.08 C 613.90 583.48 651.06 577.75 681.99 573.99 C 712.93 570.24 740.59 532.68 731.93 502.07 C 723.26 471.47 695.74 442.46 715.08 411.08 C 734.41 379.69 768.27 372.30 800.00 388.00 Z"/>
</g>
<g fill="#2F4F3A" fill-opacity="1.00" stroke="None">
<path d="
M 653.00 387.00 
C 616.50 395.54 584.36 416.00 555.75 443.75 C 527.15 471.51 508.52 499.37 491.92 535.92 C 475.33 572.48 466.91 625.28 470.00 667.00 C 473.09 708.72 484.67 753.01 505.23 787.77 C 525.78 822.53 545.27 846.62 576.92 872.08 C 608.56 897.54 640.75 912.29 679.98 924.02 C 719.20 935.76 779.03 937.08 818.93 926.93 C 858.82 916.77 893.53 902.31 925.75 877.75 C 957.97 853.20 978.05 830.86 999.70 796.70 C 1021.34 762.53 1033.77 721.42 1039.01 680.01 C 1044.25 638.60 1037.45 583.08 1020.98 546.03 C 1004.50 508.97 988.50 481.61 958.00 454.00
C 1035.88 540.25 1055.84 679.05 996.00 780.00
C 1012.85 666.14 972.26 544.82 873.00 481.00
C 884.77 492.00 897.25 503.14 909.25 515.75 C 921.25 528.36 930.22 540.32 940.08 554.92 C 949.94 569.52 956.97 583.78 964.23 600.77 C 971.49 617.76 976.61 635.99 981.02 654.98 C 985.44 673.96 986.60 697.31 988.22 717.78 C 989.84 738.25 986.81 764.25 986.00 784.00 C 985.19 803.75 973.48 816.52 961.25 830.25 C 949.02 843.97 938.26 852.96 924.75 863.75 C 911.24 874.54 897.28 883.66 882.00 891.00
C 861.22 841.55 870.78 782.89 886.00 734.00
C 891.02 750.48 903.59 765.85 920.00 772.00
C 904.29 751.70 885.84 726.30 897.00 699.00
C 893.19 698.43 889.91 696.08 886.00 696.00
C 864.13 758.05 844.24 832.35 874.00 896.00
C 810.02 925.96 731.23 930.41 664.00 907.00
C 700.92 841.94 679.82 761.45 657.00 696.00
C 653.90 696.75 650.92 697.72 648.00 699.00
C 655.94 726.29 641.97 752.37 624.00 772.00
C 640.22 764.71 654.40 749.18 659.00 732.00
C 676.14 785.13 686.12 851.98 656.00 903.00
C 550.07 864.87 479.96 757.21 480.00 646.00 C 480.04 534.79 551.46 431.92 653.00 387.00 Z"/>
</g>
<g fill="#2E4E38" fill-opacity="1.00" stroke="None">
<path d="
M 1006.00 422.00 
C 994.84 419.00 986.91 434.50 984.98 442.98 C 983.04 451.45 981.15 469.38 992.33 473.67 C 1003.51 477.96 1012.04 462.26 1014.01 454.01 C 1015.98 445.75 1017.26 425.02 1006.00 422.00 Z"/>
</g>
<g fill="#2E4F39" fill-opacity="1.00" stroke="None">
<path d="
M 862.00 474.00 
C 865.93 465.79 860.65 451.09 855.25 445.75 C 849.84 440.42 835.49 432.04 829.32 438.32 C 823.15 444.60 830.38 460.72 835.75 466.25 C 841.12 471.77 853.91 477.03 862.00 474.00 Z"/>
</g>
<g fill="#2E4F39" fill-opacity="1.00" stroke="None">
<path d="
M 903.00 437.00 
C 890.98 433.95 886.82 451.64 887.00 460.00 C 887.18 468.36 888.55 483.63 899.33 485.67 C 910.10 487.71 914.93 470.47 915.00 463.00 C 915.07 455.53 911.89 439.25 903.00 437.00 Z"/>
</g>
<g fill="#2E4E38" fill-opacity="1.00" stroke="None">
<path d="
M 1055.00 480.00 
C 1043.48 476.50 1032.07 485.84 1024.75 492.75 C 1017.43 499.67 1010.96 515.39 1022.33 520.67 C 1033.70 525.95 1045.07 513.90 1052.25 508.25 C 1059.43 502.60 1067.11 483.67 1055.00 480.00 Z"/>
</g>
<g fill="#2E4F39" fill-opacity="1.00" stroke="None">
<path d="
M 957.00 482.00 
C 937.35 479.18 920.55 500.91 929.00 519.00
C 948.40 521.26 964.80 499.81 957.00 482.00 Z"/>
</g>
<g fill="#2E4F39" fill-opacity="1.00" stroke="None">
<path d="
M 861.00 490.00 
C 851.16 489.18 842.53 492.13 835.25 499.25 C 827.97 506.37 837.09 517.34 847.00 516.00 C 856.91 514.66 866.48 516.89 873.75 507.75 C 881.01 498.61 869.52 490.71 861.00 490.00 Z"/>
</g>
<g fill="#2E4F39" fill-opacity="1.00" stroke="None">
<path d="
M 986.00 522.00 
C 976.03 519.32 966.82 530.35 962.31 537.31 C 957.79 544.26 953.38 559.60 963.33 563.67 C 973.28 567.74 982.30 555.09 987.08 549.08 C 991.85 543.06 996.23 524.75 986.00 522.00 Z"/>
</g>
<g fill="#2E4E39" fill-opacity="1.00" stroke="None">
<path d="
M 895.00 525.00 
C 885.37 523.44 860.26 525.48 860.00 540.00 C 859.74 554.52 882.81 554.97 894.31 550.31 C 905.80 545.64 913.52 528.01 895.00 525.00 Z"/>
</g>
<g fill="#2E4E39" fill-opacity="1.00" stroke="None">
<path d="
M 1081.00 541.00 
C 1069.27 537.44 1057.83 546.26 1050.25 553.25 C 1042.67 560.24 1037.03 575.84 1047.78 581.22 C 1058.52 586.60 1070.76 575.01 1077.75 569.75 C 1084.73 564.48 1091.68 544.24 1081.00 541.00 Z"/>
</g>
<g fill="#2E4F39" fill-opacity="1.00" stroke="None">
<path d="
M 888.00 581.00 
C 894.87 586.96 900.48 590.78 910.00 591.00 C 919.52 591.22 925.23 588.00 932.25 581.25 C 939.27 574.50 937.06 569.26 928.69 565.31 C 920.33 561.35 910.56 560.89 902.70 564.70 C 894.83 568.51 891.61 573.77 888.00 581.00 Z"/>
</g>
<g fill="#C58D28" fill-opacity="1.00" stroke="None">
<path d="
M 225.00 1112.00 
C 221.26 1112.61 217.67 1112.60 214.00 1112.00
C 204.33 1111.85 195.70 1107.51 188.00 1102.00
C 190.03 1112.69 203.86 1114.01 214.00 1116.00 C 224.14 1117.99 238.19 1114.31 246.30 1108.30 C 254.42 1102.30 261.35 1094.26 262.00 1084.00
C 262.15 1081.71 262.08 1079.30 262.00 1077.00
C 261.42 1060.09 246.56 1049.57 233.08 1043.92 C 219.59 1038.28 201.11 1032.34 200.00 1016.00
C 199.42 1012.76 199.20 1010.24 200.00 1007.00
C 204.33 982.42 236.21 984.18 253.00 994.00
C 243.99 981.69 222.28 981.30 207.70 987.70 C 193.11 994.09 185.96 1009.33 189.01 1024.99 C 192.05 1040.66 206.28 1048.13 219.92 1053.08 C 233.57 1058.02 247.86 1064.03 251.00 1080.00 C 254.14 1095.97 240.83 1111.14 225.00 1112.00 Z"/>
</g>
<g fill="#C58D28" fill-opacity="1.00" stroke="None">
<path d="
M 682.00 1109.00 
C 685.93 1112.26 693.43 1108.63 698.00 1110.00
C 679.77 1068.07 663.06 1024.72 643.00 984.00
C 624.79 1026.49 605.21 1068.53 587.00 1111.00
C 594.77 1109.59 596.72 1099.90 600.08 1092.08 C 603.43 1084.25 606.94 1079.92 609.68 1070.68 C 612.42 1061.44 620.51 1059.38 631.00 1061.00 C 641.49 1062.62 651.55 1059.78 662.00 1061.00
C 665.26 1068.55 667.71 1077.94 672.07 1084.93 C 676.44 1091.91 676.76 1102.93 682.00 1109.00
M 639.00 1007.00 
C 645.03 1024.32 653.75 1040.73 660.00 1058.00
C 645.33 1058.00 630.67 1058.00 616.00 1058.00
C 622.50 1040.93 629.84 1021.80 639.00 1007.00 Z"/>
</g>
<g fill="#C58D28" fill-opacity="1.00" stroke="None">
<path d="
M 797.00 1112.00 
C 793.26 1112.61 789.67 1112.60 786.00 1112.00
C 776.33 1111.85 767.70 1107.51 760.00 1102.00
C 762.03 1112.69 775.86 1114.01 786.00 1116.00 C 796.14 1117.99 810.19 1114.31 818.30 1108.30 C 826.42 1102.30 833.35 1094.26 834.00 1084.00
C 834.15 1081.71 834.08 1079.30 834.00 1077.00
C 833.42 1060.08 818.56 1049.57 805.08 1043.92 C 791.59 1038.28 773.11 1032.35 772.00 1016.00
C 771.42 1012.76 771.20 1010.24 772.00 1007.00
C 776.33 982.42 808.21 984.18 825.00 994.00
C 815.98 981.68 794.28 981.30 779.70 987.70 C 765.11 994.09 757.97 1009.33 761.01 1024.99 C 764.05 1040.65 778.28 1048.13 791.92 1053.08 C 805.57 1058.02 819.86 1064.03 823.00 1080.00 C 826.14 1095.97 812.83 1111.14 797.00 1112.00 Z"/>
</g>
<g fill="#C58D28" fill-opacity="1.00" stroke="None">
<path d="
M 413.00 1058.00 
C 413.18 1053.35 413.00 1048.66 413.00 1044.00
C 413.00 992.26 349.20 970.80 308.25 993.25 C 267.30 1015.69 268.06 1082.34 307.75 1105.25 C 347.45 1128.15 411.04 1109.42 413.00 1058.00
M 351.00 989.00 
C 415.43 990.29 415.96 1108.52 351.00 1111.00
C 347.32 1111.53 343.62 1111.52 340.00 1111.00
C 274.04 1108.48 276.91 990.32 343.00 989.00
C 345.66 988.68 348.40 988.69 351.00 989.00 Z"/>
</g>
<g fill="#C58E29" fill-opacity="1.00" stroke="None">
<path d="
M 448.00 985.00 
C 444.45 991.16 444.25 1001.66 443.00 1010.00 C 441.74 1018.34 441.03 1027.57 439.99 1035.99 C 438.95 1044.41 436.80 1053.69 436.00 1062.00 C 435.20 1070.31 433.34 1079.82 432.78 1087.78 C 432.21 1095.74 427.20 1106.97 433.00 1111.00
C 438.34 1078.89 440.82 1045.53 447.00 1014.00
C 462.46 1045.60 478.64 1077.63 496.00 1108.00
C 512.52 1075.91 529.99 1044.25 546.00 1012.00
C 550.80 1044.32 553.64 1078.18 558.00 1111.00
C 562.67 1111.00 567.33 1111.00 572.00 1111.00
C 567.40 1068.95 563.24 1026.28 557.00 985.00
C 537.81 1019.34 521.28 1055.60 501.00 1089.00
C 484.46 1053.90 464.83 1019.91 448.00 985.00 Z"/>
</g>
<g fill="#C58D27" fill-opacity="1.00" stroke="None">
<path d="
M 1316.00 985.00 
C 1279.10 979.00 1241.47 1000.12 1236.00 1038.00 C 1230.53 1075.88 1254.08 1109.79 1291.78 1114.22 C 1329.47 1118.66 1364.40 1099.85 1370.22 1061.22 C 1376.05 1022.59 1353.62 991.11 1316.00 985.00
M 1310.00 989.00 
C 1339.13 991.31 1356.00 1017.31 1356.00 1045.00
C 1356.43 1049.45 1356.53 1054.59 1356.00 1059.00
C 1355.47 1085.67 1337.79 1109.49 1310.00 1111.00
C 1305.99 1111.65 1301.93 1111.56 1298.00 1111.00
C 1269.88 1109.93 1252.03 1086.91 1251.00 1060.00
C 1250.10 1053.66 1250.10 1046.27 1251.00 1040.00
C 1251.99 1014.12 1270.36 991.11 1297.00 989.00
C 1301.33 988.16 1305.73 988.18 1310.00 989.00 Z"/>
</g>
<g fill="#E2D5AB" fill-opacity="1.00" stroke="None">
<path d="
M 887.00 1111.00 
C 887.00 1070.67 887.00 1030.34 887.00 990.00
C 874.33 990.00 861.67 990.00 849.00 990.00
C 849.00 989.00 849.00 988.00 849.00 987.00
C 847.34 993.76 859.27 990.39 865.00 991.00 C 870.73 991.61 879.95 990.54 886.00 991.00
C 886.04 997.81 885.95 1005.26 886.00 1012.00 C 886.05 1018.74 885.89 1025.41 886.00 1032.00 C 886.11 1038.59 885.77 1045.61 886.00 1052.00 C 886.23 1058.40 885.49 1065.98 886.00 1072.00 C 886.51 1078.02 884.86 1086.80 886.00 1092.00 C 887.14 1097.20 883.01 1108.21 887.00 1111.00 Z"/>
</g>
<g fill="#C48A20" fill-opacity="1.00" stroke="None">
<path d="
M 887.00 1111.00 
C 891.67 1111.00 896.33 1111.00 901.00 1111.00
C 901.05 1104.37 900.93 1097.62 901.00 1091.00 C 901.07 1084.38 900.87 1077.57 901.00 1071.00 C 901.13 1064.43 900.71 1057.46 901.00 1051.00 C 901.29 1044.54 900.36 1037.22 901.00 1031.00 C 901.64 1024.78 899.58 1016.68 901.00 1011.00 C 902.42 1005.32 897.87 995.47 901.00 991.00
C 903.73 987.10 914.04 991.21 919.00 990.00 C 923.96 988.79 933.61 990.91 939.00 990.00
C 939.00 989.00 939.00 988.00 939.00 987.00
C 931.60 987.26 923.31 986.65 916.00 987.00 C 908.69 987.35 901.07 986.30 894.00 987.00 C 886.93 987.70 877.58 985.55 871.00 987.00 C 864.42 988.45 854.37 983.66 849.00 987.00
C 849.00 988.00 849.00 989.00 849.00 990.00
C 861.67 990.00 874.33 990.00 887.00 990.00
C 887.00 1030.34 887.00 1070.67 887.00 1111.00 Z"/>
</g>
<g fill="#DAC88F" fill-opacity="1.00" stroke="None">
<path d="
M 955.00 1073.00 
C 953.91 1044.38 955.82 1015.63 955.00 987.00
C 950.70 990.01 955.31 1002.34 954.00 1008.00 C 952.69 1013.66 954.66 1023.50 954.00 1030.00 C 953.34 1036.50 954.46 1045.21 954.00 1052.00 C 953.54 1058.79 954.12 1066.86 955.00 1073.00 Z"/>
</g>
<g fill="#C58D27" fill-opacity="1.00" stroke="None">
<path d="
M 955.00 1073.00 
C 956.07 1100.88 976.79 1114.97 1003.00 1114.00 C 1029.21 1113.03 1048.00 1098.00 1048.00 1071.00
C 1048.00 1043.00 1048.00 1015.00 1048.00 987.00
C 1047.00 987.00 1046.00 987.00 1045.00 987.00
C 1042.31 1017.57 1050.59 1061.78 1040.30 1089.31 C 1030.02 1116.83 981.55 1117.60 972.77 1089.23 C 963.99 1060.86 971.51 1018.01 969.00 987.00
C 965.48 988.65 958.13 984.81 955.00 987.00
C 955.82 1015.63 953.91 1044.38 955.00 1073.00 Z"/>
</g>
<g fill="#D5BE7F" fill-opacity="1.00" stroke="None">
<path d="
M 1048.00 1071.00 
C 1048.46 1066.23 1049.53 1059.50 1049.00 1054.00 C 1048.47 1048.50 1049.38 1042.35 1049.00 1037.00 C 1048.62 1031.65 1049.49 1024.98 1049.00 1020.00 C 1048.51 1015.02 1049.93 1007.15 1049.00 1003.00 C 1048.07 998.85 1051.45 988.68 1048.00 987.00
C 1048.00 1015.00 1048.00 1043.00 1048.00 1071.00 Z"/>
</g>
<g fill="#C58D26" fill-opacity="1.00" stroke="None">
<path d="
M 1067.00 1111.00 
C 1098.42 1110.86 1143.47 1116.53 1165.25 1091.25 C 1187.02 1065.96 1188.20 1030.14 1166.75 1004.25 C 1145.30 978.36 1097.66 989.15 1067.00 987.00
C 1067.00 1028.34 1067.00 1069.67 1067.00 1111.00
M 1118.00 991.00 
C 1184.39 992.33 1181.11 1104.51 1116.00 1107.00
C 1105.13 1108.55 1092.60 1107.92 1081.00 1108.00
C 1081.00 1068.67 1080.99 1029.33 1081.00 990.00
C 1093.17 990.67 1106.66 988.67 1118.00 991.00 Z"/>
</g>
<g fill="#C48C25" fill-opacity="1.00" stroke="None">
<path d="
M 1215.00 1111.00 
C 1215.00 1069.67 1215.00 1028.34 1215.00 987.00
C 1210.33 987.00 1205.67 987.00 1201.00 987.00
C 1201.00 1028.34 1201.00 1069.67 1201.00 1111.00
C 1204.52 1109.36 1211.87 1113.19 1215.00 1111.00 Z"/>
</g>
<g fill="#DAC991" fill-opacity="1.00" stroke="None">
<path d="
M 1215.00 1111.00 
C 1219.07 1108.15 1214.86 1096.39 1216.00 1091.00 C 1217.14 1085.61 1215.57 1076.16 1216.00 1070.00 C 1216.43 1063.84 1216.00 1055.36 1216.00 1049.00 C 1216.00 1042.64 1216.43 1034.15 1216.00 1028.00 C 1215.57 1021.85 1217.14 1012.36 1216.00 1007.00 C 1214.86 1001.64 1219.09 989.86 1215.00 987.00
C 1215.00 1028.34 1215.00 1069.67 1215.00 1111.00 Z"/>
</g>
<g fill="#E4D6AC" fill-opacity="1.00" stroke="None">
<path d="
M 343.00 989.00 
C 345.66 988.95 348.34 988.95 351.00 989.00
C 348.40 988.69 345.66 988.68 343.00 989.00 Z"/>
</g>
<g fill="#DDCA96" fill-opacity="1.00" stroke="None">
<path d="
M 1297.00 989.00 
C 1301.15 988.67 1305.85 988.67 1310.00 989.00
C 1305.73 988.18 1301.33 988.16 1297.00 989.00 Z"/>
</g>
<g fill="#FEFEFE" fill-opacity="1.00" stroke="None">
<path d="
M 340.00 1111.00 
C 343.63 1111.14 347.37 1111.14 351.00 1111.00
C 415.96 1108.52 415.43 990.29 351.00 989.00
C 348.34 988.95 345.66 988.95 343.00 989.00
C 276.91 990.32 274.04 1108.48 340.00 1111.00 Z"/>
</g>
<g fill="#FEFEFE" fill-opacity="1.00" stroke="None">
<path d="
M 1251.00 1040.00 
C 1250.75 1046.60 1250.75 1053.40 1251.00 1060.00
C 1252.03 1086.91 1269.88 1109.93 1298.00 1111.00
C 1301.94 1111.15 1306.06 1111.21 1310.00 1111.00
C 1337.79 1109.49 1355.47 1085.67 1356.00 1059.00
C 1356.09 1054.34 1356.00 1049.66 1356.00 1045.00
C 1356.00 1017.31 1339.13 991.31 1310.00 989.00
C 1305.85 988.67 1301.15 988.67 1297.00 989.00
C 1270.36 991.11 1251.99 1014.12 1251.00 1040.00 Z"/>
</g>
<g fill="#E6D9B2" fill-opacity="1.00" stroke="None">
<path d="
M 901.00 991.00 
C 906.05 990.14 916.48 992.14 921.00 991.00 C 925.52 989.86 937.17 993.76 939.00 990.00
C 933.61 990.91 923.96 988.79 919.00 990.00 C 914.04 991.21 903.73 987.10 901.00 991.00 Z"/>
</g>
<g fill="#DCCB96" fill-opacity="1.00" stroke="None">
<path d="
M 1116.00 1107.00 
C 1104.68 1107.43 1093.32 1106.68 1082.00 1107.00
C 1082.00 1068.34 1082.00 1029.66 1082.00 991.00
C 1094.00 991.00 1106.00 991.00 1118.00 991.00
C 1106.66 988.67 1093.17 990.67 1081.00 990.00
C 1080.99 1029.33 1081.00 1068.67 1081.00 1108.00
C 1092.60 1107.92 1105.13 1108.55 1116.00 1107.00 Z"/>
</g>
<g fill="#FEFEFE" fill-opacity="1.00" stroke="None">
<path d="
M 1116.00 1107.00 
C 1181.11 1104.51 1184.39 992.33 1118.00 991.00
C 1106.00 991.00 1094.00 991.00 1082.00 991.00
C 1082.00 1029.66 1082.00 1068.34 1082.00 1107.00
C 1093.32 1106.68 1104.68 1107.43 1116.00 1107.00 Z"/>
</g>
<g fill="#DCCA94" fill-opacity="1.00" stroke="None">
<path d="
M 200.00 1016.00 
C 199.81 1013.18 199.65 1009.81 200.00 1007.00
C 199.20 1010.24 199.42 1012.76 200.00 1016.00 Z"/>
</g>
<g fill="#FDFCFA" fill-opacity="1.00" stroke="None">
<path d="
M 639.00 1007.00 
C 629.84 1021.80 622.50 1040.93 616.00 1058.00
C 630.67 1058.00 645.33 1058.00 660.00 1058.00
C 653.75 1040.73 645.03 1024.32 639.00 1007.00 Z"/>
</g>
<g fill="#DCCA94" fill-opacity="1.00" stroke="None">
<path d="
M 772.00 1016.00 
C 771.81 1013.18 771.65 1009.81 772.00 1007.00
C 771.20 1010.24 771.42 1012.76 772.00 1016.00 Z"/>
</g>
<g fill="#E1D3A7" fill-opacity="1.00" stroke="None">
<path d="
M 1251.00 1060.00 
C 1250.75 1053.40 1250.75 1046.60 1251.00 1040.00
C 1250.10 1046.27 1250.10 1053.66 1251.00 1060.00 Z"/>
</g>
<g fill="#DFCFA0" fill-opacity="1.00" stroke="None">
<path d="
M 413.00 1058.00 
C 413.64 1053.54 413.43 1048.48 413.00 1044.00
C 413.00 1048.66 413.18 1053.35 413.00 1058.00 Z"/>
</g>
<g fill="#E3D6AD" fill-opacity="1.00" stroke="None">
<path d="
M 1356.00 1059.00 
C 1356.53 1054.59 1356.43 1049.45 1356.00 1045.00
C 1356.00 1049.66 1356.09 1054.34 1356.00 1059.00 Z"/>
</g>
<g fill="#E1D3A6" fill-opacity="1.00" stroke="None">
<path d="
M 262.00 1084.00 
C 262.45 1081.48 262.36 1079.54 262.00 1077.00
C 262.08 1079.30 262.15 1081.71 262.00 1084.00 Z"/>
</g>
<g fill="#E1D3A6" fill-opacity="1.00" stroke="None">
<path d="
M 834.00 1084.00 
C 834.45 1081.48 834.36 1079.54 834.00 1077.00
C 834.08 1079.30 834.15 1081.71 834.00 1084.00 Z"/>
</g>
<g fill="#D4BB76" fill-opacity="1.00" stroke="None">
<path d="
M 698.00 1110.00 
C 693.43 1108.63 685.93 1112.26 682.00 1109.00
C 683.88 1111.18 696.13 1113.06 698.00 1110.00 Z"/>
</g>
<g fill="#D5BD7B" fill-opacity="1.00" stroke="None">
<path d="
M 351.00 1111.00 
C 347.37 1111.14 343.63 1111.14 340.00 1111.00
C 343.62 1111.52 347.32 1111.53 351.00 1111.00 Z"/>
</g>
<g fill="#D4BA76" fill-opacity="1.00" stroke="None">
<path d="
M 1310.00 1111.00 
C 1306.06 1111.21 1301.94 1111.15 1298.00 1111.00
C 1301.93 1111.56 1305.99 1111.65 1310.00 1111.00 Z"/>
</g>
<g fill="#DDCB96" fill-opacity="1.00" stroke="None">
<path d="
M 225.00 1112.00 
C 221.41 1112.20 217.59 1112.19 214.00 1112.00
C 217.67 1112.60 221.26 1112.61 225.00 1112.00 Z"/>
</g>
<g fill="#DDCB96" fill-opacity="1.00" stroke="None">
<path d="
M 797.00 1112.00 
C 793.41 1112.20 789.59 1112.19 786.00 1112.00
C 789.67 1112.60 793.26 1112.61 797.00 1112.00 Z"/>
</g>
</svg>